M48
; DRILL file {KiCad 9.0.2} date 2025-06-19T20:24:51-0700
; FORMAT={-:-/ absolute / metric / decimal}
; #@! TF.CreationDate,2025-06-19T20:24:51-07:00
; #@! TF.GenerationSoftware,Kicad,Pcbnew,9.0.2
; #@! TF.FileFunction,NonPlated,1,2,NPTH
FMAT,2
METRIC
; #@! TA.AperFunction,NonPlated,NPTH,ComponentDrill
T1C1.500
; #@! TA.AperFunction,NonPlated,NPTH,ComponentDrill
T2C1.702
; #@! TA.AperFunction,NonPlated,NPTH,ComponentDrill
T3C1.800
; #@! TA.AperFunction,NonPlated,NPTH,ComponentDrill
T4C3.000
; #@! TA.AperFunction,NonPlated,NPTH,ComponentDrill
T5C3.048
; #@! TA.AperFunction,NonPlated,NPTH,ComponentDrill
T6C3.988
%
G90
G05
T1
X29.52Y-43.315
X29.52Y-48.165
T2
X27.73Y-142.875
X29.086Y-66.675
X30.71Y-85.725
X31.75Y-104.775
X34.925Y-123.825
X37.89Y-142.875
X39.246Y-66.675
X40.87Y-85.725
X41.91Y-104.775
X45.085Y-123.825
X48.136Y-66.675
X54.61Y-85.725
X57.96Y-104.775
X58.296Y-66.675
X64.77Y-85.725
X65.87Y-123.825
X67.186Y-65.5
X68.12Y-104.775
X75.112Y-84.948
X76.03Y-123.825
X77.346Y-65.5
X78.627Y-104.793
X80.418Y-143.876
X85.173Y-86.362
X86.436Y-125.392
X88.174Y-67.173
X88.688Y-106.207
X90.479Y-145.29
X93.969Y-87.599
X96.497Y-126.806
X98.0Y-107.446
X98.235Y-68.587
X104.031Y-89.013
X104.055Y-147.198
X105.301Y-128.043
X107.039Y-69.825
X108.061Y-108.86
X112.834Y-90.25
X114.117Y-148.612
X115.362Y-129.457
X116.865Y-110.098
X117.1Y-71.239
X122.895Y-91.664
X124.166Y-130.694
X125.924Y-72.526
X126.926Y-111.512
X131.699Y-92.901
X134.227Y-132.108
X134.667Y-151.414
X135.729Y-112.749
X135.985Y-73.94
X141.76Y-94.315
X143.03Y-133.345
X144.728Y-152.828
X144.789Y-75.177
X145.79Y-114.163
X153.091Y-134.759
X154.85Y-76.591
X164.855Y-95.591
X169.156Y-133.602
X170.407Y-114.288
X172.626Y-75.411
X174.917Y-94.177
X179.217Y-132.188
X180.468Y-112.874
X182.687Y-73.997
X183.72Y-92.877
X188.021Y-130.951
X188.769Y-150.08
X189.24Y-111.414
X191.49Y-72.759
X193.781Y-91.463
X198.082Y-129.537
X198.831Y-148.666
X199.301Y-110.0
X201.551Y-71.345
X202.585Y-90.226
X206.885Y-128.3
X208.105Y-108.763
X210.355Y-70.108
X212.646Y-88.812
X216.947Y-126.886
X218.166Y-107.349
X220.416Y-68.694
X221.439Y-87.5
X225.75Y-125.648
X226.969Y-106.112
X229.219Y-67.457
X229.529Y-144.441
X231.5Y-86.086
X235.811Y-124.234
X237.031Y-104.698
X239.281Y-66.043
X239.59Y-143.027
X242.145Y-85.23
X245.92Y-123.25
X247.964Y-104.28
X249.758Y-66.696
X252.305Y-85.23
X254.98Y-142.875
X256.08Y-123.25
X258.124Y-104.28
X259.918Y-66.696
X261.188Y-85.65
X264.998Y-123.825
X265.14Y-142.875
X267.04Y-104.775
X268.808Y-66.675
X271.348Y-85.65
X275.158Y-123.825
X277.2Y-104.775
X278.968Y-66.675
X280.238Y-85.725
X290.398Y-85.725
X291.273Y-123.825
X297.383Y-66.675
X298.03Y-104.775
X301.433Y-123.825
X301.825Y-146.685
X304.273Y-85.79
X307.543Y-66.675
X308.19Y-104.775
X311.985Y-146.685
X314.433Y-85.79
X320.675Y-127.635
X320.675Y-146.685
X330.835Y-127.635
X330.835Y-146.685
X339.725Y-146.685
X342.981Y-85.725
X342.981Y-104.775
X342.981Y-124.0
X349.885Y-146.685
X353.141Y-85.725
X353.141Y-104.775
X353.141Y-124.0
T3
X26.49Y-43.015
X26.49Y-48.465
T4
X29.0Y-140.335
X30.356Y-64.135
X31.98Y-83.185
X33.02Y-102.235
X35.35Y-137.795
X36.195Y-121.285
X36.706Y-61.595
X38.33Y-80.645
X39.37Y-99.695
X42.545Y-118.745
X49.406Y-64.135
X55.756Y-61.595
X55.88Y-83.185
X59.23Y-102.235
X62.23Y-80.645
X65.58Y-99.695
X67.14Y-121.285
X68.456Y-62.96
X73.49Y-118.745
X74.806Y-60.42
X76.723Y-82.61
X80.238Y-102.454
X82.029Y-141.538
X83.365Y-80.978
X86.88Y-100.823
X88.047Y-123.053
X88.671Y-139.906
X89.785Y-64.835
X94.689Y-121.422
X95.581Y-85.26
X96.427Y-63.203
X99.611Y-105.108
X102.222Y-83.629
X105.667Y-144.86
X106.253Y-103.476
X106.912Y-125.704
X108.65Y-67.486
X112.308Y-143.228
X113.554Y-124.073
X114.445Y-87.911
X115.292Y-65.855
X118.476Y-107.759
X121.087Y-86.28
X125.117Y-106.128
X125.777Y-128.356
X127.535Y-70.187
X132.418Y-126.724
X133.31Y-90.563
X134.177Y-68.556
X136.278Y-149.076
X137.34Y-110.41
X139.951Y-88.931
X142.919Y-147.444
X143.982Y-108.779
X144.641Y-131.007
X146.4Y-72.839
X151.283Y-129.375
X153.042Y-71.207
X165.76Y-92.899
X170.06Y-130.91
X171.311Y-111.596
X171.694Y-89.5
X173.53Y-72.719
X175.995Y-127.511
X177.246Y-108.197
X179.464Y-69.32
X184.624Y-90.185
X188.925Y-128.259
X189.674Y-147.388
X190.144Y-108.722
X190.559Y-86.786
X192.394Y-70.067
X194.86Y-124.86
X195.608Y-143.989
X196.079Y-105.323
X198.329Y-66.668
X203.489Y-87.533
X207.79Y-125.608
X209.009Y-106.071
X209.424Y-84.134
X211.259Y-67.416
X213.724Y-122.209
X214.944Y-102.672
X217.194Y-64.017
X222.343Y-84.808
X226.654Y-122.956
X227.874Y-103.419
X228.278Y-81.409
X230.124Y-64.765
X230.433Y-141.749
X232.589Y-119.557
X233.808Y-100.02
X236.058Y-61.366
X236.368Y-138.35
X243.415Y-82.69
X247.19Y-120.71
X249.234Y-101.74
X249.765Y-80.15
X251.028Y-64.156
X253.54Y-118.17
X255.584Y-99.2
X256.25Y-140.335
X257.378Y-61.616
X262.458Y-83.11
X262.6Y-137.795
X266.268Y-121.285
X268.31Y-102.235
X268.808Y-80.57
X270.078Y-64.135
X272.618Y-118.745
X274.66Y-99.695
X276.428Y-61.595
X281.508Y-83.185
X287.858Y-80.645
X292.543Y-121.285
X298.653Y-64.135
X298.893Y-118.745
X299.3Y-102.235
X303.095Y-144.145
X305.003Y-61.595
X305.543Y-83.25
X305.65Y-99.695
X309.445Y-141.605
X311.893Y-80.71
X321.945Y-125.095
X321.945Y-144.145
X328.295Y-122.555
X328.295Y-141.605
X340.995Y-144.145
X344.251Y-83.185
X344.251Y-102.235
X344.251Y-121.46
X347.345Y-141.605
X350.601Y-80.645
X350.601Y-99.695
X350.601Y-118.92
T5
X28.105Y-130.81
X51.905Y-130.81
X127.028Y-157.48
X150.596Y-160.793
X182.988Y-157.946
X206.556Y-154.634
X290.563Y-73.66
X291.21Y-111.76
X314.363Y-73.66
X315.01Y-111.76
T6
X28.105Y-115.57
X32.81Y-142.875
X34.166Y-66.675
X35.79Y-85.725
X36.83Y-104.775
X40.005Y-123.825
X51.905Y-115.57
X53.216Y-66.675
X59.69Y-85.725
X63.04Y-104.775
X70.95Y-123.825
X72.266Y-65.5
X80.142Y-85.655
X83.658Y-105.5
X85.448Y-144.583
X91.467Y-126.099
X93.205Y-67.88
X99.0Y-88.306
X103.031Y-108.153
X109.086Y-147.905
X110.331Y-128.75
X112.069Y-70.532
X117.865Y-90.957
X121.895Y-110.805
X129.149Y-142.389
X129.196Y-131.401
X130.955Y-73.233
X136.729Y-93.608
X139.697Y-152.121
X140.76Y-113.456
X148.061Y-134.052
X149.819Y-75.884
X152.717Y-145.701
X169.886Y-94.884
X174.187Y-132.895
X175.437Y-113.581
X177.656Y-74.704
X180.867Y-142.854
X188.751Y-92.17
X193.051Y-130.244
X193.8Y-149.373
X194.271Y-110.707
X196.521Y-72.052
X204.435Y-139.542
X207.615Y-89.519
X211.916Y-127.593
X213.135Y-108.056
X215.385Y-69.401
X226.469Y-86.793
X230.781Y-124.941
X232.0Y-105.405
X234.25Y-66.75
X234.559Y-143.734
X247.225Y-85.23
X251.0Y-123.25
X253.044Y-104.28
X254.838Y-66.696
X260.06Y-142.875
X266.268Y-85.65
X270.078Y-123.825
X272.12Y-104.775
X273.888Y-66.675
X285.318Y-85.725
X290.563Y-58.42
X291.21Y-96.52
X296.353Y-123.825
X302.463Y-66.675
X303.11Y-104.775
X306.905Y-146.685
X309.353Y-85.79
X314.363Y-58.42
X315.01Y-96.52
X325.755Y-127.635
X325.755Y-146.685
X344.805Y-146.685
X348.061Y-85.725
X348.061Y-104.775
X348.061Y-124.0
M30
