M48
; DRILL file {KiCad 9.0.2} date 2025-06-19T20:24:51-0700
; FORMAT={-:-/ absolute / metric / decimal}
; #@! TF.CreationDate,2025-06-19T20:24:51-07:00
; #@! TF.GenerationSoftware,Kicad,Pcbnew,9.0.2
; #@! TF.FileFunction,Plated,1,2,PTH
FMAT,2
METRIC
; #@! TA.AperFunction,Plated,PTH,ViaDrill
T1C0.100
; #@! TA.AperFunction,Plated,PTH,ViaDrill
T2C0.300
; #@! TA.AperFunction,Plated,PTH,ComponentDrill
T3C0.800
; #@! TA.AperFunction,Plated,PTH,ComponentDrill
T4C1.000
; #@! TA.AperFunction,Plated,PTH,ComponentDrill
T5C1.020
; #@! TA.AperFunction,Plated,PTH,ComponentDrill
T6C2.000
%
G90
G05
T1
X47.5Y-53.38
X50.0Y-53.38
X58.0Y-50.88
X60.25Y-53.38
X62.75Y-53.38
X65.25Y-53.38
X68.0Y-53.38
X73.0Y-53.63
X76.0Y-54.13
X87.0Y-81.5
X90.5Y-101.25
X92.384Y-140.428
X98.5Y-122.0
X100.141Y-63.725
X100.141Y-63.725
X105.936Y-84.151
X110.0Y-104.0
X116.0Y-143.75
X117.25Y-124.5
X119.005Y-66.376
X124.75Y-86.75
X128.75Y-106.75
X136.25Y-127.25
X146.5Y-148.0
X156.75Y-71.724
X181.0Y-107.75
X183.25Y-68.75
X194.25Y-86.25
X198.5Y-124.25
X199.25Y-143.5
X202.043Y-66.147
X213.137Y-83.613
X217.25Y-121.75
X218.75Y-102.25
X220.907Y-63.495
X232.0Y-81.0
X236.302Y-119.035
X237.522Y-99.499
X239.772Y-60.844
X240.081Y-137.828
X253.5Y-80.0
X261.128Y-61.616
X266.25Y-137.5
X332.116Y-122.56
X332.116Y-122.56
X351.0Y-141.5
X354.458Y-99.75
X354.458Y-118.75
T2
X39.25Y-137.75
X40.5Y-61.5
X42.0Y-80.75
X43.25Y-99.75
X46.25Y-118.75
X59.75Y-61.5
X66.0Y-80.5
X69.25Y-99.75
X77.25Y-118.75
X78.75Y-60.5
X138.05Y-69.01
X143.665Y-89.096
X147.56Y-108.992
X154.963Y-129.837
X175.439Y-88.919
X179.683Y-126.899
X199.561Y-104.717
X257.472Y-118.0
X259.41Y-99.325
X272.75Y-80.5
X276.5Y-118.75
X278.5Y-99.75
X280.25Y-61.5
X291.5Y-80.5
X302.75Y-118.75
X308.75Y-61.75
X309.25Y-99.75
X313.116Y-141.56
X315.75Y-80.5
X332.116Y-141.56
X354.351Y-80.645
T3
X41.735Y-137.315
X41.735Y-144.935
X43.235Y-61.227
X43.235Y-68.847
X44.596Y-80.481
X44.596Y-88.101
X45.755Y-99.215
X45.755Y-106.835
X48.811Y-118.361
X48.811Y-125.981
X62.235Y-61.171
X62.235Y-68.791
X68.54Y-80.481
X68.54Y-88.101
X72.03Y-99.39
X72.03Y-107.01
X79.739Y-118.361
X79.739Y-125.981
X81.235Y-59.996
X81.235Y-67.616
X88.551Y-89.236
X89.611Y-81.691
X92.331Y-109.323
X93.391Y-101.777
X94.01Y-147.927
X95.07Y-140.381
X99.788Y-129.446
X100.849Y-121.9
X101.734Y-71.273
X102.795Y-63.727
X107.359Y-91.88
X108.419Y-84.334
X111.483Y-111.457
X112.544Y-103.911
X117.729Y-151.074
X118.72Y-132.106
X118.79Y-143.528
X119.78Y-124.56
X120.5Y-73.91
X121.56Y-66.364
X126.174Y-94.524
X127.234Y-86.979
X130.465Y-114.064
X131.525Y-106.518
X137.535Y-134.751
X138.595Y-127.205
X139.385Y-76.612
X140.446Y-69.066
X145.105Y-97.185
X146.166Y-89.639
X148.265Y-155.365
X149.302Y-116.712
X149.326Y-147.82
X150.363Y-109.166
X156.35Y-137.395
X157.41Y-129.849
X158.318Y-80.902
X159.379Y-73.356
X177.875Y-88.343
X178.936Y-95.889
X182.343Y-126.084
X183.404Y-133.63
X183.474Y-106.529
X184.535Y-114.075
X185.738Y-67.973
X186.799Y-75.519
X196.655Y-85.288
X197.715Y-92.834
X201.141Y-123.318
X201.837Y-142.755
X202.202Y-130.864
X202.289Y-103.885
X202.898Y-150.301
X203.35Y-111.43
X204.567Y-65.493
X205.628Y-73.038
X215.505Y-82.896
X216.566Y-90.442
X219.971Y-120.778
X221.031Y-128.324
X221.411Y-101.268
X222.472Y-108.814
X223.327Y-62.452
X224.387Y-69.998
X234.556Y-80.143
X235.617Y-87.689
X238.764Y-117.917
X239.825Y-125.463
X240.309Y-98.166
X241.37Y-105.711
X242.5Y-60.25
X242.6Y-136.954
X243.56Y-67.796
X243.66Y-144.5
X256.163Y-80.024
X256.163Y-87.644
X259.825Y-117.447
X259.825Y-125.067
X262.107Y-99.682
X262.107Y-107.302
X263.569Y-60.63
X263.569Y-68.25
X269.25Y-137.44
X269.25Y-145.06
X275.353Y-80.13
X275.353Y-87.75
X279.03Y-118.205
X279.03Y-125.825
X281.11Y-99.205
X281.11Y-106.825
X282.853Y-61.299
X282.853Y-68.919
X294.353Y-80.263
X294.353Y-87.882
X305.374Y-118.197
X305.374Y-125.817
X311.213Y-61.299
X311.213Y-68.919
X311.988Y-99.19
X311.988Y-106.81
X315.616Y-140.895
X315.616Y-148.515
X318.373Y-80.328
X318.373Y-87.947
X334.618Y-141.209
X334.618Y-148.829
X334.75Y-122.94
X334.75Y-130.56
X353.75Y-141.19
X353.75Y-148.81
X356.874Y-82.664
X356.874Y-90.284
X356.874Y-101.464
X356.874Y-109.084
X356.874Y-119.19
X356.874Y-126.81
T4
X340.481Y-61.55
X340.481Y-64.05
X340.481Y-66.55
X354.981Y-61.55
X354.981Y-66.55
T5
X26.36Y-36.85
X26.36Y-54.63
X28.9Y-36.85
X28.9Y-54.63
X31.44Y-36.85
X31.44Y-54.63
X33.98Y-36.85
X33.98Y-54.63
X36.52Y-36.85
X36.52Y-54.63
X39.06Y-36.85
X39.06Y-54.63
X41.6Y-36.85
X41.6Y-54.63
X44.14Y-36.85
X44.14Y-54.63
X46.68Y-36.85
X46.68Y-54.63
X49.22Y-36.85
X49.22Y-54.63
X51.76Y-36.85
X51.76Y-54.63
X54.3Y-36.85
X54.3Y-54.63
X56.84Y-36.85
X56.84Y-54.63
X59.38Y-36.85
X59.38Y-54.63
X61.92Y-36.85
X61.92Y-54.63
X64.46Y-36.85
X64.46Y-54.63
X67.0Y-36.85
X67.0Y-54.63
X69.54Y-36.85
X69.54Y-54.63
X72.08Y-36.85
X72.08Y-54.63
X74.39Y-43.2
X74.39Y-45.74
X74.39Y-48.28
X74.62Y-36.85
X74.62Y-54.63
T6
G00X347.731Y-58.45
M15
G01X348.231Y-58.45
M16
G05
G00X347.731Y-69.65
M15
G01X348.231Y-69.65
M16
G05
M30
