%TF.GenerationSoftware,KiCad,Pcbnew,9.0.2*%
%TF.CreationDate,2025-06-19T20:24:16-07:00*%
%TF.ProjectId,toro-pcb,746f726f-2d70-4636-922e-6b696361645f,rev?*%
%TF.SameCoordinates,Original*%
%TF.FileFunction,Legend,Top*%
%TF.FilePolarity,Positive*%
%FSLAX46Y46*%
G04 Gerber Fmt 4.6, Leading zero omitted, Abs format (unit mm)*
G04 Created by KiCad (PCBNEW 9.0.2) date 2025-06-19 20:24:16*
%MOMM*%
%LPD*%
G01*
G04 APERTURE LIST*
%ADD10C,0.100000*%
%ADD11C,0.150000*%
%ADD12C,0.300000*%
%ADD13C,0.000000*%
%ADD14C,0.120000*%
G04 APERTURE END LIST*
D10*
X162256265Y-40916704D02*
X163018169Y-40916704D01*
X162541979Y-40250038D02*
X162541979Y-41964323D01*
X162541979Y-41964323D02*
X162637217Y-42154800D01*
X162637217Y-42154800D02*
X162827693Y-42250038D01*
X162827693Y-42250038D02*
X163018169Y-42250038D01*
X163970550Y-42250038D02*
X163780074Y-42154800D01*
X163780074Y-42154800D02*
X163684836Y-42059561D01*
X163684836Y-42059561D02*
X163589598Y-41869085D01*
X163589598Y-41869085D02*
X163589598Y-41297657D01*
X163589598Y-41297657D02*
X163684836Y-41107180D01*
X163684836Y-41107180D02*
X163780074Y-41011942D01*
X163780074Y-41011942D02*
X163970550Y-40916704D01*
X163970550Y-40916704D02*
X164256265Y-40916704D01*
X164256265Y-40916704D02*
X164446741Y-41011942D01*
X164446741Y-41011942D02*
X164541979Y-41107180D01*
X164541979Y-41107180D02*
X164637217Y-41297657D01*
X164637217Y-41297657D02*
X164637217Y-41869085D01*
X164637217Y-41869085D02*
X164541979Y-42059561D01*
X164541979Y-42059561D02*
X164446741Y-42154800D01*
X164446741Y-42154800D02*
X164256265Y-42250038D01*
X164256265Y-42250038D02*
X163970550Y-42250038D01*
X165494360Y-42250038D02*
X165494360Y-40916704D01*
X165494360Y-41297657D02*
X165589598Y-41107180D01*
X165589598Y-41107180D02*
X165684836Y-41011942D01*
X165684836Y-41011942D02*
X165875312Y-40916704D01*
X165875312Y-40916704D02*
X166065789Y-40916704D01*
X167018169Y-42250038D02*
X166827693Y-42154800D01*
X166827693Y-42154800D02*
X166732455Y-42059561D01*
X166732455Y-42059561D02*
X166637217Y-41869085D01*
X166637217Y-41869085D02*
X166637217Y-41297657D01*
X166637217Y-41297657D02*
X166732455Y-41107180D01*
X166732455Y-41107180D02*
X166827693Y-41011942D01*
X166827693Y-41011942D02*
X167018169Y-40916704D01*
X167018169Y-40916704D02*
X167303884Y-40916704D01*
X167303884Y-40916704D02*
X167494360Y-41011942D01*
X167494360Y-41011942D02*
X167589598Y-41107180D01*
X167589598Y-41107180D02*
X167684836Y-41297657D01*
X167684836Y-41297657D02*
X167684836Y-41869085D01*
X167684836Y-41869085D02*
X167589598Y-42059561D01*
X167589598Y-42059561D02*
X167494360Y-42154800D01*
X167494360Y-42154800D02*
X167303884Y-42250038D01*
X167303884Y-42250038D02*
X167018169Y-42250038D01*
X168541979Y-41488133D02*
X170065789Y-41488133D01*
X171018169Y-42250038D02*
X171018169Y-40250038D01*
X171018169Y-41011942D02*
X171208645Y-40916704D01*
X171208645Y-40916704D02*
X171589598Y-40916704D01*
X171589598Y-40916704D02*
X171780074Y-41011942D01*
X171780074Y-41011942D02*
X171875312Y-41107180D01*
X171875312Y-41107180D02*
X171970550Y-41297657D01*
X171970550Y-41297657D02*
X171970550Y-41869085D01*
X171970550Y-41869085D02*
X171875312Y-42059561D01*
X171875312Y-42059561D02*
X171780074Y-42154800D01*
X171780074Y-42154800D02*
X171589598Y-42250038D01*
X171589598Y-42250038D02*
X171208645Y-42250038D01*
X171208645Y-42250038D02*
X171018169Y-42154800D01*
X173113407Y-42250038D02*
X172922931Y-42154800D01*
X172922931Y-42154800D02*
X172827693Y-42059561D01*
X172827693Y-42059561D02*
X172732455Y-41869085D01*
X172732455Y-41869085D02*
X172732455Y-41297657D01*
X172732455Y-41297657D02*
X172827693Y-41107180D01*
X172827693Y-41107180D02*
X172922931Y-41011942D01*
X172922931Y-41011942D02*
X173113407Y-40916704D01*
X173113407Y-40916704D02*
X173399122Y-40916704D01*
X173399122Y-40916704D02*
X173589598Y-41011942D01*
X173589598Y-41011942D02*
X173684836Y-41107180D01*
X173684836Y-41107180D02*
X173780074Y-41297657D01*
X173780074Y-41297657D02*
X173780074Y-41869085D01*
X173780074Y-41869085D02*
X173684836Y-42059561D01*
X173684836Y-42059561D02*
X173589598Y-42154800D01*
X173589598Y-42154800D02*
X173399122Y-42250038D01*
X173399122Y-42250038D02*
X173113407Y-42250038D01*
X175494360Y-42250038D02*
X175494360Y-41202419D01*
X175494360Y-41202419D02*
X175399122Y-41011942D01*
X175399122Y-41011942D02*
X175208646Y-40916704D01*
X175208646Y-40916704D02*
X174827693Y-40916704D01*
X174827693Y-40916704D02*
X174637217Y-41011942D01*
X175494360Y-42154800D02*
X175303884Y-42250038D01*
X175303884Y-42250038D02*
X174827693Y-42250038D01*
X174827693Y-42250038D02*
X174637217Y-42154800D01*
X174637217Y-42154800D02*
X174541979Y-41964323D01*
X174541979Y-41964323D02*
X174541979Y-41773847D01*
X174541979Y-41773847D02*
X174637217Y-41583371D01*
X174637217Y-41583371D02*
X174827693Y-41488133D01*
X174827693Y-41488133D02*
X175303884Y-41488133D01*
X175303884Y-41488133D02*
X175494360Y-41392895D01*
X176446741Y-42250038D02*
X176446741Y-40916704D01*
X176446741Y-41297657D02*
X176541979Y-41107180D01*
X176541979Y-41107180D02*
X176637217Y-41011942D01*
X176637217Y-41011942D02*
X176827693Y-40916704D01*
X176827693Y-40916704D02*
X177018170Y-40916704D01*
X178541979Y-42250038D02*
X178541979Y-40250038D01*
X178541979Y-42154800D02*
X178351503Y-42250038D01*
X178351503Y-42250038D02*
X177970550Y-42250038D01*
X177970550Y-42250038D02*
X177780074Y-42154800D01*
X177780074Y-42154800D02*
X177684836Y-42059561D01*
X177684836Y-42059561D02*
X177589598Y-41869085D01*
X177589598Y-41869085D02*
X177589598Y-41297657D01*
X177589598Y-41297657D02*
X177684836Y-41107180D01*
X177684836Y-41107180D02*
X177780074Y-41011942D01*
X177780074Y-41011942D02*
X177970550Y-40916704D01*
X177970550Y-40916704D02*
X178351503Y-40916704D01*
X178351503Y-40916704D02*
X178541979Y-41011942D01*
X180827694Y-40916704D02*
X181303884Y-42250038D01*
X181303884Y-42250038D02*
X181780075Y-40916704D01*
X182541980Y-42059561D02*
X182637218Y-42154800D01*
X182637218Y-42154800D02*
X182541980Y-42250038D01*
X182541980Y-42250038D02*
X182446742Y-42154800D01*
X182446742Y-42154800D02*
X182541980Y-42059561D01*
X182541980Y-42059561D02*
X182541980Y-42250038D01*
X184541980Y-42250038D02*
X183399123Y-42250038D01*
X183970551Y-42250038D02*
X183970551Y-40250038D01*
X183970551Y-40250038D02*
X183780075Y-40535752D01*
X183780075Y-40535752D02*
X183589599Y-40726228D01*
X183589599Y-40726228D02*
X183399123Y-40821466D01*
X185399123Y-42059561D02*
X185494361Y-42154800D01*
X185494361Y-42154800D02*
X185399123Y-42250038D01*
X185399123Y-42250038D02*
X185303885Y-42154800D01*
X185303885Y-42154800D02*
X185399123Y-42059561D01*
X185399123Y-42059561D02*
X185399123Y-42250038D01*
X185399123Y-41488133D02*
X185303885Y-40345276D01*
X185303885Y-40345276D02*
X185399123Y-40250038D01*
X185399123Y-40250038D02*
X185494361Y-40345276D01*
X185494361Y-40345276D02*
X185399123Y-41488133D01*
X185399123Y-41488133D02*
X185399123Y-40250038D01*
X186351504Y-42059561D02*
X186446742Y-42154800D01*
X186446742Y-42154800D02*
X186351504Y-42250038D01*
X186351504Y-42250038D02*
X186256266Y-42154800D01*
X186256266Y-42154800D02*
X186351504Y-42059561D01*
X186351504Y-42059561D02*
X186351504Y-42250038D01*
X186351504Y-41488133D02*
X186256266Y-40345276D01*
X186256266Y-40345276D02*
X186351504Y-40250038D01*
X186351504Y-40250038D02*
X186446742Y-40345276D01*
X186446742Y-40345276D02*
X186351504Y-41488133D01*
X186351504Y-41488133D02*
X186351504Y-40250038D01*
D11*
X341947962Y-57257200D02*
X342090819Y-57304819D01*
X342090819Y-57304819D02*
X342328914Y-57304819D01*
X342328914Y-57304819D02*
X342424152Y-57257200D01*
X342424152Y-57257200D02*
X342471771Y-57209580D01*
X342471771Y-57209580D02*
X342519390Y-57114342D01*
X342519390Y-57114342D02*
X342519390Y-57019104D01*
X342519390Y-57019104D02*
X342471771Y-56923866D01*
X342471771Y-56923866D02*
X342424152Y-56876247D01*
X342424152Y-56876247D02*
X342328914Y-56828628D01*
X342328914Y-56828628D02*
X342138438Y-56781009D01*
X342138438Y-56781009D02*
X342043200Y-56733390D01*
X342043200Y-56733390D02*
X341995581Y-56685771D01*
X341995581Y-56685771D02*
X341947962Y-56590533D01*
X341947962Y-56590533D02*
X341947962Y-56495295D01*
X341947962Y-56495295D02*
X341995581Y-56400057D01*
X341995581Y-56400057D02*
X342043200Y-56352438D01*
X342043200Y-56352438D02*
X342138438Y-56304819D01*
X342138438Y-56304819D02*
X342376533Y-56304819D01*
X342376533Y-56304819D02*
X342519390Y-56352438D01*
X342852724Y-56304819D02*
X343090819Y-57304819D01*
X343090819Y-57304819D02*
X343281295Y-56590533D01*
X343281295Y-56590533D02*
X343471771Y-57304819D01*
X343471771Y-57304819D02*
X343709867Y-56304819D01*
X344043200Y-56400057D02*
X344090819Y-56352438D01*
X344090819Y-56352438D02*
X344186057Y-56304819D01*
X344186057Y-56304819D02*
X344424152Y-56304819D01*
X344424152Y-56304819D02*
X344519390Y-56352438D01*
X344519390Y-56352438D02*
X344567009Y-56400057D01*
X344567009Y-56400057D02*
X344614628Y-56495295D01*
X344614628Y-56495295D02*
X344614628Y-56590533D01*
X344614628Y-56590533D02*
X344567009Y-56733390D01*
X344567009Y-56733390D02*
X343995581Y-57304819D01*
X343995581Y-57304819D02*
X344614628Y-57304819D01*
D12*
X111178572Y-44249757D02*
X111035715Y-44178328D01*
X111035715Y-44178328D02*
X110821429Y-44178328D01*
X110821429Y-44178328D02*
X110607143Y-44249757D01*
X110607143Y-44249757D02*
X110464286Y-44392614D01*
X110464286Y-44392614D02*
X110392857Y-44535471D01*
X110392857Y-44535471D02*
X110321429Y-44821185D01*
X110321429Y-44821185D02*
X110321429Y-45035471D01*
X110321429Y-45035471D02*
X110392857Y-45321185D01*
X110392857Y-45321185D02*
X110464286Y-45464042D01*
X110464286Y-45464042D02*
X110607143Y-45606900D01*
X110607143Y-45606900D02*
X110821429Y-45678328D01*
X110821429Y-45678328D02*
X110964286Y-45678328D01*
X110964286Y-45678328D02*
X111178572Y-45606900D01*
X111178572Y-45606900D02*
X111250000Y-45535471D01*
X111250000Y-45535471D02*
X111250000Y-45035471D01*
X111250000Y-45035471D02*
X110964286Y-45035471D01*
X112107143Y-44178328D02*
X112107143Y-44535471D01*
X111750000Y-44392614D02*
X112107143Y-44535471D01*
X112107143Y-44535471D02*
X112464286Y-44392614D01*
X111892857Y-44821185D02*
X112107143Y-44535471D01*
X112107143Y-44535471D02*
X112321429Y-44821185D01*
X113250000Y-44178328D02*
X113250000Y-44535471D01*
X112892857Y-44392614D02*
X113250000Y-44535471D01*
X113250000Y-44535471D02*
X113607143Y-44392614D01*
X113035714Y-44821185D02*
X113250000Y-44535471D01*
X113250000Y-44535471D02*
X113464286Y-44821185D01*
X114392857Y-44178328D02*
X114392857Y-44535471D01*
X114035714Y-44392614D02*
X114392857Y-44535471D01*
X114392857Y-44535471D02*
X114750000Y-44392614D01*
X114178571Y-44821185D02*
X114392857Y-44535471D01*
X114392857Y-44535471D02*
X114607143Y-44821185D01*
D11*
%TO.C,SW37*%
X295462811Y-60675000D02*
X295462811Y-59675000D01*
X295462811Y-73675000D02*
X295462811Y-72675000D01*
X295462811Y-73675000D02*
X296462811Y-73675000D01*
X296462811Y-59675000D02*
X295462811Y-59675000D01*
X308462811Y-73675000D02*
X309462811Y-73675000D01*
X309462811Y-59675000D02*
X308462811Y-59675000D01*
X309462811Y-59675000D02*
X309462811Y-60675000D01*
X309462811Y-72675000D02*
X309462811Y-73675000D01*
%TO.C,SW18*%
X95124474Y-114111155D02*
X95263650Y-113120887D01*
X95124474Y-114111155D02*
X96114742Y-114250327D01*
X96933725Y-101237670D02*
X97072897Y-100247402D01*
X98063165Y-100386578D02*
X97072897Y-100247402D01*
X107997959Y-115920402D02*
X108988227Y-116059578D01*
X109127399Y-115069310D02*
X108988227Y-116059578D01*
X110936650Y-102195825D02*
X109946382Y-102056653D01*
X110936650Y-102195825D02*
X110797474Y-103186093D01*
%TO.C,SW57*%
X226792526Y-138766976D02*
X226653350Y-137776708D01*
X227643618Y-137637535D02*
X226653350Y-137776708D01*
X228601773Y-151640461D02*
X228462600Y-150650193D01*
X228601773Y-151640461D02*
X229592041Y-151501285D01*
X240517103Y-135828285D02*
X239526835Y-135967461D01*
X240517103Y-135828285D02*
X240656276Y-136818553D01*
X241475258Y-149831211D02*
X242465526Y-149692038D01*
X242326350Y-148701770D02*
X242465526Y-149692038D01*
X224233088Y-100437108D02*
X224093912Y-99446840D01*
X225084180Y-99307667D02*
X224093912Y-99446840D01*
X226042335Y-113310593D02*
X225903162Y-112320325D01*
X226042335Y-113310593D02*
X227032603Y-113171417D01*
X237957665Y-97498417D02*
X236967397Y-97637593D01*
X237957665Y-97498417D02*
X238096838Y-98488685D01*
X238915820Y-111501343D02*
X239906088Y-111362170D01*
X239766912Y-110371902D02*
X239906088Y-111362170D01*
%TO.C,SW48*%
X259267811Y-79650000D02*
X259267811Y-78650000D01*
X259267811Y-92650000D02*
X259267811Y-91650000D01*
X259267811Y-92650000D02*
X260267811Y-92650000D01*
X260267811Y-78650000D02*
X259267811Y-78650000D01*
X272267811Y-92650000D02*
X273267811Y-92650000D01*
X273267811Y-78650000D02*
X272267811Y-78650000D01*
X273267811Y-78650000D02*
X273267811Y-79650000D01*
X273267811Y-91650000D02*
X273267811Y-92650000D01*
%TO.C,SW17*%
X75751828Y-111457665D02*
X75891001Y-110467397D01*
X75751828Y-111457665D02*
X76742096Y-111596838D01*
X77561078Y-98584180D02*
X77700251Y-97593912D01*
X78690519Y-97733085D02*
X77700251Y-97593912D01*
X88625313Y-113266915D02*
X89615581Y-113406088D01*
X89754754Y-112415820D02*
X89615581Y-113406088D01*
X91564004Y-99542335D02*
X90573736Y-99403162D01*
X91564004Y-99542335D02*
X91424831Y-100532603D01*
%TO.C,SW42*%
X199848356Y-84551121D02*
X199709180Y-83560853D01*
X200699448Y-83421680D02*
X199709180Y-83560853D01*
X201657603Y-97424606D02*
X201518430Y-96434338D01*
X201657603Y-97424606D02*
X202647871Y-97285430D01*
X213572933Y-81612430D02*
X212582665Y-81751606D01*
X213572933Y-81612430D02*
X213712106Y-82602698D01*
X214531088Y-95615356D02*
X215521356Y-95476183D01*
X215382180Y-94485915D02*
X215521356Y-95476183D01*
%TO.C,SW4*%
X65266250Y-59500000D02*
X65266250Y-58500000D01*
X65266250Y-72500000D02*
X65266250Y-71500000D01*
X65266250Y-72500000D02*
X66266250Y-72500000D01*
X66266250Y-58500000D02*
X65266250Y-58500000D01*
X78266250Y-72500000D02*
X79266250Y-72500000D01*
X79266250Y-58500000D02*
X78266250Y-58500000D01*
X79266250Y-58500000D02*
X79266250Y-59500000D01*
X79266250Y-71500000D02*
X79266250Y-72500000D01*
%TO.C,SW28*%
X169889268Y-69736346D02*
X169750092Y-68746078D01*
X170740360Y-68606905D02*
X169750092Y-68746078D01*
X171698515Y-82609831D02*
X171559342Y-81619563D01*
X171698515Y-82609831D02*
X172688783Y-82470655D01*
X183613845Y-66797655D02*
X182623577Y-66936831D01*
X183613845Y-66797655D02*
X183753018Y-67787923D01*
X184572000Y-80800581D02*
X185562268Y-80661408D01*
X185423092Y-79671140D02*
X185562268Y-80661408D01*
%TO.C,SW7*%
X123048733Y-79190490D02*
X123187909Y-78200222D01*
X123048733Y-79190490D02*
X124039001Y-79329662D01*
X124857984Y-66317005D02*
X124997156Y-65326737D01*
X125987424Y-65465913D02*
X124997156Y-65326737D01*
X135922218Y-80999737D02*
X136912486Y-81138913D01*
X137051658Y-80148645D02*
X136912486Y-81138913D01*
X138860909Y-67275160D02*
X137870641Y-67135988D01*
X138860909Y-67275160D02*
X138721733Y-68265428D01*
%TO.C,SW55*%
X244000000Y-117250000D02*
X244000000Y-116250000D01*
X244000000Y-130250000D02*
X244000000Y-129250000D01*
X244000000Y-130250000D02*
X245000000Y-130250000D01*
X245000000Y-116250000D02*
X244000000Y-116250000D01*
X257000000Y-130250000D02*
X258000000Y-130250000D01*
X258000000Y-116250000D02*
X257000000Y-116250000D01*
X258000000Y-116250000D02*
X258000000Y-117250000D01*
X258000000Y-129250000D02*
X258000000Y-130250000D01*
%TO.C,SW43*%
X186503874Y-105739603D02*
X186364698Y-104749335D01*
X187354966Y-104610162D02*
X186364698Y-104749335D01*
X188313121Y-118613088D02*
X188173948Y-117622820D01*
X188313121Y-118613088D02*
X189303389Y-118473912D01*
X200228451Y-102800912D02*
X199238183Y-102940088D01*
X200228451Y-102800912D02*
X200367624Y-103791180D01*
X201186606Y-116803838D02*
X202176874Y-116664665D01*
X202037698Y-115674397D02*
X202176874Y-116664665D01*
%TO.C,SW54*%
X223013650Y-119973976D02*
X222874474Y-118983708D01*
X223864742Y-118844535D02*
X222874474Y-118983708D01*
X224822897Y-132847461D02*
X224683724Y-131857193D01*
X224822897Y-132847461D02*
X225813165Y-132708285D01*
X236738227Y-117035285D02*
X235747959Y-117174461D01*
X236738227Y-117035285D02*
X236877400Y-118025553D01*
X237696382Y-131038211D02*
X238686650Y-130899038D01*
X238547474Y-129908770D02*
X238686650Y-130899038D01*
%TO.C,SW65*%
X341061295Y-118000000D02*
X341061295Y-117000000D01*
X341061295Y-131000000D02*
X341061295Y-130000000D01*
X341061295Y-131000000D02*
X342061295Y-131000000D01*
X342061295Y-117000000D02*
X341061295Y-117000000D01*
X354061295Y-131000000D02*
X355061295Y-131000000D01*
X355061295Y-117000000D02*
X354061295Y-117000000D01*
X355061295Y-117000000D02*
X355061295Y-118000000D01*
X355061295Y-130000000D02*
X355061295Y-131000000D01*
%TO.C,SW62*%
X318755000Y-121635000D02*
X318755000Y-120635000D01*
X318755000Y-134635000D02*
X318755000Y-133635000D01*
X318755000Y-134635000D02*
X319755000Y-134635000D01*
X319755000Y-120635000D02*
X318755000Y-120635000D01*
X331755000Y-134635000D02*
X332755000Y-134635000D01*
X332755000Y-120635000D02*
X331755000Y-120635000D01*
X332755000Y-120635000D02*
X332755000Y-121635000D01*
X332755000Y-133635000D02*
X332755000Y-134635000D01*
%TO.C,SW8*%
X141913339Y-81841738D02*
X142052515Y-80851470D01*
X141913339Y-81841738D02*
X142903607Y-81980910D01*
X143722590Y-68968253D02*
X143861762Y-67977985D01*
X144852030Y-68117161D02*
X143861762Y-67977985D01*
X154786824Y-83650985D02*
X155777092Y-83790161D01*
X155916264Y-82799893D02*
X155777092Y-83790161D01*
X157725515Y-69926408D02*
X156735247Y-69787236D01*
X157725515Y-69926408D02*
X157586339Y-70916676D01*
%TO.C,SW3*%
X46216250Y-60675000D02*
X46216250Y-59675000D01*
X46216250Y-73675000D02*
X46216250Y-72675000D01*
X46216250Y-73675000D02*
X47216250Y-73675000D01*
X47216250Y-59675000D02*
X46216250Y-59675000D01*
X59216250Y-73675000D02*
X60216250Y-73675000D01*
X60216250Y-59675000D02*
X59216250Y-59675000D01*
X60216250Y-59675000D02*
X60216250Y-60675000D01*
X60216250Y-72675000D02*
X60216250Y-73675000D01*
%TO.C,SW21*%
X33005000Y-117825000D02*
X33005000Y-116825000D01*
X33005000Y-130825000D02*
X33005000Y-129825000D01*
X33005000Y-130825000D02*
X34005000Y-130825000D01*
X34005000Y-116825000D02*
X33005000Y-116825000D01*
X46005000Y-130825000D02*
X47005000Y-130825000D01*
X47005000Y-116825000D02*
X46005000Y-116825000D01*
X47005000Y-116825000D02*
X47005000Y-117825000D01*
X47005000Y-129825000D02*
X47005000Y-130825000D01*
%TO.C,SW61*%
X337805000Y-140685000D02*
X337805000Y-139685000D01*
X337805000Y-153685000D02*
X337805000Y-152685000D01*
X337805000Y-153685000D02*
X338805000Y-153685000D01*
X338805000Y-139685000D02*
X337805000Y-139685000D01*
X350805000Y-153685000D02*
X351805000Y-153685000D01*
X351805000Y-139685000D02*
X350805000Y-139685000D01*
X351805000Y-139685000D02*
X351805000Y-140685000D01*
X351805000Y-152685000D02*
X351805000Y-153685000D01*
%TO.C,SW6*%
X104163339Y-76489227D02*
X104302515Y-75498959D01*
X104163339Y-76489227D02*
X105153607Y-76628399D01*
X105972590Y-63615742D02*
X106111762Y-62625474D01*
X107102030Y-62764650D02*
X106111762Y-62625474D01*
X117036824Y-78298474D02*
X118027092Y-78437650D01*
X118166264Y-77447382D02*
X118027092Y-78437650D01*
X119975515Y-64573897D02*
X118985247Y-64434725D01*
X119975515Y-64573897D02*
X119836339Y-65564165D01*
%TO.C,SW67*%
X278317811Y-79725000D02*
X278317811Y-78725000D01*
X278317811Y-92725000D02*
X278317811Y-91725000D01*
X278317811Y-92725000D02*
X279317811Y-92725000D01*
X279317811Y-78725000D02*
X278317811Y-78725000D01*
X291317811Y-92725000D02*
X292317811Y-92725000D01*
X292317811Y-78725000D02*
X291317811Y-78725000D01*
X292317811Y-78725000D02*
X292317811Y-79725000D01*
X292317811Y-91725000D02*
X292317811Y-92725000D01*
%TO.C,SW51*%
X166419830Y-127927719D02*
X166280654Y-126937451D01*
X167270922Y-126798278D02*
X166280654Y-126937451D01*
X168229077Y-140801204D02*
X168089904Y-139810936D01*
X168229077Y-140801204D02*
X169219345Y-140662028D01*
X180144407Y-124989028D02*
X179154139Y-125128204D01*
X180144407Y-124989028D02*
X180283580Y-125979296D01*
X181102562Y-138991954D02*
X182092830Y-138852781D01*
X181953654Y-137862513D02*
X182092830Y-138852781D01*
%TO.C,SW16*%
X56040000Y-98775000D02*
X56040000Y-97775000D01*
X56040000Y-111775000D02*
X56040000Y-110775000D01*
X56040000Y-111775000D02*
X57040000Y-111775000D01*
X57040000Y-97775000D02*
X56040000Y-97775000D01*
X69040000Y-111775000D02*
X70040000Y-111775000D01*
X70040000Y-97775000D02*
X69040000Y-97775000D01*
X70040000Y-97775000D02*
X70040000Y-98775000D01*
X70040000Y-110775000D02*
X70040000Y-111775000D01*
%TO.C,SW30*%
X77542215Y-150540766D02*
X77681391Y-149550498D01*
X77542215Y-150540766D02*
X78532483Y-150679938D01*
X79351466Y-137667281D02*
X79490638Y-136677013D01*
X80480906Y-136816189D02*
X79490638Y-136677013D01*
X90415700Y-152350013D02*
X91405968Y-152489189D01*
X91545140Y-151498921D02*
X91405968Y-152489189D01*
X93354391Y-138625436D02*
X92364123Y-138486264D01*
X93354391Y-138625436D02*
X93215215Y-139615704D01*
%TO.C,SW73*%
X289352811Y-117825000D02*
X289352811Y-116825000D01*
X289352811Y-130825000D02*
X289352811Y-129825000D01*
X289352811Y-130825000D02*
X290352811Y-130825000D01*
X290352811Y-116825000D02*
X289352811Y-116825000D01*
X302352811Y-130825000D02*
X303352811Y-130825000D01*
X303352811Y-116825000D02*
X302352811Y-116825000D01*
X303352811Y-116825000D02*
X303352811Y-117825000D01*
X303352811Y-129825000D02*
X303352811Y-130825000D01*
%TO.C,SW64*%
X341061295Y-98775000D02*
X341061295Y-97775000D01*
X341061295Y-111775000D02*
X341061295Y-110775000D01*
X341061295Y-111775000D02*
X342061295Y-111775000D01*
X342061295Y-97775000D02*
X341061295Y-97775000D01*
X354061295Y-111775000D02*
X355061295Y-111775000D01*
X355061295Y-97775000D02*
X354061295Y-97775000D01*
X355061295Y-97775000D02*
X355061295Y-98775000D01*
X355061295Y-110775000D02*
X355061295Y-111775000D01*
%TO.C,SW45*%
X205368481Y-103088356D02*
X205229305Y-102098088D01*
X206219573Y-101958915D02*
X205229305Y-102098088D01*
X207177728Y-115961841D02*
X207038555Y-114971573D01*
X207177728Y-115961841D02*
X208167996Y-115822665D01*
X219093058Y-100149665D02*
X218102790Y-100288841D01*
X219093058Y-100149665D02*
X219232231Y-101139933D01*
X220051213Y-114152591D02*
X221041481Y-114013418D01*
X220902305Y-113023150D02*
X221041481Y-114013418D01*
%TO.C,SW34*%
X226483088Y-61782603D02*
X226343912Y-60792335D01*
X227334180Y-60653162D02*
X226343912Y-60792335D01*
X228292335Y-74656088D02*
X228153162Y-73665820D01*
X228292335Y-74656088D02*
X229282603Y-74516912D01*
X240207665Y-58843912D02*
X239217397Y-58983088D01*
X240207665Y-58843912D02*
X240346838Y-59834180D01*
X241165820Y-72846838D02*
X242156088Y-72707665D01*
X242016912Y-71717397D02*
X242156088Y-72707665D01*
%TO.C,SW72*%
X296110311Y-98775000D02*
X296110311Y-97775000D01*
X296110311Y-111775000D02*
X296110311Y-110775000D01*
X296110311Y-111775000D02*
X297110311Y-111775000D01*
X297110311Y-97775000D02*
X296110311Y-97775000D01*
X309110311Y-111775000D02*
X310110311Y-111775000D01*
X310110311Y-97775000D02*
X309110311Y-97775000D01*
X310110311Y-97775000D02*
X310110311Y-98775000D01*
X310110311Y-110775000D02*
X310110311Y-111775000D01*
%TO.C,SW52*%
X185284436Y-125276472D02*
X185145260Y-124286204D01*
X186135528Y-124147031D02*
X185145260Y-124286204D01*
X187093683Y-138149957D02*
X186954510Y-137159689D01*
X187093683Y-138149957D02*
X188083951Y-138010781D01*
X199009013Y-122337781D02*
X198018745Y-122476957D01*
X199009013Y-122337781D02*
X199148186Y-123328049D01*
X199967168Y-136340707D02*
X200957436Y-136201534D01*
X200818260Y-135211266D02*
X200957436Y-136201534D01*
%TO.C,SW58*%
X253060000Y-136875000D02*
X253060000Y-135875000D01*
X253060000Y-149875000D02*
X253060000Y-148875000D01*
X253060000Y-149875000D02*
X254060000Y-149875000D01*
X254060000Y-135875000D02*
X253060000Y-135875000D01*
X266060000Y-149875000D02*
X267060000Y-149875000D01*
X267060000Y-135875000D02*
X266060000Y-135875000D01*
X267060000Y-135875000D02*
X267060000Y-136875000D01*
X267060000Y-148875000D02*
X267060000Y-149875000D01*
%TO.C,SW71*%
X302352811Y-79790000D02*
X302352811Y-78790000D01*
X302352811Y-92790000D02*
X302352811Y-91790000D01*
X302352811Y-92790000D02*
X303352811Y-92790000D01*
X303352811Y-78790000D02*
X302352811Y-78790000D01*
X315352811Y-92790000D02*
X316352811Y-92790000D01*
X316352811Y-78790000D02*
X315352811Y-78790000D01*
X316352811Y-78790000D02*
X316352811Y-79790000D01*
X316352811Y-91790000D02*
X316352811Y-92790000D01*
%TO.C,SW13*%
X109958517Y-96914665D02*
X110097693Y-95924397D01*
X109958517Y-96914665D02*
X110948785Y-97053837D01*
X111767768Y-84041180D02*
X111906940Y-83050912D01*
X112897208Y-83190088D02*
X111906940Y-83050912D01*
X122832002Y-98723912D02*
X123822270Y-98863088D01*
X123961442Y-97872820D02*
X123822270Y-98863088D01*
X125770693Y-84999335D02*
X124780425Y-84860163D01*
X125770693Y-84999335D02*
X125631517Y-85989603D01*
%TO.C,SW14*%
X29830000Y-98775000D02*
X29830000Y-97775000D01*
X29830000Y-111775000D02*
X29830000Y-110775000D01*
X29830000Y-111775000D02*
X30830000Y-111775000D01*
X30830000Y-97775000D02*
X29830000Y-97775000D01*
X42830000Y-111775000D02*
X43830000Y-111775000D01*
X43830000Y-97775000D02*
X42830000Y-97775000D01*
X43830000Y-97775000D02*
X43830000Y-98775000D01*
X43830000Y-110775000D02*
X43830000Y-111775000D01*
%TO.C,SW33*%
X207618482Y-64433850D02*
X207479306Y-63443582D01*
X208469574Y-63304409D02*
X207479306Y-63443582D01*
X209427729Y-77307335D02*
X209288556Y-76317067D01*
X209427729Y-77307335D02*
X210417997Y-77168159D01*
X221343059Y-61495159D02*
X220352791Y-61634335D01*
X221343059Y-61495159D02*
X221482232Y-62485427D01*
X222301214Y-75498085D02*
X223291482Y-75358912D01*
X223152306Y-74368644D02*
X223291482Y-75358912D01*
%TO.C,SW26*%
X140154604Y-140010160D02*
X140293780Y-139019892D01*
X140154604Y-140010160D02*
X141144872Y-140149332D01*
X141963855Y-127136675D02*
X142103027Y-126146407D01*
X143093295Y-126285583D02*
X142103027Y-126146407D01*
X153028089Y-141819407D02*
X154018357Y-141958583D01*
X154157529Y-140968315D02*
X154018357Y-141958583D01*
X155966780Y-128094830D02*
X154976512Y-127955658D01*
X155966780Y-128094830D02*
X155827604Y-129085098D01*
%TO.C,SW29*%
X188753875Y-67085098D02*
X188614699Y-66094830D01*
X189604967Y-65955657D02*
X188614699Y-66094830D01*
X190563122Y-79958583D02*
X190423949Y-78968315D01*
X190563122Y-79958583D02*
X191553390Y-79819407D01*
X202478452Y-64146407D02*
X201488184Y-64285583D01*
X202478452Y-64146407D02*
X202617625Y-65136675D01*
X203436607Y-78149333D02*
X204426875Y-78010160D01*
X204287699Y-77019892D02*
X204426875Y-78010160D01*
%TO.C,SW32*%
X131791027Y-158079103D02*
X131930203Y-157088835D01*
X131791027Y-158079103D02*
X132781295Y-158218275D01*
X133600278Y-145205618D02*
X133739450Y-144215350D01*
X134729718Y-144354526D02*
X133739450Y-144215350D01*
X144664512Y-159888350D02*
X145654780Y-160027526D01*
X145793952Y-159037258D02*
X145654780Y-160027526D01*
X147603203Y-146163773D02*
X146612935Y-146024601D01*
X147603203Y-146163773D02*
X147464027Y-147154041D01*
%TO.C,SW9*%
X28790000Y-79725000D02*
X28790000Y-78725000D01*
X28790000Y-92725000D02*
X28790000Y-91725000D01*
X28790000Y-92725000D02*
X29790000Y-92725000D01*
X29790000Y-78725000D02*
X28790000Y-78725000D01*
X41790000Y-92725000D02*
X42790000Y-92725000D01*
X42790000Y-78725000D02*
X41790000Y-78725000D01*
X42790000Y-78725000D02*
X42790000Y-79725000D01*
X42790000Y-91725000D02*
X42790000Y-92725000D01*
%TO.C,SW22*%
X63950000Y-117825000D02*
X63950000Y-116825000D01*
X63950000Y-130825000D02*
X63950000Y-129825000D01*
X63950000Y-130825000D02*
X64950000Y-130825000D01*
X64950000Y-116825000D02*
X63950000Y-116825000D01*
X76950000Y-130825000D02*
X77950000Y-130825000D01*
X77950000Y-116825000D02*
X76950000Y-116825000D01*
X77950000Y-116825000D02*
X77950000Y-117825000D01*
X77950000Y-129825000D02*
X77950000Y-130825000D01*
%TO.C,SW14*%
X128823124Y-99565913D02*
X128962300Y-98575645D01*
X128823124Y-99565913D02*
X129813392Y-99705085D01*
X130632375Y-86692428D02*
X130771547Y-85702160D01*
X131761815Y-85841336D02*
X130771547Y-85702160D01*
X141696609Y-101375160D02*
X142686877Y-101514336D01*
X142826049Y-100524068D02*
X142686877Y-101514336D01*
X144635300Y-87650583D02*
X143645032Y-87511411D01*
X144635300Y-87650583D02*
X144496124Y-88640851D01*
D13*
%TO.C,G\u002A\u002A\u002A*%
G36*
X136980666Y-51493980D02*
G01*
X136938333Y-51536454D01*
X136896000Y-51493980D01*
X136938333Y-51451505D01*
X136980666Y-51493980D01*
G37*
G36*
X136980666Y-51663879D02*
G01*
X136938333Y-51706354D01*
X136896000Y-51663879D01*
X136938333Y-51621404D01*
X136980666Y-51663879D01*
G37*
G36*
X136980666Y-53447826D02*
G01*
X136938333Y-53490301D01*
X136896000Y-53447826D01*
X136938333Y-53405351D01*
X136980666Y-53447826D01*
G37*
G36*
X137065333Y-51239130D02*
G01*
X137023000Y-51281605D01*
X136980666Y-51239130D01*
X137023000Y-51196655D01*
X137065333Y-51239130D01*
G37*
G36*
X137065333Y-51918729D02*
G01*
X137023000Y-51961204D01*
X136980666Y-51918729D01*
X137023000Y-51876254D01*
X137065333Y-51918729D01*
G37*
G36*
X137573333Y-52173578D02*
G01*
X137531000Y-52216053D01*
X137488666Y-52173578D01*
X137531000Y-52131103D01*
X137573333Y-52173578D01*
G37*
G36*
X137658000Y-49794983D02*
G01*
X137615666Y-49837458D01*
X137573333Y-49794983D01*
X137615666Y-49752508D01*
X137658000Y-49794983D01*
G37*
G36*
X142399333Y-56590969D02*
G01*
X142357000Y-56633444D01*
X142314666Y-56590969D01*
X142357000Y-56548495D01*
X142399333Y-56590969D01*
G37*
G36*
X142399333Y-56845819D02*
G01*
X142357000Y-56888294D01*
X142314666Y-56845819D01*
X142357000Y-56803344D01*
X142399333Y-56845819D01*
G37*
G36*
X144346666Y-56336120D02*
G01*
X144304333Y-56378595D01*
X144262000Y-56336120D01*
X144304333Y-56293645D01*
X144346666Y-56336120D01*
G37*
G36*
X144346666Y-56590969D02*
G01*
X144304333Y-56633444D01*
X144262000Y-56590969D01*
X144304333Y-56548495D01*
X144346666Y-56590969D01*
G37*
G36*
X148410666Y-48180936D02*
G01*
X148368333Y-48223411D01*
X148326000Y-48180936D01*
X148368333Y-48138461D01*
X148410666Y-48180936D01*
G37*
G36*
X149088000Y-49625083D02*
G01*
X149045666Y-49667558D01*
X149003333Y-49625083D01*
X149045666Y-49582608D01*
X149088000Y-49625083D01*
G37*
G36*
X149934666Y-50814381D02*
G01*
X149892333Y-50856856D01*
X149850000Y-50814381D01*
X149892333Y-50771906D01*
X149934666Y-50814381D01*
G37*
G36*
X136698444Y-51904570D02*
G01*
X136708577Y-52005386D01*
X136698444Y-52017837D01*
X136648110Y-52006176D01*
X136642000Y-51961204D01*
X136672978Y-51891280D01*
X136698444Y-51904570D01*
G37*
G36*
X136782739Y-53978762D02*
G01*
X136793922Y-54152684D01*
X136782739Y-54191137D01*
X136751837Y-54201808D01*
X136740035Y-54084949D01*
X136753340Y-53964352D01*
X136782739Y-53978762D01*
G37*
G36*
X136867406Y-52959364D02*
G01*
X136878589Y-53133286D01*
X136867406Y-53171739D01*
X136836503Y-53182410D01*
X136824701Y-53065551D01*
X136838007Y-52944954D01*
X136867406Y-52959364D01*
G37*
G36*
X136952444Y-50800223D02*
G01*
X136940822Y-50850725D01*
X136896000Y-50856856D01*
X136826309Y-50825774D01*
X136839555Y-50800223D01*
X136940035Y-50790056D01*
X136952444Y-50800223D01*
G37*
G36*
X137037111Y-52754069D02*
G01*
X137047244Y-52854884D01*
X137037111Y-52867335D01*
X136986776Y-52855674D01*
X136980666Y-52810702D01*
X137011644Y-52740779D01*
X137037111Y-52754069D01*
G37*
G36*
X137121777Y-50715273D02*
G01*
X137131910Y-50816088D01*
X137121777Y-50828539D01*
X137071443Y-50816878D01*
X137065333Y-50771906D01*
X137096311Y-50701983D01*
X137121777Y-50715273D01*
G37*
G36*
X137375777Y-51989520D02*
G01*
X137364155Y-52040023D01*
X137319333Y-52046153D01*
X137249643Y-52015072D01*
X137262888Y-51989520D01*
X137363368Y-51979353D01*
X137375777Y-51989520D01*
G37*
G36*
X141947406Y-61539297D02*
G01*
X141958589Y-61713219D01*
X141947406Y-61751672D01*
X141916503Y-61762344D01*
X141904701Y-61645485D01*
X141918007Y-61524887D01*
X141947406Y-61539297D01*
G37*
G36*
X144079584Y-56412958D02*
G01*
X144170478Y-56498493D01*
X144151832Y-56547668D01*
X144139996Y-56548495D01*
X144068384Y-56488156D01*
X144042248Y-56450419D01*
X144032269Y-56392289D01*
X144079584Y-56412958D01*
G37*
G36*
X137043028Y-50484072D02*
G01*
X136980666Y-50602006D01*
X136914912Y-50681614D01*
X136897583Y-50605100D01*
X136897296Y-50585782D01*
X136940439Y-50432183D01*
X136980666Y-50389632D01*
X137055458Y-50382777D01*
X137043028Y-50484072D01*
G37*
G36*
X137030188Y-50963177D02*
G01*
X137028889Y-51021447D01*
X136994777Y-51026755D01*
X136910446Y-51096768D01*
X136894703Y-51175418D01*
X136848049Y-51379031D01*
X136811333Y-51451505D01*
X136748158Y-51522265D01*
X136728595Y-51439141D01*
X136727963Y-51404029D01*
X136764440Y-51226760D01*
X136852362Y-51060996D01*
X136955785Y-50959170D01*
X137030188Y-50963177D01*
G37*
G36*
X134602455Y-49132393D02*
G01*
X134761818Y-49286671D01*
X134963576Y-49499486D01*
X135175045Y-49734580D01*
X135363539Y-49955696D01*
X135496375Y-50126575D01*
X135541333Y-50207916D01*
X135506700Y-50261348D01*
X135395483Y-50207259D01*
X135196708Y-50037875D01*
X134924849Y-49771282D01*
X134632640Y-49454513D01*
X134472180Y-49231096D01*
X134445064Y-49103765D01*
X134518173Y-49072909D01*
X134602455Y-49132393D01*
G37*
G36*
X152970802Y-50218973D02*
G01*
X152982666Y-50243906D01*
X152905991Y-50286834D01*
X152707870Y-50323816D01*
X152436163Y-50352069D01*
X152138728Y-50368810D01*
X151863424Y-50371255D01*
X151658110Y-50356622D01*
X151572321Y-50325919D01*
X151618413Y-50283167D01*
X151782492Y-50261948D01*
X151813503Y-50261469D01*
X152067095Y-50250506D01*
X152388711Y-50223583D01*
X152538166Y-50207161D01*
X152830616Y-50188145D01*
X152970802Y-50218973D01*
G37*
G36*
X133532762Y-50399058D02*
G01*
X133736869Y-50465321D01*
X134008894Y-50570587D01*
X134306855Y-50696798D01*
X134588769Y-50825896D01*
X134812653Y-50939823D01*
X134936525Y-51020522D01*
X134948666Y-51039388D01*
X134915816Y-51094517D01*
X134802555Y-51091478D01*
X134586815Y-51024993D01*
X134246528Y-50889781D01*
X134145744Y-50847311D01*
X133764425Y-50676775D01*
X133529909Y-50549065D01*
X133427831Y-50454888D01*
X133438555Y-50389854D01*
X133532762Y-50399058D01*
G37*
G36*
X134284075Y-52050308D02*
G01*
X134527380Y-52068273D01*
X134673049Y-52101726D01*
X134694666Y-52124862D01*
X134617769Y-52160624D01*
X134418150Y-52192701D01*
X134142415Y-52218578D01*
X133837170Y-52235741D01*
X133549024Y-52241676D01*
X133324582Y-52233869D01*
X133210451Y-52209807D01*
X133206025Y-52205159D01*
X133255116Y-52154394D01*
X133418475Y-52102756D01*
X133436624Y-52098971D01*
X133691869Y-52064693D01*
X133989962Y-52048793D01*
X134284075Y-52050308D01*
G37*
G36*
X151522469Y-47302867D02*
G01*
X151525498Y-47361144D01*
X151459058Y-47488644D01*
X151311295Y-47710215D01*
X151155416Y-47931377D01*
X150919064Y-48251186D01*
X150744193Y-48462017D01*
X150640014Y-48554676D01*
X150615734Y-48519969D01*
X150637934Y-48448031D01*
X150724471Y-48277958D01*
X150869275Y-48044764D01*
X151043579Y-47788917D01*
X151218619Y-47550885D01*
X151365631Y-47371133D01*
X151455849Y-47290130D01*
X151461821Y-47288963D01*
X151522469Y-47302867D01*
G37*
G36*
X152728545Y-48634516D02*
G01*
X152728666Y-48639850D01*
X152658533Y-48721875D01*
X152495833Y-48807228D01*
X152251676Y-48907792D01*
X151984298Y-49025063D01*
X151977119Y-49028332D01*
X151798563Y-49104715D01*
X151746517Y-49105911D01*
X151795815Y-49032271D01*
X151796986Y-49030853D01*
X151930236Y-48922291D01*
X151998200Y-48901121D01*
X152127396Y-48851209D01*
X152304486Y-48733774D01*
X152305333Y-48733110D01*
X152512309Y-48603518D01*
X152665599Y-48567961D01*
X152728545Y-48634516D01*
G37*
G36*
X145611449Y-44377389D02*
G01*
X145700620Y-44484282D01*
X145787581Y-44620828D01*
X145952870Y-44858681D01*
X146172409Y-45163839D01*
X146411121Y-45487567D01*
X146837330Y-46062185D01*
X147227028Y-46594070D01*
X147568374Y-47066599D01*
X147849527Y-47463150D01*
X148058647Y-47767097D01*
X148183891Y-47961819D01*
X148213157Y-48017422D01*
X148226975Y-48106163D01*
X148156960Y-48120360D01*
X147979387Y-48057111D01*
X147775666Y-47963913D01*
X147537219Y-47863811D01*
X147346669Y-47806188D01*
X147304736Y-47800890D01*
X147151128Y-47764153D01*
X146920654Y-47674347D01*
X146822713Y-47629111D01*
X146588583Y-47521712D01*
X146281538Y-47392459D01*
X145878788Y-47232245D01*
X145357544Y-47031966D01*
X144834598Y-46834783D01*
X144571322Y-46722829D01*
X144379852Y-46616626D01*
X144310163Y-46551501D01*
X144331305Y-46434139D01*
X144421361Y-46205352D01*
X144562507Y-45899047D01*
X144736921Y-45549131D01*
X144926781Y-45189514D01*
X145114264Y-44854101D01*
X145281546Y-44576802D01*
X145410807Y-44391524D01*
X145476864Y-44331831D01*
X145611449Y-44377389D01*
G37*
G36*
X138951656Y-45305889D02*
G01*
X139133920Y-45454404D01*
X139375740Y-45667729D01*
X139647342Y-45917885D01*
X139918953Y-46176892D01*
X140160801Y-46416768D01*
X140343113Y-46609534D01*
X140436116Y-46727209D01*
X140440572Y-46736789D01*
X140528724Y-46860139D01*
X140590210Y-46917133D01*
X140665652Y-47018410D01*
X140641158Y-47141135D01*
X140503368Y-47305201D01*
X140238925Y-47530500D01*
X140112328Y-47628762D01*
X139870209Y-47821510D01*
X139691564Y-47978292D01*
X139610446Y-48068946D01*
X139608804Y-48074749D01*
X139537892Y-48134148D01*
X139499462Y-48138461D01*
X139382150Y-48192100D01*
X139192634Y-48330148D01*
X139044982Y-48457023D01*
X138763814Y-48698150D01*
X138439751Y-48954067D01*
X138283019Y-49069533D01*
X138040972Y-49251005D01*
X137847520Y-49412706D01*
X137766526Y-49494282D01*
X137683133Y-49567962D01*
X137660692Y-49548158D01*
X137617407Y-49545253D01*
X137516623Y-49638966D01*
X137395009Y-49784709D01*
X137289235Y-49937893D01*
X137235969Y-50053931D01*
X137234770Y-50066056D01*
X137172938Y-50201715D01*
X137150000Y-50219732D01*
X137072009Y-50212346D01*
X137065333Y-50181118D01*
X137101985Y-50033813D01*
X137142670Y-49942492D01*
X137204962Y-49798475D01*
X137305084Y-49540205D01*
X137425322Y-49213931D01*
X137475730Y-49072909D01*
X137786037Y-48196084D01*
X138043810Y-47466103D01*
X138253567Y-46869845D01*
X138419826Y-46394191D01*
X138547107Y-46026018D01*
X138639928Y-45752206D01*
X138702807Y-45559634D01*
X138740264Y-45435181D01*
X138756817Y-45365725D01*
X138758666Y-45347562D01*
X138824635Y-45256021D01*
X138858719Y-45250167D01*
X138951656Y-45305889D01*
G37*
G36*
X148081974Y-48503464D02*
G01*
X148305295Y-48558365D01*
X148392615Y-48656897D01*
X148372622Y-48738862D01*
X148254268Y-48794319D01*
X148006186Y-48835691D01*
X147915697Y-48845764D01*
X147573766Y-48902484D01*
X147193368Y-48997674D01*
X146824996Y-49115110D01*
X146519144Y-49238568D01*
X146326305Y-49351825D01*
X146318242Y-49359047D01*
X146316004Y-49403057D01*
X146428013Y-49435976D01*
X146670979Y-49460118D01*
X147061611Y-49477795D01*
X147207242Y-49482107D01*
X147823641Y-49511426D01*
X148290905Y-49564333D01*
X148628129Y-49645044D01*
X148854409Y-49757775D01*
X148966019Y-49870427D01*
X149038636Y-50044248D01*
X148973717Y-50136504D01*
X148788198Y-50135231D01*
X148649914Y-50093719D01*
X148458240Y-50051147D01*
X148140342Y-50011185D01*
X147739321Y-49978147D01*
X147298277Y-49956347D01*
X147267666Y-49955373D01*
X146825698Y-49943138D01*
X146534292Y-49939775D01*
X146374819Y-49947213D01*
X146328649Y-49967381D01*
X146377153Y-50002209D01*
X146463333Y-50038668D01*
X146828187Y-50195538D01*
X147236580Y-50391840D01*
X147658172Y-50610498D01*
X148062621Y-50834433D01*
X148419588Y-51046568D01*
X148698732Y-51229827D01*
X148869713Y-51367131D01*
X148905074Y-51413022D01*
X149034512Y-51572460D01*
X149254197Y-51739444D01*
X149359780Y-51799453D01*
X149633923Y-51953527D01*
X149882339Y-52116250D01*
X149945191Y-52163950D01*
X150181155Y-52348406D01*
X150389603Y-52503973D01*
X150615832Y-52760710D01*
X150724013Y-53085862D01*
X150710891Y-53427553D01*
X150573217Y-53733904D01*
X150473549Y-53843066D01*
X150168334Y-54022806D01*
X149738986Y-54150268D01*
X149223315Y-54222826D01*
X148659130Y-54237855D01*
X148084239Y-54192731D01*
X147536450Y-54084830D01*
X147429813Y-54054378D01*
X146910215Y-53858929D01*
X146536014Y-53620787D01*
X146284399Y-53316803D01*
X146132558Y-52923831D01*
X146087790Y-52692611D01*
X146065158Y-52442659D01*
X146076202Y-52268155D01*
X146096533Y-52225387D01*
X146191683Y-52114341D01*
X146258488Y-52007504D01*
X146379556Y-51852943D01*
X146575186Y-51661666D01*
X146657760Y-51591488D01*
X146914461Y-51421412D01*
X147184463Y-51346219D01*
X147391249Y-51332813D01*
X147633734Y-51323046D01*
X147788155Y-51307619D01*
X147817478Y-51297315D01*
X147746314Y-51252633D01*
X147555988Y-51156459D01*
X147282005Y-51026455D01*
X147161833Y-50971168D01*
X146807537Y-50809396D01*
X146466439Y-50653445D01*
X146202920Y-50532755D01*
X146167000Y-50516269D01*
X145896574Y-50397866D01*
X145556730Y-50256699D01*
X145321491Y-50162813D01*
X145037089Y-50032168D01*
X144846404Y-49905244D01*
X144787860Y-49825298D01*
X144844485Y-49718035D01*
X145020644Y-49559435D01*
X145282913Y-49371055D01*
X145597870Y-49174454D01*
X145932092Y-48991188D01*
X146252158Y-48842816D01*
X146394100Y-48789246D01*
X146880179Y-48645641D01*
X147341877Y-48548926D01*
X147751655Y-48500926D01*
X148081974Y-48503464D01*
G37*
G36*
X154304368Y-55467705D02*
G01*
X154261734Y-55537392D01*
X154098901Y-55688789D01*
X153835259Y-55907437D01*
X153490203Y-56178873D01*
X153083125Y-56488637D01*
X152633418Y-56822267D01*
X152160475Y-57165302D01*
X151683689Y-57503281D01*
X151222452Y-57821744D01*
X150796158Y-58106228D01*
X150577184Y-58247040D01*
X150253383Y-58444053D01*
X149819052Y-58697303D01*
X149313735Y-58984323D01*
X148776970Y-59282647D01*
X148262500Y-59562196D01*
X146717333Y-60390955D01*
X146717333Y-62117554D01*
X146713722Y-62642086D01*
X146703643Y-63107183D01*
X146688228Y-63486686D01*
X146668609Y-63754432D01*
X146645918Y-63884262D01*
X146640571Y-63891753D01*
X146615450Y-63827079D01*
X146595575Y-63611805D01*
X146581740Y-63265171D01*
X146574739Y-62806418D01*
X146575003Y-62303957D01*
X146577020Y-61717502D01*
X146572766Y-61275508D01*
X146560483Y-60952595D01*
X146538412Y-60723385D01*
X146504795Y-60562498D01*
X146457873Y-60444555D01*
X146444467Y-60419872D01*
X146355553Y-60244806D01*
X146357698Y-60146425D01*
X146446535Y-60061537D01*
X146640754Y-59968113D01*
X146749673Y-59949190D01*
X146923244Y-59904165D01*
X147149126Y-59796396D01*
X147196322Y-59768327D01*
X147295462Y-59719955D01*
X147422888Y-59719955D01*
X147434511Y-59770458D01*
X147479333Y-59776588D01*
X147549023Y-59745506D01*
X147535777Y-59719955D01*
X147435298Y-59709788D01*
X147422888Y-59719955D01*
X147295462Y-59719955D01*
X147408114Y-59664990D01*
X147575530Y-59630674D01*
X147603012Y-59636130D01*
X147723495Y-59645008D01*
X147749029Y-59623154D01*
X147834692Y-59558265D01*
X148028522Y-59451659D01*
X148219301Y-59358962D01*
X148502291Y-59212574D01*
X148747108Y-59059679D01*
X148849575Y-58979248D01*
X149015195Y-58848773D01*
X149136036Y-58790086D01*
X149316644Y-58736262D01*
X149522149Y-58639294D01*
X149700120Y-58529369D01*
X149798124Y-58436673D01*
X149801308Y-58407069D01*
X149819733Y-58374916D01*
X149934666Y-58374916D01*
X149977000Y-58417391D01*
X150019333Y-58374916D01*
X149977000Y-58332441D01*
X149934666Y-58374916D01*
X149819733Y-58374916D01*
X149839547Y-58340340D01*
X149996354Y-58281991D01*
X150011823Y-58278731D01*
X150227609Y-58205235D01*
X150366468Y-58109829D01*
X150498530Y-58007663D01*
X150558866Y-57991502D01*
X150687350Y-57941595D01*
X150863659Y-57822967D01*
X150866000Y-57821100D01*
X151119764Y-57630429D01*
X151384721Y-57450496D01*
X151617169Y-57309017D01*
X151773408Y-57233704D01*
X151801093Y-57228093D01*
X151879675Y-57163335D01*
X151882000Y-57143143D01*
X151950915Y-57068590D01*
X152013996Y-57058194D01*
X152101076Y-57016224D01*
X152092570Y-56971464D01*
X152125974Y-56886666D01*
X152276252Y-56786823D01*
X152322125Y-56766102D01*
X152564654Y-56633145D01*
X152759988Y-56475674D01*
X152764674Y-56470558D01*
X152903294Y-56340988D01*
X152992029Y-56293645D01*
X153087152Y-56248811D01*
X153278040Y-56132867D01*
X153522803Y-55973648D01*
X153779553Y-55798991D01*
X154006400Y-55636730D01*
X154152403Y-55522565D01*
X154267029Y-55460554D01*
X154304368Y-55467705D01*
G37*
G36*
X139637542Y-49814546D02*
G01*
X140125781Y-49853768D01*
X140563331Y-49919804D01*
X140922339Y-50008169D01*
X141174952Y-50114377D01*
X141293315Y-50233941D01*
X141298666Y-50265812D01*
X141234471Y-50340662D01*
X141060631Y-50490994D01*
X140805268Y-50693500D01*
X140557833Y-50879875D01*
X140193142Y-51164202D01*
X139827922Y-51474831D01*
X139517596Y-51763579D01*
X139393666Y-51891998D01*
X139116102Y-52167182D01*
X138810659Y-52424411D01*
X138568166Y-52592328D01*
X138347378Y-52723744D01*
X138201303Y-52815800D01*
X138166000Y-52842977D01*
X138243557Y-52852166D01*
X138447808Y-52861269D01*
X138736123Y-52868438D01*
X138764508Y-52868921D01*
X139343682Y-52932439D01*
X139814002Y-53110920D01*
X140202437Y-53417864D01*
X140431011Y-53703132D01*
X140629983Y-54077595D01*
X140685514Y-54419978D01*
X140593417Y-54735009D01*
X140349502Y-55027419D01*
X139949579Y-55301936D01*
X139389461Y-55563291D01*
X138664957Y-55816213D01*
X138520568Y-55860075D01*
X137993290Y-55997108D01*
X137591058Y-56050975D01*
X137290455Y-56020220D01*
X137068059Y-55903384D01*
X136940829Y-55761743D01*
X136865472Y-55665067D01*
X136827009Y-55671566D01*
X136813092Y-55805231D01*
X136811333Y-56013355D01*
X136822996Y-56276372D01*
X136878845Y-56462019D01*
X137010165Y-56639902D01*
X137163473Y-56796805D01*
X137448052Y-57035345D01*
X137691936Y-57141787D01*
X137777306Y-57151656D01*
X137974666Y-57161498D01*
X138288887Y-57180906D01*
X138667984Y-57206573D01*
X138885666Y-57222185D01*
X139827400Y-57236681D01*
X140452000Y-57177462D01*
X140910160Y-57116326D01*
X141427530Y-57057490D01*
X141894287Y-57013414D01*
X141906201Y-57012463D01*
X142269758Y-56977710D01*
X142434068Y-56949179D01*
X144863251Y-56949179D01*
X144948088Y-56931355D01*
X144964151Y-56925307D01*
X145067829Y-56858010D01*
X145068573Y-56819750D01*
X144979008Y-56829279D01*
X144916755Y-56877753D01*
X144863251Y-56949179D01*
X142434068Y-56949179D01*
X142488778Y-56939679D01*
X142588028Y-56892041D01*
X142595642Y-56836298D01*
X142597823Y-56734095D01*
X142691002Y-56736016D01*
X142804584Y-56819182D01*
X142968859Y-56915315D01*
X143086357Y-56947733D01*
X143119648Y-56919445D01*
X143020385Y-56810009D01*
X142798645Y-56629848D01*
X142727672Y-56576764D01*
X142413185Y-56342414D01*
X142197872Y-56168912D01*
X142044422Y-56016546D01*
X141915522Y-55845603D01*
X141773860Y-55616370D01*
X141688440Y-55470661D01*
X141515407Y-55122069D01*
X141354845Y-54703371D01*
X141213259Y-54245624D01*
X141097152Y-53779887D01*
X141013029Y-53337217D01*
X140991098Y-53150501D01*
X141735346Y-53150501D01*
X141752532Y-53616227D01*
X141874611Y-54142207D01*
X142085696Y-54669616D01*
X142205627Y-54891973D01*
X142459021Y-55262241D01*
X142776298Y-55638689D01*
X143128543Y-55995371D01*
X143486843Y-56306339D01*
X143822282Y-56545646D01*
X144105945Y-56687346D01*
X144236765Y-56714640D01*
X144338891Y-56651834D01*
X144488420Y-56487135D01*
X144583521Y-56357357D01*
X144787379Y-56034169D01*
X144936838Y-55729571D01*
X145039894Y-55407711D01*
X145104543Y-55032735D01*
X145138782Y-54568791D01*
X145150608Y-53980024D01*
X145151000Y-53813052D01*
X145145669Y-53232074D01*
X145129121Y-52809055D01*
X145100523Y-52532373D01*
X145059042Y-52390408D01*
X145047990Y-52375985D01*
X144912391Y-52334784D01*
X144645141Y-52326044D01*
X144280037Y-52346051D01*
X143850879Y-52391094D01*
X143391465Y-52457459D01*
X142935594Y-52541434D01*
X142517064Y-52639307D01*
X142428490Y-52663720D01*
X142100991Y-52760060D01*
X141902167Y-52835114D01*
X141797543Y-52913092D01*
X141752645Y-53018206D01*
X141735346Y-53150501D01*
X140991098Y-53150501D01*
X140967393Y-52948673D01*
X140966750Y-52645313D01*
X141017604Y-52458194D01*
X141050563Y-52424771D01*
X141256687Y-52335274D01*
X141596856Y-52230352D01*
X142037333Y-52117513D01*
X142544379Y-52004261D01*
X143084257Y-51898104D01*
X143623227Y-51806548D01*
X144127551Y-51737100D01*
X144156488Y-51733741D01*
X144705025Y-51671234D01*
X145108029Y-51638103D01*
X145388706Y-51649534D01*
X145570266Y-51720709D01*
X145675915Y-51866813D01*
X145728862Y-52103031D01*
X145752315Y-52444547D01*
X145764772Y-52786004D01*
X145771904Y-53295861D01*
X145761959Y-53877621D01*
X145737140Y-54434394D01*
X145722627Y-54639739D01*
X145676667Y-55110217D01*
X145619325Y-55465843D01*
X145538155Y-55761663D01*
X145420712Y-56052722D01*
X145386513Y-56126361D01*
X145265081Y-56400828D01*
X145187706Y-56611113D01*
X145169559Y-56715429D01*
X145171554Y-56718394D01*
X145234188Y-56695270D01*
X145254489Y-56654153D01*
X145333683Y-56585218D01*
X145369898Y-56595454D01*
X145432198Y-56562939D01*
X145457154Y-56447321D01*
X145474871Y-56339918D01*
X145503008Y-56385829D01*
X145518786Y-56438772D01*
X145550059Y-56472037D01*
X145622608Y-56483654D01*
X145762212Y-56471653D01*
X145994652Y-56434065D01*
X146345708Y-56368921D01*
X146759666Y-56289828D01*
X147029046Y-56243400D01*
X147406081Y-56184972D01*
X147830411Y-56123700D01*
X148072000Y-56090787D01*
X148492289Y-56023204D01*
X148895393Y-55938049D01*
X149222734Y-55848608D01*
X149355395Y-55799740D01*
X149588990Y-55710117D01*
X149754566Y-55670301D01*
X149799376Y-55676520D01*
X149892179Y-55667070D01*
X149997647Y-55595677D01*
X150160776Y-55486334D01*
X150410179Y-55353711D01*
X150557805Y-55285362D01*
X150810445Y-55156784D01*
X150918777Y-55048945D01*
X150919066Y-54974354D01*
X150936914Y-54836512D01*
X150994427Y-54794719D01*
X151087853Y-54678924D01*
X151123716Y-54479372D01*
X151127432Y-54212374D01*
X151252790Y-54552174D01*
X151326366Y-54913823D01*
X151321104Y-55322362D01*
X151241239Y-55693520D01*
X151189450Y-55812459D01*
X151134954Y-55969514D01*
X151193220Y-56010845D01*
X151353009Y-55936431D01*
X151522199Y-55813104D01*
X151916240Y-55501890D01*
X152305237Y-55202014D01*
X152666082Y-54930491D01*
X152975667Y-54704337D01*
X153210884Y-54540565D01*
X153348625Y-54456190D01*
X153374187Y-54449463D01*
X153340599Y-54523215D01*
X153215801Y-54671005D01*
X153037081Y-54856227D01*
X152841731Y-55042269D01*
X152667037Y-55192523D01*
X152550291Y-55270380D01*
X152534081Y-55274247D01*
X152486775Y-55309843D01*
X152499194Y-55327174D01*
X152476234Y-55410385D01*
X152362674Y-55561599D01*
X152197984Y-55740033D01*
X152021631Y-55904902D01*
X151873085Y-56015421D01*
X151810540Y-56038796D01*
X151725472Y-56108008D01*
X151712666Y-56175309D01*
X151661629Y-56271425D01*
X151581269Y-56261232D01*
X151493652Y-56254633D01*
X151498642Y-56289818D01*
X151457832Y-56375730D01*
X151301114Y-56541746D01*
X151049956Y-56768637D01*
X150725828Y-57037177D01*
X150350200Y-57328136D01*
X150284864Y-57376889D01*
X150084353Y-57542520D01*
X149948548Y-57674080D01*
X149816077Y-57790170D01*
X149743088Y-57822742D01*
X149630034Y-57869988D01*
X149448621Y-57983084D01*
X149260539Y-58119068D01*
X149127477Y-58234978D01*
X149101935Y-58269258D01*
X149020918Y-58299284D01*
X149007417Y-58292499D01*
X148909059Y-58317166D01*
X148789859Y-58419394D01*
X148635951Y-58546253D01*
X148524544Y-58587291D01*
X148420511Y-58633774D01*
X148410666Y-58665491D01*
X148337687Y-58736340D01*
X148161686Y-58798547D01*
X148157171Y-58799554D01*
X147949735Y-58883813D01*
X147824459Y-58997441D01*
X147736809Y-59102784D01*
X147694328Y-59112273D01*
X147583024Y-59122784D01*
X147407109Y-59190994D01*
X147237200Y-59283062D01*
X147143915Y-59365148D01*
X147140666Y-59377590D01*
X147088340Y-59410314D01*
X147061814Y-59397920D01*
X146945645Y-59397028D01*
X146766696Y-59456476D01*
X146583271Y-59547885D01*
X146453672Y-59642876D01*
X146429622Y-59705637D01*
X146449067Y-59831255D01*
X146369817Y-59882416D01*
X146259669Y-59815674D01*
X146259107Y-59814907D01*
X146194220Y-59750296D01*
X146093619Y-59716728D01*
X145921848Y-59712349D01*
X145643449Y-59735303D01*
X145357068Y-59767714D01*
X144631500Y-59855259D01*
X144060372Y-59928171D01*
X143629621Y-59988631D01*
X143325186Y-60038819D01*
X143133003Y-60080915D01*
X143039010Y-60117101D01*
X143026493Y-60129115D01*
X142915886Y-60186181D01*
X142787970Y-60201337D01*
X142432345Y-60251530D01*
X142162641Y-60388961D01*
X142014557Y-60593910D01*
X142003968Y-60634437D01*
X141948377Y-60792121D01*
X141882066Y-60832688D01*
X141881024Y-60832069D01*
X141838832Y-60883215D01*
X141804696Y-61062780D01*
X141788625Y-61279434D01*
X141771815Y-61649628D01*
X141749465Y-62033250D01*
X141737891Y-62197658D01*
X141719637Y-62502571D01*
X141703284Y-62892611D01*
X141692432Y-63280769D01*
X141675172Y-63667209D01*
X141641532Y-63885124D01*
X141591331Y-63935109D01*
X141526675Y-63823801D01*
X141515898Y-63696746D01*
X141520143Y-63439496D01*
X141538063Y-63090959D01*
X141564234Y-62737757D01*
X141596242Y-62273644D01*
X141617068Y-61800642D01*
X141624306Y-61385574D01*
X141620450Y-61175327D01*
X141595000Y-60583612D01*
X140748333Y-60477288D01*
X139614983Y-60323946D01*
X138584316Y-60158862D01*
X140960000Y-60158862D01*
X141002333Y-60201337D01*
X141044666Y-60158862D01*
X141002333Y-60116388D01*
X140960000Y-60158862D01*
X138584316Y-60158862D01*
X138579034Y-60158016D01*
X137591792Y-59969198D01*
X136604561Y-59747195D01*
X135568645Y-59481709D01*
X134435348Y-59162441D01*
X134188987Y-59090126D01*
X133656323Y-58928760D01*
X133281525Y-58805006D01*
X133058063Y-58715747D01*
X132979408Y-58657869D01*
X133039028Y-58628255D01*
X133210539Y-58623300D01*
X133407404Y-58641268D01*
X133506339Y-58677122D01*
X133509084Y-58684555D01*
X133583797Y-58730301D01*
X133768818Y-58775212D01*
X133826833Y-58784360D01*
X134238930Y-58850031D01*
X134652456Y-58928281D01*
X135030099Y-59010654D01*
X135334547Y-59088695D01*
X135528489Y-59153947D01*
X135573480Y-59180214D01*
X135718634Y-59246598D01*
X135880000Y-59266889D01*
X136079834Y-59298197D01*
X136187050Y-59354097D01*
X136315401Y-59411016D01*
X136551205Y-59463185D01*
X136733150Y-59487446D01*
X137092916Y-59536053D01*
X137429010Y-59603004D01*
X137702299Y-59678085D01*
X137873654Y-59751083D01*
X137912000Y-59795134D01*
X137980832Y-59854116D01*
X138039000Y-59861538D01*
X138152248Y-59804394D01*
X138167296Y-59755351D01*
X138195768Y-59700949D01*
X138230796Y-59737207D01*
X138348643Y-59799196D01*
X138564400Y-59844035D01*
X138631666Y-59850692D01*
X138929170Y-59883588D01*
X139273921Y-59935980D01*
X139393666Y-59957727D01*
X139816998Y-60029966D01*
X140170547Y-60073212D01*
X140439514Y-60089371D01*
X140609099Y-60080348D01*
X140664505Y-60048046D01*
X140590933Y-59994370D01*
X140373582Y-59921225D01*
X140138445Y-59861879D01*
X139827232Y-59779738D01*
X139550677Y-59689790D01*
X139422721Y-59636898D01*
X139233279Y-59561033D01*
X138938245Y-59462322D01*
X138596058Y-59360115D01*
X138538173Y-59343997D01*
X138210854Y-59250423D01*
X137937021Y-59165837D01*
X137766233Y-59105704D01*
X137747118Y-59097147D01*
X137409460Y-58951430D01*
X140579896Y-58951430D01*
X140665869Y-59002603D01*
X140852393Y-59035000D01*
X141195338Y-59068433D01*
X141403470Y-59078402D01*
X141510090Y-59061796D01*
X141548500Y-59015503D01*
X141552666Y-58969565D01*
X141510487Y-58892357D01*
X141362690Y-58852828D01*
X141091996Y-58842140D01*
X140808721Y-58858512D01*
X140632768Y-58899171D01*
X140579896Y-58951430D01*
X137409460Y-58951430D01*
X137315926Y-58911065D01*
X136974477Y-58808427D01*
X136766801Y-58730818D01*
X136595920Y-58638353D01*
X146648082Y-58638353D01*
X146709301Y-58741123D01*
X146860092Y-58720783D01*
X147068908Y-58623068D01*
X147378088Y-58455616D01*
X147712939Y-58262950D01*
X148042901Y-58064187D01*
X148337415Y-57878445D01*
X148565921Y-57724840D01*
X148697861Y-57622488D01*
X148716997Y-57592082D01*
X148620144Y-57590785D01*
X148397536Y-57625080D01*
X148087450Y-57688380D01*
X147884685Y-57735287D01*
X147416170Y-57847493D01*
X147086570Y-57929969D01*
X146870996Y-57996059D01*
X146744563Y-58059104D01*
X146682381Y-58132444D01*
X146659565Y-58229422D01*
X146651226Y-58363380D01*
X146648965Y-58397730D01*
X146648082Y-58638353D01*
X136595920Y-58638353D01*
X136514990Y-58594561D01*
X136441550Y-58546969D01*
X136212791Y-58414641D01*
X136015623Y-58339168D01*
X135965903Y-58332441D01*
X135804229Y-58290847D01*
X135750871Y-58244036D01*
X135636313Y-58192558D01*
X135541333Y-58205016D01*
X135391102Y-58211460D01*
X135338431Y-58176771D01*
X135232912Y-58096658D01*
X134995075Y-57965770D01*
X134649682Y-57796783D01*
X134221495Y-57602375D01*
X134186666Y-57587093D01*
X134029662Y-57509737D01*
X134017128Y-57480613D01*
X134132374Y-57495807D01*
X134358710Y-57551402D01*
X134679448Y-57643482D01*
X135077897Y-57768132D01*
X135371999Y-57865217D01*
X135965535Y-58057157D01*
X136408885Y-58182556D01*
X136707188Y-58242542D01*
X136865584Y-58238239D01*
X136896000Y-58199348D01*
X136850114Y-58106700D01*
X136735964Y-57935765D01*
X136696026Y-57880786D01*
X136532990Y-57617177D01*
X136406456Y-57341166D01*
X136399692Y-57321604D01*
X136357256Y-57105618D01*
X136327723Y-56769589D01*
X136310222Y-56339288D01*
X136303880Y-55840483D01*
X136305840Y-55571572D01*
X136472666Y-55571572D01*
X136515000Y-55614046D01*
X136557333Y-55571572D01*
X136515000Y-55529097D01*
X136472666Y-55571572D01*
X136305840Y-55571572D01*
X136307828Y-55298942D01*
X136321192Y-54740435D01*
X136323766Y-54675864D01*
X136484735Y-54675864D01*
X136512372Y-54760282D01*
X136618035Y-54812215D01*
X136655227Y-54798821D01*
X136690862Y-54708757D01*
X136650788Y-54654436D01*
X136536960Y-54605779D01*
X136484735Y-54675864D01*
X136323766Y-54675864D01*
X136343101Y-54190731D01*
X136372683Y-53675599D01*
X136399400Y-53341638D01*
X136473963Y-53341638D01*
X136499576Y-53511146D01*
X136557333Y-53575250D01*
X136635157Y-53508303D01*
X136640703Y-53469063D01*
X136596296Y-53308408D01*
X136557333Y-53235451D01*
X136498652Y-53177987D01*
X136475844Y-53267302D01*
X136473963Y-53341638D01*
X136399400Y-53341638D01*
X136409067Y-53220807D01*
X136451381Y-52852125D01*
X136498753Y-52595321D01*
X136550311Y-52476165D01*
X136563779Y-52470903D01*
X136591012Y-52541882D01*
X136578055Y-52683277D01*
X136580722Y-52853076D01*
X136643069Y-52895652D01*
X136696990Y-52939903D01*
X136715591Y-53090267D01*
X136700952Y-53373159D01*
X136690009Y-53491697D01*
X136664527Y-53936546D01*
X136687346Y-54244059D01*
X136757107Y-54403684D01*
X136810311Y-54424749D01*
X136877303Y-54351678D01*
X136937004Y-54175971D01*
X136937048Y-54175769D01*
X137016100Y-53960689D01*
X137113108Y-53825568D01*
X137193368Y-53678568D01*
X137233584Y-53447885D01*
X137234666Y-53404360D01*
X137244713Y-53234144D01*
X137288086Y-53085112D01*
X137384634Y-52933198D01*
X137554205Y-52754336D01*
X137816650Y-52524459D01*
X138191816Y-52219501D01*
X138250666Y-52172477D01*
X138547361Y-51926285D01*
X138835424Y-51671099D01*
X139091019Y-51430254D01*
X139290310Y-51227082D01*
X139409460Y-51084917D01*
X139424634Y-51027095D01*
X139420997Y-51026808D01*
X139318721Y-51052787D01*
X139095690Y-51121846D01*
X138790942Y-51220833D01*
X138443511Y-51336598D01*
X138092435Y-51455992D01*
X137776749Y-51565863D01*
X137535489Y-51653062D01*
X137407692Y-51704437D01*
X137404335Y-51706174D01*
X137240853Y-51733267D01*
X137144692Y-51657462D01*
X137086610Y-51537907D01*
X137153315Y-51414323D01*
X137199301Y-51366471D01*
X137334418Y-51285350D01*
X137595696Y-51169086D01*
X137946809Y-51030359D01*
X138351431Y-50881853D01*
X138773237Y-50736249D01*
X139175902Y-50606231D01*
X139523101Y-50504479D01*
X139778507Y-50443678D01*
X139875566Y-50432107D01*
X139998931Y-50411606D01*
X139971014Y-50340322D01*
X139967618Y-50336874D01*
X139812749Y-50269034D01*
X139531956Y-50222256D01*
X139167439Y-50197354D01*
X138761402Y-50195143D01*
X138356044Y-50216440D01*
X137993569Y-50262058D01*
X137835872Y-50295704D01*
X137556361Y-50362038D01*
X137349780Y-50400598D01*
X137262379Y-50403279D01*
X137253978Y-50293692D01*
X137346875Y-50148524D01*
X137500062Y-50024276D01*
X137556913Y-49997472D01*
X137732064Y-49954371D01*
X138027356Y-49905461D01*
X138394116Y-49858202D01*
X138620410Y-49834487D01*
X139126467Y-49806623D01*
X139637542Y-49814546D01*
G37*
D11*
%TO.C,SW23*%
X83560783Y-132056417D02*
X83699959Y-131066149D01*
X83560783Y-132056417D02*
X84551051Y-132195589D01*
X85370034Y-119182932D02*
X85509206Y-118192664D01*
X86499474Y-118331840D02*
X85509206Y-118192664D01*
X96434268Y-133865664D02*
X97424536Y-134004840D01*
X97563708Y-133014572D02*
X97424536Y-134004840D01*
X99372959Y-120141087D02*
X98382691Y-120001915D01*
X99372959Y-120141087D02*
X99233783Y-121131355D01*
%TO.C,SW24*%
X102425391Y-134707665D02*
X102564567Y-133717397D01*
X102425391Y-134707665D02*
X103415659Y-134846837D01*
X104234642Y-121834180D02*
X104373814Y-120843912D01*
X105364082Y-120983088D02*
X104373814Y-120843912D01*
X115298876Y-136516912D02*
X116289144Y-136656088D01*
X116428316Y-135665820D02*
X116289144Y-136656088D01*
X118237567Y-122792335D02*
X117247299Y-122653163D01*
X118237567Y-122792335D02*
X118098391Y-123782603D01*
%TO.C,SW1*%
X27166250Y-60675000D02*
X27166250Y-59675000D01*
X27166250Y-73675000D02*
X27166250Y-72675000D01*
X27166250Y-73675000D02*
X28166250Y-73675000D01*
X28166250Y-59675000D02*
X27166250Y-59675000D01*
X40166250Y-73675000D02*
X41166250Y-73675000D01*
X41166250Y-59675000D02*
X40166250Y-59675000D01*
X41166250Y-59675000D02*
X41166250Y-60675000D01*
X41166250Y-72675000D02*
X41166250Y-73675000D01*
%TO.C,SW38*%
X162119143Y-89916664D02*
X161979967Y-88926396D01*
X162970235Y-88787223D02*
X161979967Y-88926396D01*
X163928390Y-102790149D02*
X163789217Y-101799881D01*
X163928390Y-102790149D02*
X164918658Y-102650973D01*
X175843720Y-86977973D02*
X174853452Y-87117149D01*
X175843720Y-86977973D02*
X175982893Y-87968241D01*
X176801875Y-100980899D02*
X177792143Y-100841726D01*
X177652967Y-99851458D02*
X177792143Y-100841726D01*
%TO.C,SW25*%
X121289996Y-137358912D02*
X121429172Y-136368644D01*
X121289996Y-137358912D02*
X122280264Y-137498084D01*
X123099247Y-124485427D02*
X123238419Y-123495159D01*
X124228687Y-123634335D02*
X123238419Y-123495159D01*
X134163481Y-139168159D02*
X135153749Y-139307335D01*
X135292921Y-138317067D02*
X135153749Y-139307335D01*
X137102172Y-125443582D02*
X136111904Y-125304410D01*
X137102172Y-125443582D02*
X136962996Y-126433850D01*
%TO.C,SW12*%
X91093912Y-94263418D02*
X91233088Y-93273150D01*
X91093912Y-94263418D02*
X92084180Y-94402590D01*
X92903163Y-81389933D02*
X93042335Y-80399665D01*
X94032603Y-80538841D02*
X93042335Y-80399665D01*
X103967397Y-96072665D02*
X104957665Y-96211841D01*
X105096837Y-95221573D02*
X104957665Y-96211841D01*
X106906088Y-82348088D02*
X105915820Y-82208916D01*
X106906088Y-82348088D02*
X106766912Y-83338356D01*
%TO.C,SW40*%
X180983750Y-87202368D02*
X180844574Y-86212100D01*
X181834842Y-86072927D02*
X180844574Y-86212100D01*
X182792997Y-100075853D02*
X182653824Y-99085585D01*
X182792997Y-100075853D02*
X183783265Y-99936677D01*
X194708327Y-84263677D02*
X193718059Y-84402853D01*
X194708327Y-84263677D02*
X194847500Y-85253945D01*
X195666482Y-98266603D02*
X196656750Y-98127430D01*
X196517574Y-97137162D02*
X196656750Y-98127430D01*
%TO.C,SW27*%
X25810000Y-136875000D02*
X25810000Y-135875000D01*
X25810000Y-149875000D02*
X25810000Y-148875000D01*
X25810000Y-149875000D02*
X26810000Y-149875000D01*
X26810000Y-135875000D02*
X25810000Y-135875000D01*
X38810000Y-149875000D02*
X39810000Y-149875000D01*
X39810000Y-135875000D02*
X38810000Y-135875000D01*
X39810000Y-135875000D02*
X39810000Y-136875000D01*
X39810000Y-148875000D02*
X39810000Y-149875000D01*
%TO.C,SW53*%
X204149043Y-122625224D02*
X204009867Y-121634956D01*
X205000135Y-121495783D02*
X204009867Y-121634956D01*
X205958290Y-135498709D02*
X205819117Y-134508441D01*
X205958290Y-135498709D02*
X206948558Y-135359533D01*
X217873620Y-119686533D02*
X216883352Y-119825709D01*
X217873620Y-119686533D02*
X218012793Y-120676801D01*
X218831775Y-133689459D02*
X219822043Y-133550286D01*
X219682867Y-132560018D02*
X219822043Y-133550286D01*
%TO.C,SW60*%
X318755000Y-140685000D02*
X318755000Y-139685000D01*
X318755000Y-153685000D02*
X318755000Y-152685000D01*
X318755000Y-153685000D02*
X319755000Y-153685000D01*
X319755000Y-139685000D02*
X318755000Y-139685000D01*
X331755000Y-153685000D02*
X332755000Y-153685000D01*
X332755000Y-139685000D02*
X331755000Y-139685000D01*
X332755000Y-139685000D02*
X332755000Y-140685000D01*
X332755000Y-152685000D02*
X332755000Y-153685000D01*
%TO.C,SW69*%
X263077811Y-117825000D02*
X263077811Y-116825000D01*
X263077811Y-130825000D02*
X263077811Y-129825000D01*
X263077811Y-130825000D02*
X264077811Y-130825000D01*
X264077811Y-116825000D02*
X263077811Y-116825000D01*
X276077811Y-130825000D02*
X277077811Y-130825000D01*
X277077811Y-116825000D02*
X276077811Y-116825000D01*
X277077811Y-116825000D02*
X277077811Y-117825000D01*
X277077811Y-129825000D02*
X277077811Y-130825000D01*
%TO.C,SW36*%
X266887811Y-60675000D02*
X266887811Y-59675000D01*
X266887811Y-73675000D02*
X266887811Y-72675000D01*
X266887811Y-73675000D02*
X267887811Y-73675000D01*
X267887811Y-59675000D02*
X266887811Y-59675000D01*
X279887811Y-73675000D02*
X280887811Y-73675000D01*
X280887811Y-59675000D02*
X279887811Y-59675000D01*
X280887811Y-59675000D02*
X280887811Y-60675000D01*
X280887811Y-72675000D02*
X280887811Y-73675000D01*
%TO.C,SW19*%
X113989080Y-116762402D02*
X114128256Y-115772134D01*
X113989080Y-116762402D02*
X114979348Y-116901574D01*
X115798331Y-103888917D02*
X115937503Y-102898649D01*
X116927771Y-103037825D02*
X115937503Y-102898649D01*
X126862565Y-118571649D02*
X127852833Y-118710825D01*
X127992005Y-117720557D02*
X127852833Y-118710825D01*
X129801256Y-104847072D02*
X128810988Y-104707900D01*
X129801256Y-104847072D02*
X129662080Y-105837340D01*
%TO.C,SW35*%
X247837811Y-60696100D02*
X247837811Y-59696100D01*
X247837811Y-73696100D02*
X247837811Y-72696100D01*
X247837811Y-73696100D02*
X248837811Y-73696100D01*
X248837811Y-59696100D02*
X247837811Y-59696100D01*
X260837811Y-73696100D02*
X261837811Y-73696100D01*
X261837811Y-59696100D02*
X260837811Y-59696100D01*
X261837811Y-59696100D02*
X261837811Y-60696100D01*
X261837811Y-72696100D02*
X261837811Y-73696100D01*
%TO.C,SW5*%
X85298733Y-73837978D02*
X85437909Y-72847710D01*
X85298733Y-73837978D02*
X86289001Y-73977150D01*
X87107984Y-60964493D02*
X87247156Y-59974225D01*
X88237424Y-60113401D02*
X87247156Y-59974225D01*
X98172218Y-75647225D02*
X99162486Y-75786401D01*
X99301658Y-74796133D02*
X99162486Y-75786401D01*
X101110909Y-61922648D02*
X100120641Y-61783476D01*
X101110909Y-61922648D02*
X100971733Y-62912916D01*
%TO.C,SW49*%
X246043592Y-111279558D02*
X246043592Y-110279559D01*
X246043592Y-111279558D02*
X247043591Y-111279556D01*
X246043595Y-98279558D02*
X246043593Y-97279559D01*
X247043592Y-97279559D02*
X246043593Y-97279559D01*
X259043592Y-111279559D02*
X260043591Y-111279559D01*
X260043589Y-110279560D02*
X260043591Y-111279559D01*
X260043592Y-97279560D02*
X259043593Y-97279562D01*
X260043592Y-97279560D02*
X260043592Y-98279559D01*
D14*
%TO.C,SW2*%
X340181295Y-59950000D02*
X340781295Y-59950000D01*
X340481295Y-60250000D02*
X340181295Y-59950000D01*
X340781295Y-59950000D02*
X340481295Y-60250000D01*
X341281295Y-57750000D02*
X341281295Y-60250000D01*
X341281295Y-70350000D02*
X341281295Y-67550000D01*
X346081295Y-57750000D02*
X341281295Y-57750000D01*
X346181295Y-70350000D02*
X341281295Y-70350000D01*
X347481295Y-64050000D02*
X348481295Y-64050000D01*
X347981295Y-63550000D02*
X347981295Y-64550000D01*
X349781295Y-57750000D02*
X354681295Y-57750000D01*
X354681295Y-57750000D02*
X354681295Y-60350000D01*
X354681295Y-62750000D02*
X354681295Y-65350000D01*
X354681295Y-67750000D02*
X354681295Y-70350000D01*
X354681295Y-70350000D02*
X349781295Y-70350000D01*
X350981295Y-64050000D02*
G75*
G02*
X344981295Y-64050000I-3000000J0D01*
G01*
X344981295Y-64050000D02*
G75*
G02*
X350981295Y-64050000I3000000J0D01*
G01*
D11*
%TO.C,SW59*%
X299905000Y-140685000D02*
X299905000Y-139685000D01*
X299905000Y-153685000D02*
X299905000Y-152685000D01*
X299905000Y-153685000D02*
X300905000Y-153685000D01*
X300905000Y-139685000D02*
X299905000Y-139685000D01*
X312905000Y-153685000D02*
X313905000Y-153685000D01*
X313905000Y-139685000D02*
X312905000Y-139685000D01*
X313905000Y-139685000D02*
X313905000Y-140685000D01*
X313905000Y-152685000D02*
X313905000Y-153685000D01*
%TO.C,SW41*%
X167670582Y-108613661D02*
X167531405Y-107623394D01*
X168521673Y-107484222D02*
X167531405Y-107623394D01*
X169479828Y-121487147D02*
X169340656Y-120496879D01*
X169479828Y-121487147D02*
X170470095Y-121347970D01*
X181395158Y-105674971D02*
X180404891Y-105814148D01*
X181395158Y-105674971D02*
X181534330Y-106665239D01*
X182353313Y-119677896D02*
X183343581Y-119538724D01*
X183204404Y-118548457D02*
X183343581Y-119538724D01*
%TO.C,SW56*%
X186033088Y-144405575D02*
X185893912Y-143415307D01*
X186884180Y-143276134D02*
X185893912Y-143415307D01*
X187842335Y-157279060D02*
X187703162Y-156288792D01*
X187842335Y-157279060D02*
X188832603Y-157139884D01*
X199757665Y-141466884D02*
X198767397Y-141606060D01*
X199757665Y-141466884D02*
X199896838Y-142457152D01*
X200715820Y-155469810D02*
X201706088Y-155330637D01*
X201566912Y-154340369D02*
X201706088Y-155330637D01*
%TO.C,SW10*%
X52690000Y-79725000D02*
X52690000Y-78725000D01*
X52690000Y-92725000D02*
X52690000Y-91725000D01*
X52690000Y-92725000D02*
X53690000Y-92725000D01*
X53690000Y-78725000D02*
X52690000Y-78725000D01*
X65690000Y-92725000D02*
X66690000Y-92725000D01*
X66690000Y-78725000D02*
X65690000Y-78725000D01*
X66690000Y-78725000D02*
X66690000Y-79725000D01*
X66690000Y-91725000D02*
X66690000Y-92725000D01*
%TO.C,SW11*%
X72236237Y-91612828D02*
X72375410Y-90622560D01*
X72236237Y-91612828D02*
X73226505Y-91752001D01*
X74045487Y-78739343D02*
X74184660Y-77749075D01*
X75174928Y-77888248D02*
X74184660Y-77749075D01*
X85109722Y-93422078D02*
X86099990Y-93561251D01*
X86239163Y-92570983D02*
X86099990Y-93561251D01*
X88048413Y-79697498D02*
X87058145Y-79558325D01*
X88048413Y-79697498D02*
X87909240Y-80687766D01*
%TO.C,SW46*%
X240225000Y-79230000D02*
X240225000Y-78230000D01*
X240225000Y-92230000D02*
X240225000Y-91230000D01*
X240225000Y-92230000D02*
X241225000Y-92230000D01*
X241225000Y-78230000D02*
X240225000Y-78230000D01*
X253225000Y-92230000D02*
X254225000Y-92230000D01*
X254225000Y-78230000D02*
X253225000Y-78230000D01*
X254225000Y-78230000D02*
X254225000Y-79230000D01*
X254225000Y-91230000D02*
X254225000Y-92230000D01*
%TO.C,SW31*%
X101179914Y-153862828D02*
X101319090Y-152872560D01*
X101179914Y-153862828D02*
X102170182Y-154002000D01*
X102989165Y-140989343D02*
X103128337Y-139999075D01*
X104118605Y-140138251D02*
X103128337Y-139999075D01*
X114053399Y-155672075D02*
X115043667Y-155811251D01*
X115182839Y-154820983D02*
X115043667Y-155811251D01*
X116992090Y-141947498D02*
X116001822Y-141808326D01*
X116992090Y-141947498D02*
X116852914Y-142937766D01*
%TO.C,SW68*%
X265120311Y-98775000D02*
X265120311Y-97775000D01*
X265120311Y-111775000D02*
X265120311Y-110775000D01*
X265120311Y-111775000D02*
X266120311Y-111775000D01*
X266120311Y-97775000D02*
X265120311Y-97775000D01*
X278120311Y-111775000D02*
X279120311Y-111775000D01*
X279120311Y-97775000D02*
X278120311Y-97775000D01*
X279120311Y-97775000D02*
X279120311Y-98775000D01*
X279120311Y-110775000D02*
X279120311Y-111775000D01*
%TO.C,SW20*%
X132853687Y-119413649D02*
X132992863Y-118423381D01*
X132853687Y-119413649D02*
X133843955Y-119552821D01*
X134662938Y-106540164D02*
X134802110Y-105549896D01*
X135792378Y-105689072D02*
X134802110Y-105549896D01*
X145727172Y-121222896D02*
X146717440Y-121362072D01*
X146856612Y-120371804D02*
X146717440Y-121362072D01*
X148665863Y-107498319D02*
X147675595Y-107359147D01*
X148665863Y-107498319D02*
X148526687Y-108488587D01*
%TO.C,SW63*%
X341061295Y-79725000D02*
X341061295Y-78725000D01*
X341061295Y-92725000D02*
X341061295Y-91725000D01*
X341061295Y-92725000D02*
X342061295Y-92725000D01*
X342061295Y-78725000D02*
X341061295Y-78725000D01*
X354061295Y-92725000D02*
X355061295Y-92725000D01*
X355061295Y-78725000D02*
X354061295Y-78725000D01*
X355061295Y-78725000D02*
X355061295Y-79725000D01*
X355061295Y-91725000D02*
X355061295Y-92725000D01*
%TO.C,SW44*%
X218702526Y-81825603D02*
X218563350Y-80835335D01*
X219553618Y-80696162D02*
X218563350Y-80835335D01*
X220511773Y-94699088D02*
X220372600Y-93708820D01*
X220511773Y-94699088D02*
X221502041Y-94559912D01*
X232427103Y-78886912D02*
X231436835Y-79026088D01*
X232427103Y-78886912D02*
X232566276Y-79877180D01*
X233385258Y-92889838D02*
X234375526Y-92750665D01*
X234236350Y-91760397D02*
X234375526Y-92750665D01*
D13*
%TO.C,G\u002A\u002A\u002A*%
G36*
X126920633Y-43035625D02*
G01*
X127032395Y-43212084D01*
X127012614Y-43457272D01*
X126904097Y-43626309D01*
X126716486Y-43815325D01*
X126505525Y-43977019D01*
X126326959Y-44064087D01*
X126292108Y-44068667D01*
X126221903Y-43997998D01*
X126117316Y-43817361D01*
X126050628Y-43676904D01*
X125951006Y-43440619D01*
X125888348Y-43270712D01*
X125877333Y-43224639D01*
X125950942Y-43164235D01*
X126133252Y-43090818D01*
X126366494Y-43022360D01*
X126592893Y-42976833D01*
X126702289Y-42968000D01*
X126920633Y-43035625D01*
G37*
G36*
X127460443Y-44549821D02*
G01*
X127650297Y-44766271D01*
X127724273Y-44935929D01*
X127699026Y-45079457D01*
X127622530Y-45209005D01*
X127458008Y-45374904D01*
X127205005Y-45547696D01*
X126930549Y-45688436D01*
X126701669Y-45758177D01*
X126673973Y-45760140D01*
X126607263Y-45685674D01*
X126530026Y-45491064D01*
X126475415Y-45287458D01*
X126418638Y-44981440D01*
X126434129Y-44790520D01*
X126545959Y-44667467D01*
X126778200Y-44565049D01*
X126857801Y-44537166D01*
X127200461Y-44472551D01*
X127460443Y-44549821D01*
G37*
G36*
X104472402Y-42258058D02*
G01*
X104507552Y-42360081D01*
X104530134Y-42583434D01*
X104539628Y-42880544D01*
X104535513Y-43203836D01*
X104517266Y-43505737D01*
X104488417Y-43719417D01*
X104448586Y-43858587D01*
X104374858Y-43940292D01*
X104233536Y-43972523D01*
X103990924Y-43963273D01*
X103631167Y-43922752D01*
X103443891Y-43883883D01*
X103356703Y-43834994D01*
X103355900Y-43830469D01*
X103400975Y-43724559D01*
X103520531Y-43525844D01*
X103690817Y-43267772D01*
X103888082Y-42983792D01*
X104088575Y-42707356D01*
X104268544Y-42471911D01*
X104404240Y-42310907D01*
X104471911Y-42257794D01*
X104472402Y-42258058D01*
G37*
G36*
X100956242Y-37323625D02*
G01*
X102231961Y-37495906D01*
X103545991Y-37757634D01*
X104080292Y-37887814D01*
X105023050Y-38153017D01*
X106051855Y-38483337D01*
X107117958Y-38860625D01*
X108172607Y-39266731D01*
X109167055Y-39683503D01*
X110052550Y-40092793D01*
X110202230Y-40167096D01*
X111092388Y-40571161D01*
X112105550Y-40955978D01*
X113195451Y-41307128D01*
X114315830Y-41610190D01*
X115420426Y-41850745D01*
X115844333Y-41925719D01*
X116299535Y-41981710D01*
X116887083Y-42025804D01*
X117570388Y-42057721D01*
X118312863Y-42077181D01*
X119077917Y-42083904D01*
X119828964Y-42077610D01*
X120529414Y-42058018D01*
X121142678Y-42024848D01*
X121632169Y-41977820D01*
X121686333Y-41970457D01*
X123650203Y-41626458D01*
X125537650Y-41159774D01*
X127380992Y-40560085D01*
X129212548Y-39817073D01*
X130781859Y-39066333D01*
X131237157Y-38836524D01*
X131639047Y-38638614D01*
X131964086Y-38483742D01*
X132188831Y-38383045D01*
X132289840Y-38347662D01*
X132292710Y-38348488D01*
X132266665Y-38429855D01*
X132176218Y-38635095D01*
X132034562Y-38937571D01*
X131854887Y-39310646D01*
X131650387Y-39727683D01*
X131434253Y-40162045D01*
X131219675Y-40587095D01*
X131019846Y-40976197D01*
X130847957Y-41302713D01*
X130717200Y-41540007D01*
X130685252Y-41594316D01*
X130593880Y-41752307D01*
X130544788Y-41875077D01*
X130554218Y-41967068D01*
X130638412Y-42032720D01*
X130813611Y-42076474D01*
X131096056Y-42102771D01*
X131501990Y-42116052D01*
X132047654Y-42120758D01*
X132612731Y-42121333D01*
X133189340Y-42124361D01*
X133693738Y-42132906D01*
X134104701Y-42146161D01*
X134401006Y-42163318D01*
X134561429Y-42183570D01*
X134583889Y-42196318D01*
X134497825Y-42305900D01*
X134296481Y-42505143D01*
X133997675Y-42779022D01*
X133619223Y-43112512D01*
X133178942Y-43490588D01*
X132694648Y-43898224D01*
X132184158Y-44320396D01*
X131665288Y-44742077D01*
X131155856Y-45148243D01*
X130673678Y-45523869D01*
X130322333Y-45790191D01*
X128608118Y-47018334D01*
X126960910Y-48092961D01*
X125378522Y-49015111D01*
X123858766Y-49785819D01*
X122399458Y-50406122D01*
X120998409Y-50877057D01*
X119653433Y-51199659D01*
X118582175Y-51355107D01*
X118113510Y-51389067D01*
X117572986Y-51402502D01*
X116932138Y-51395378D01*
X116162499Y-51367659D01*
X115830397Y-51351722D01*
X114692982Y-51283031D01*
X113615237Y-51192995D01*
X112573346Y-51077051D01*
X111543498Y-50930637D01*
X110501879Y-50749188D01*
X109424676Y-50528141D01*
X108288074Y-50262933D01*
X107068262Y-49949001D01*
X105741424Y-49581782D01*
X104283749Y-49156711D01*
X104118000Y-49107302D01*
X102584838Y-48656602D01*
X101203739Y-48265991D01*
X109230678Y-48265991D01*
X109292537Y-48403906D01*
X109446743Y-48464813D01*
X109553845Y-48471333D01*
X109798634Y-48398800D01*
X110075515Y-48203881D01*
X110351686Y-47920595D01*
X110594348Y-47582964D01*
X110770700Y-47225007D01*
X110779829Y-47199742D01*
X110919316Y-46894381D01*
X111075740Y-46696514D01*
X111227812Y-46626788D01*
X111325607Y-46670407D01*
X111371336Y-46779613D01*
X111438807Y-47019973D01*
X111518974Y-47356130D01*
X111602791Y-47752728D01*
X111603790Y-47757751D01*
X111701128Y-48240202D01*
X111776657Y-48583525D01*
X111840257Y-48814933D01*
X111901808Y-48961639D01*
X111971189Y-49050858D01*
X112058280Y-49109803D01*
X112102772Y-49132202D01*
X112342367Y-49217045D01*
X112521694Y-49183420D01*
X112669333Y-49064000D01*
X112804035Y-48811776D01*
X112836646Y-48431036D01*
X112767480Y-47928125D01*
X112596850Y-47309387D01*
X112580355Y-47259635D01*
X112477776Y-46966667D01*
X115828873Y-46966667D01*
X115895282Y-47620169D01*
X116044828Y-48218042D01*
X116201803Y-48582792D01*
X116504358Y-48989914D01*
X116886813Y-49255707D01*
X117325599Y-49372888D01*
X117797146Y-49334174D01*
X118171616Y-49191543D01*
X118443497Y-48980546D01*
X118567440Y-48715380D01*
X118556598Y-48495205D01*
X118508822Y-48362936D01*
X118420438Y-48313787D01*
X118238002Y-48327915D01*
X118147232Y-48343226D01*
X117732261Y-48398570D01*
X117439959Y-48391300D01*
X117234509Y-48318424D01*
X117157666Y-48260571D01*
X116926533Y-47959775D01*
X116741589Y-47536974D01*
X116620172Y-47037023D01*
X116590375Y-46792886D01*
X116571493Y-46442996D01*
X116592210Y-46189031D01*
X116662568Y-45960181D01*
X116729460Y-45812335D01*
X116924789Y-45509352D01*
X117151255Y-45367134D01*
X117430344Y-45377390D01*
X117644480Y-45459176D01*
X117852325Y-45544897D01*
X117976560Y-45546836D01*
X118063808Y-45483811D01*
X118142595Y-45295593D01*
X118087665Y-45050941D01*
X118053121Y-44999073D01*
X119049611Y-44999073D01*
X119090328Y-45423333D01*
X119189453Y-46229976D01*
X119270370Y-46884775D01*
X119335171Y-47403997D01*
X119385949Y-47803911D01*
X119424795Y-48100784D01*
X119453802Y-48310884D01*
X119475061Y-48450479D01*
X119490452Y-48534833D01*
X119533694Y-48646643D01*
X119632681Y-48703710D01*
X119832932Y-48723710D01*
X119981069Y-48725333D01*
X120290246Y-48703202D01*
X120681070Y-48644949D01*
X121072899Y-48562787D01*
X121101290Y-48555695D01*
X121621553Y-48413034D01*
X121986762Y-48284526D01*
X122209705Y-48161885D01*
X122303167Y-48036822D01*
X122279935Y-47901051D01*
X122227760Y-47825602D01*
X122147066Y-47755569D01*
X122029669Y-47721134D01*
X121844473Y-47722966D01*
X121560379Y-47761732D01*
X121146289Y-47838101D01*
X121084611Y-47850172D01*
X120698859Y-47917922D01*
X120448859Y-47940380D01*
X120307626Y-47919050D01*
X120272268Y-47895468D01*
X120229686Y-47777889D01*
X120183733Y-47527552D01*
X120139844Y-47180803D01*
X120103455Y-46773990D01*
X120102433Y-46759796D01*
X120049028Y-46197936D01*
X119973074Y-45652340D01*
X119881022Y-45153741D01*
X119779326Y-44732870D01*
X119674435Y-44420461D01*
X119615596Y-44318992D01*
X121758604Y-44318992D01*
X121767784Y-44377636D01*
X121834420Y-44675652D01*
X121935873Y-45062579D01*
X122058972Y-45494726D01*
X122190546Y-45928404D01*
X122317423Y-46319923D01*
X122426432Y-46625591D01*
X122491436Y-46778000D01*
X122740071Y-47148100D01*
X123068825Y-47399118D01*
X123310562Y-47506315D01*
X123712681Y-47590349D01*
X124101857Y-47557924D01*
X124423907Y-47415740D01*
X124491304Y-47360360D01*
X124696683Y-47069605D01*
X124841491Y-46664384D01*
X124913571Y-46192497D01*
X124904623Y-45735166D01*
X124830999Y-45203508D01*
X124730652Y-44687798D01*
X124612767Y-44222175D01*
X124486525Y-43840775D01*
X124361111Y-43577735D01*
X124304449Y-43504086D01*
X124075224Y-43332473D01*
X123896098Y-43312072D01*
X123775366Y-43429999D01*
X123721322Y-43673375D01*
X123742259Y-44029318D01*
X123795127Y-44295120D01*
X123893963Y-44765320D01*
X123972669Y-45262730D01*
X124025785Y-45738934D01*
X124047856Y-46145516D01*
X124035037Y-46423589D01*
X123938655Y-46686829D01*
X123764110Y-46856754D01*
X123551106Y-46904391D01*
X123428554Y-46866174D01*
X123304715Y-46775686D01*
X123195653Y-46632273D01*
X123091593Y-46412096D01*
X122982763Y-46091313D01*
X122859390Y-45646084D01*
X122750341Y-45211667D01*
X122640511Y-44785637D01*
X122532096Y-44405699D01*
X122436567Y-44109506D01*
X122365394Y-43934713D01*
X122357016Y-43920500D01*
X122187076Y-43756751D01*
X122013579Y-43736981D01*
X121865210Y-43838935D01*
X121770656Y-44040357D01*
X121758604Y-44318992D01*
X119615596Y-44318992D01*
X119575547Y-44249928D01*
X119405912Y-44171298D01*
X119236612Y-44245428D01*
X119098160Y-44458454D01*
X119094087Y-44468664D01*
X119049649Y-44681381D01*
X119049611Y-44999073D01*
X118053121Y-44999073D01*
X117909104Y-44782832D01*
X117821590Y-44691778D01*
X117508303Y-44495540D01*
X117157259Y-44444639D01*
X116800164Y-44529981D01*
X116468719Y-44742471D01*
X116194628Y-45073014D01*
X116137886Y-45174784D01*
X115949232Y-45693734D01*
X115846542Y-46307775D01*
X115828873Y-46966667D01*
X112477776Y-46966667D01*
X112459347Y-46914035D01*
X112348238Y-46624219D01*
X112263436Y-46431771D01*
X112234465Y-46383101D01*
X112223676Y-46290241D01*
X112306193Y-46128679D01*
X112493262Y-45879862D01*
X112659479Y-45682003D01*
X112905639Y-45384576D01*
X113122184Y-45102502D01*
X113274193Y-44882023D01*
X113308592Y-44822430D01*
X113386737Y-44585197D01*
X113391613Y-44360041D01*
X113329042Y-44199637D01*
X113234630Y-44153333D01*
X113067574Y-44207925D01*
X112809250Y-44357167D01*
X112491325Y-44579264D01*
X112145466Y-44852417D01*
X111871656Y-45091489D01*
X111370312Y-45550333D01*
X111430373Y-45254000D01*
X111511262Y-44745996D01*
X111548765Y-44259781D01*
X111542406Y-43836064D01*
X111491707Y-43515551D01*
X111451993Y-43411302D01*
X111248253Y-43131884D01*
X111245746Y-43130536D01*
X125248032Y-43130536D01*
X125280722Y-43332338D01*
X125351674Y-43631066D01*
X125465333Y-44048217D01*
X125625019Y-44601441D01*
X125771394Y-45095432D01*
X125906435Y-45540927D01*
X126021243Y-45909375D01*
X126106923Y-46172222D01*
X126154576Y-46300914D01*
X126298376Y-46409420D01*
X126565290Y-46404715D01*
X126952869Y-46287205D01*
X127375029Y-46099093D01*
X127838839Y-45813960D01*
X128138056Y-45495381D01*
X128274515Y-45141144D01*
X128284136Y-45002240D01*
X128223507Y-44636330D01*
X128068069Y-44289271D01*
X127849107Y-44020584D01*
X127721721Y-43932214D01*
X127549209Y-43809451D01*
X127523122Y-43682669D01*
X127530824Y-43660777D01*
X127621004Y-43303737D01*
X127629107Y-42923414D01*
X127554745Y-42599244D01*
X127536223Y-42559923D01*
X127343883Y-42326682D01*
X127068739Y-42220943D01*
X126702832Y-42242656D01*
X126238200Y-42391769D01*
X125895035Y-42549187D01*
X125617275Y-42698796D01*
X125393464Y-42838857D01*
X125279647Y-42931714D01*
X125249156Y-43004160D01*
X125248032Y-43130536D01*
X111245746Y-43130536D01*
X111012399Y-43005073D01*
X110761542Y-43038533D01*
X110664960Y-43097057D01*
X110591398Y-43189472D01*
X110534349Y-43341755D01*
X110487310Y-43579884D01*
X110443774Y-43929834D01*
X110397236Y-44417583D01*
X110386963Y-44534333D01*
X110320985Y-45138954D01*
X110229085Y-45648291D01*
X110094505Y-46120220D01*
X109900490Y-46612619D01*
X109630280Y-47183363D01*
X109605803Y-47232280D01*
X109386649Y-47695971D01*
X109261828Y-48035277D01*
X109230678Y-48265991D01*
X101203739Y-48265991D01*
X101198838Y-48264605D01*
X99949322Y-47928698D01*
X98825612Y-47646265D01*
X97817027Y-47414693D01*
X96912890Y-47231367D01*
X96102521Y-47093673D01*
X95624537Y-47027839D01*
X95181638Y-46986275D01*
X94681395Y-46961026D01*
X94153270Y-46951154D01*
X93626728Y-46955720D01*
X93131233Y-46973785D01*
X92696249Y-47004412D01*
X92351239Y-47046661D01*
X92125669Y-47099593D01*
X92055298Y-47141539D01*
X91988117Y-47308302D01*
X91915364Y-47617472D01*
X91840126Y-48042345D01*
X91765489Y-48556217D01*
X91694541Y-49132383D01*
X91630368Y-49744138D01*
X91576058Y-50364780D01*
X91534698Y-50967602D01*
X91509375Y-51525901D01*
X91502737Y-51921500D01*
X91502667Y-52789333D01*
X90867667Y-52789333D01*
X90544238Y-52786104D01*
X90354594Y-52769294D01*
X90263211Y-52728216D01*
X90234565Y-52652183D01*
X90232667Y-52598314D01*
X90244931Y-52374860D01*
X90278696Y-52019859D01*
X90329421Y-51569084D01*
X90392564Y-51058304D01*
X90463582Y-50523294D01*
X90537934Y-49999824D01*
X90611080Y-49523667D01*
X90659895Y-49233333D01*
X91002451Y-47574691D01*
X91445278Y-45927125D01*
X91467973Y-45858588D01*
X101509058Y-45858588D01*
X101509388Y-45865117D01*
X101599184Y-46054937D01*
X101684564Y-46134353D01*
X101889253Y-46168332D01*
X102133849Y-46048825D01*
X102406560Y-45783593D01*
X102594000Y-45535726D01*
X102732265Y-45335991D01*
X102843630Y-45210549D01*
X102968421Y-45148309D01*
X103146964Y-45138179D01*
X103419588Y-45169069D01*
X103748358Y-45218236D01*
X104013716Y-45257993D01*
X103811869Y-45912163D01*
X103700294Y-46281910D01*
X103638040Y-46526883D01*
X103622566Y-46683506D01*
X103651333Y-46788202D01*
X103721800Y-46877393D01*
X103743047Y-46898952D01*
X103891464Y-47007524D01*
X104051585Y-47011659D01*
X104275322Y-46908592D01*
X104345430Y-46866881D01*
X104507767Y-46754932D01*
X104632143Y-46625316D01*
X104733109Y-46446834D01*
X104825215Y-46188290D01*
X104923011Y-45818485D01*
X104926299Y-45804333D01*
X106109917Y-45804333D01*
X106114403Y-46220046D01*
X106136519Y-46520576D01*
X106185329Y-46759857D01*
X106269900Y-46991822D01*
X106333059Y-47131811D01*
X106562552Y-47512655D01*
X106854077Y-47768419D01*
X107252628Y-47935117D01*
X107377667Y-47967914D01*
X107730545Y-47994269D01*
X108065676Y-47880991D01*
X108165384Y-47822584D01*
X108371538Y-47633043D01*
X108426422Y-47398190D01*
X108401184Y-47243477D01*
X108319800Y-47085018D01*
X108149627Y-47033199D01*
X108099704Y-47032000D01*
X107721691Y-46965048D01*
X107422984Y-46778795D01*
X107286650Y-46596388D01*
X107185617Y-46251810D01*
X107168185Y-45797876D01*
X107232015Y-45271133D01*
X107374770Y-44708130D01*
X107415197Y-44586873D01*
X107640150Y-44036760D01*
X107880810Y-43623942D01*
X108129653Y-43355092D01*
X108379152Y-43236882D01*
X108621781Y-43275985D01*
X108769538Y-43386204D01*
X108995777Y-43529535D01*
X109228331Y-43548515D01*
X109414758Y-43443433D01*
X109456771Y-43382418D01*
X109520802Y-43098841D01*
X109454561Y-42790651D01*
X109282814Y-42501323D01*
X109030332Y-42274333D01*
X108760683Y-42160595D01*
X108267607Y-42134796D01*
X107790633Y-42267259D01*
X107349690Y-42546957D01*
X106964713Y-42962863D01*
X106777240Y-43257947D01*
X106423649Y-44007782D01*
X106208415Y-44745942D01*
X106116055Y-45531509D01*
X106109917Y-45804333D01*
X104926299Y-45804333D01*
X105011006Y-45439795D01*
X105160520Y-44686102D01*
X105272200Y-43930422D01*
X105342700Y-43210345D01*
X105368675Y-42563460D01*
X105346779Y-42027358D01*
X105328028Y-41878247D01*
X105221888Y-41415052D01*
X105069572Y-41062258D01*
X104882582Y-40839705D01*
X104683735Y-40766983D01*
X104537595Y-40778619D01*
X104401004Y-40822604D01*
X104263244Y-40913347D01*
X104113598Y-41065256D01*
X103941349Y-41292739D01*
X103735780Y-41610205D01*
X103486175Y-42032063D01*
X103181815Y-42572720D01*
X102811984Y-43246586D01*
X102737055Y-43384207D01*
X102394582Y-44020914D01*
X102097182Y-44588207D01*
X101852392Y-45070852D01*
X101667750Y-45453619D01*
X101550792Y-45721275D01*
X101509058Y-45858588D01*
X91467973Y-45858588D01*
X91966330Y-44353571D01*
X96260692Y-44353571D01*
X96296456Y-44501659D01*
X96370939Y-44635338D01*
X96381713Y-44650935D01*
X96525260Y-44790605D01*
X96714525Y-44807124D01*
X96769838Y-44797465D01*
X97074665Y-44690001D01*
X97344109Y-44484244D01*
X97601664Y-44156938D01*
X97846730Y-43731513D01*
X98008795Y-43432026D01*
X98146234Y-43200045D01*
X98238414Y-43069422D01*
X98260497Y-43052667D01*
X98362992Y-43081084D01*
X98581034Y-43156512D01*
X98872498Y-43264213D01*
X98954711Y-43295532D01*
X99289544Y-43431844D01*
X99497419Y-43556930D01*
X99597393Y-43710335D01*
X99608523Y-43931603D01*
X99549868Y-44260278D01*
X99508097Y-44443791D01*
X99406145Y-44953436D01*
X99373615Y-45323640D01*
X99413605Y-45570770D01*
X99529215Y-45711190D01*
X99723546Y-45761267D01*
X99757771Y-45762000D01*
X100072081Y-45683098D01*
X100291231Y-45523664D01*
X100408004Y-45389624D01*
X100520307Y-45199113D01*
X100640231Y-44924740D01*
X100779868Y-44539115D01*
X100935898Y-44063292D01*
X101105967Y-43512885D01*
X101285955Y-42902235D01*
X101455080Y-42303430D01*
X101592561Y-41788563D01*
X101599702Y-41760528D01*
X101710575Y-41315912D01*
X101781085Y-41002756D01*
X101814773Y-40788975D01*
X101815179Y-40642485D01*
X101785843Y-40531202D01*
X101744514Y-40448067D01*
X101549515Y-40251832D01*
X101287192Y-40178927D01*
X101013143Y-40236222D01*
X100862803Y-40339134D01*
X100748987Y-40487465D01*
X100589135Y-40749567D01*
X100406833Y-41084851D01*
X100268952Y-41361189D01*
X100099795Y-41700901D01*
X99951278Y-41975365D01*
X99840999Y-42153511D01*
X99790442Y-42206000D01*
X99679991Y-42176475D01*
X99460117Y-42098982D01*
X99177926Y-41990146D01*
X99171387Y-41987530D01*
X98625659Y-41769060D01*
X98674482Y-41186705D01*
X98676985Y-40691557D01*
X98606709Y-40241088D01*
X98474832Y-39862706D01*
X98292530Y-39583821D01*
X98070981Y-39431840D01*
X97950756Y-39412000D01*
X97770422Y-39438810D01*
X97622600Y-39533281D01*
X97495734Y-39716474D01*
X97378264Y-40009451D01*
X97258634Y-40433273D01*
X97159658Y-40853614D01*
X97028676Y-41401566D01*
X96869420Y-42012776D01*
X96703516Y-42606659D01*
X96574073Y-43035598D01*
X96420337Y-43532089D01*
X96319170Y-43897864D01*
X96267109Y-44161999D01*
X96260692Y-44353571D01*
X91966330Y-44353571D01*
X91999834Y-44252392D01*
X92664103Y-42544667D01*
X92908803Y-41971665D01*
X93186758Y-41348008D01*
X93484055Y-40702549D01*
X93786782Y-40064141D01*
X94081026Y-39461636D01*
X94352874Y-38923889D01*
X94588415Y-38479751D01*
X94773735Y-38158076D01*
X94797198Y-38120833D01*
X95001213Y-37855044D01*
X95176345Y-37730350D01*
X95309816Y-37753082D01*
X95364444Y-37839748D01*
X95417156Y-37905140D01*
X95528158Y-37899380D01*
X95741710Y-37819133D01*
X95763954Y-37809651D01*
X96585985Y-37532240D01*
X97533705Y-37345096D01*
X98589638Y-37248055D01*
X99736309Y-37240953D01*
X100956242Y-37323625D01*
G37*
%TD*%
M02*
