%TF.GenerationSoftware,KiCad,Pcbnew,9.0.2*%
%TF.CreationDate,2025-06-19T20:24:16-07:00*%
%TF.ProjectId,toro-pcb,746f726f-2d70-4636-922e-6b696361645f,rev?*%
%TF.SameCoordinates,Original*%
%TF.FileFunction,Paste,Bot*%
%TF.FilePolarity,Positive*%
%FSLAX46Y46*%
G04 Gerber Fmt 4.6, Leading zero omitted, Abs format (unit mm)*
G04 Created by KiCad (PCBNEW 9.0.2) date 2025-06-19 20:24:16*
%MOMM*%
%LPD*%
G01*
G04 APERTURE LIST*
G04 Aperture macros list*
%AMRotRect*
0 Rectangle, with rotation*
0 The origin of the aperture is its center*
0 $1 length*
0 $2 width*
0 $3 Rotation angle, in degrees counterclockwise*
0 Add horizontal line*
21,1,$1,$2,0,0,$3*%
G04 Aperture macros list end*
%ADD10R,2.550000X2.500000*%
%ADD11RotRect,2.550000X2.500000X352.000000*%
%ADD12RotRect,2.550000X2.500000X8.000000*%
G04 APERTURE END LIST*
D10*
%TO.C,SW37*%
X308752811Y-61595000D03*
X294902811Y-64135000D03*
%TD*%
D11*
%TO.C,SW18*%
X109966347Y-103998327D03*
X95897635Y-104586060D03*
%TD*%
D12*
%TO.C,SW57*%
X240081225Y-137828413D03*
X226719511Y-142271241D03*
%TD*%
%TO.C,SW57*%
X237521787Y-99498545D03*
X224160073Y-103941373D03*
%TD*%
D10*
%TO.C,SW48*%
X272557811Y-80570000D03*
X258707811Y-83110000D03*
%TD*%
D11*
%TO.C,SW17*%
X90593702Y-101344837D03*
X76524989Y-101932570D03*
%TD*%
D12*
%TO.C,SW42*%
X213137055Y-83612558D03*
X199775341Y-88055386D03*
%TD*%
D10*
%TO.C,SW4*%
X78556250Y-60420000D03*
X64706250Y-62960000D03*
%TD*%
D12*
%TO.C,SW28*%
X183177967Y-68797783D03*
X169816253Y-73240611D03*
%TD*%
D11*
%TO.C,SW7*%
X137890606Y-69077662D03*
X123821894Y-69665395D03*
%TD*%
D10*
%TO.C,SW55*%
X257290000Y-118170000D03*
X243440000Y-120710000D03*
%TD*%
D12*
%TO.C,SW43*%
X199792573Y-104801040D03*
X186430859Y-109243868D03*
%TD*%
%TO.C,SW54*%
X236302349Y-119035413D03*
X222940635Y-123478241D03*
%TD*%
D10*
%TO.C,SW65*%
X354351295Y-118920000D03*
X340501295Y-121460000D03*
%TD*%
%TO.C,SW62*%
X332045000Y-122555000D03*
X318195000Y-125095000D03*
%TD*%
D11*
%TO.C,SW8*%
X156755212Y-71728910D03*
X142686500Y-72316643D03*
%TD*%
D10*
%TO.C,SW3*%
X59506250Y-61595000D03*
X45656250Y-64135000D03*
%TD*%
%TO.C,SW21*%
X46295000Y-118745000D03*
X32445000Y-121285000D03*
%TD*%
%TO.C,SW61*%
X351095000Y-141605000D03*
X337245000Y-144145000D03*
%TD*%
D11*
%TO.C,SW6*%
X119005212Y-66376399D03*
X104936500Y-66964132D03*
%TD*%
D10*
%TO.C,SW67*%
X291607811Y-80645000D03*
X277757811Y-83185000D03*
%TD*%
D12*
%TO.C,SW51*%
X179708529Y-126989156D03*
X166346815Y-131431984D03*
%TD*%
D10*
%TO.C,SW16*%
X69330000Y-99695000D03*
X55480000Y-102235000D03*
%TD*%
D11*
%TO.C,SW30*%
X92384088Y-140427938D03*
X78315376Y-141015671D03*
%TD*%
D10*
%TO.C,SW73*%
X302642811Y-118745000D03*
X288792811Y-121285000D03*
%TD*%
%TO.C,SW64*%
X354351295Y-99695000D03*
X340501295Y-102235000D03*
%TD*%
D12*
%TO.C,SW45*%
X218657180Y-102149793D03*
X205295466Y-106592621D03*
%TD*%
%TO.C,SW34*%
X239771787Y-60844040D03*
X226410073Y-65286868D03*
%TD*%
D10*
%TO.C,SW72*%
X309400311Y-99695000D03*
X295550311Y-102235000D03*
%TD*%
D12*
%TO.C,SW52*%
X198573135Y-124337909D03*
X185211421Y-128780737D03*
%TD*%
D10*
%TO.C,SW58*%
X266350000Y-137795000D03*
X252500000Y-140335000D03*
%TD*%
%TO.C,SW71*%
X315642811Y-80710000D03*
X301792811Y-83250000D03*
%TD*%
D11*
%TO.C,SW13*%
X124800390Y-86801837D03*
X110731678Y-87389570D03*
%TD*%
D10*
%TO.C,SW14*%
X43120000Y-99695000D03*
X29270000Y-102235000D03*
%TD*%
D12*
%TO.C,SW33*%
X220907181Y-63495287D03*
X207545467Y-67938115D03*
%TD*%
D11*
%TO.C,SW26*%
X154996477Y-129897332D03*
X140927765Y-130485065D03*
%TD*%
D12*
%TO.C,SW29*%
X202042574Y-66146535D03*
X188680860Y-70589363D03*
%TD*%
D11*
%TO.C,SW32*%
X146632900Y-147966275D03*
X132564188Y-148554008D03*
%TD*%
D10*
%TO.C,SW9*%
X42080000Y-80645000D03*
X28230000Y-83185000D03*
%TD*%
%TO.C,SW22*%
X77240000Y-118745000D03*
X63390000Y-121285000D03*
%TD*%
D11*
%TO.C,SW14*%
X143664997Y-89453085D03*
X129596285Y-90040818D03*
%TD*%
%TO.C,SW23*%
X98402656Y-121943589D03*
X84333944Y-122531322D03*
%TD*%
%TO.C,SW24*%
X117267264Y-124594837D03*
X103198552Y-125182570D03*
%TD*%
D10*
%TO.C,SW1*%
X40456250Y-61595000D03*
X26606250Y-64135000D03*
%TD*%
D12*
%TO.C,SW38*%
X175407842Y-88978101D03*
X162046128Y-93420929D03*
%TD*%
D11*
%TO.C,SW25*%
X136131869Y-127246084D03*
X122063157Y-127833817D03*
%TD*%
%TO.C,SW12*%
X105935785Y-84150590D03*
X91867073Y-84738323D03*
%TD*%
D12*
%TO.C,SW40*%
X194272449Y-86263805D03*
X180910735Y-90706633D03*
%TD*%
D10*
%TO.C,SW27*%
X39100000Y-137795000D03*
X25250000Y-140335000D03*
%TD*%
D12*
%TO.C,SW53*%
X217437742Y-121686661D03*
X204076028Y-126129489D03*
%TD*%
D10*
%TO.C,SW60*%
X332045000Y-141605000D03*
X318195000Y-144145000D03*
%TD*%
%TO.C,SW69*%
X276367811Y-118745000D03*
X262517811Y-121285000D03*
%TD*%
%TO.C,SW36*%
X280177811Y-61595000D03*
X266327811Y-64135000D03*
%TD*%
D11*
%TO.C,SW19*%
X128830953Y-106649574D03*
X114762241Y-107237307D03*
%TD*%
D10*
%TO.C,SW35*%
X261127811Y-61616100D03*
X247277811Y-64156100D03*
%TD*%
D11*
%TO.C,SW5*%
X100140606Y-63725150D03*
X86071894Y-64312883D03*
%TD*%
D10*
%TO.C,SW49*%
X259333592Y-99199559D03*
X245483592Y-101739559D03*
%TD*%
%TO.C,SW59*%
X313195000Y-141605000D03*
X299345000Y-144145000D03*
%TD*%
D12*
%TO.C,SW41*%
X180959280Y-107675099D03*
X167597566Y-112117927D03*
%TD*%
%TO.C,SW56*%
X199321787Y-143467012D03*
X185960073Y-147909840D03*
%TD*%
D10*
%TO.C,SW10*%
X65980000Y-80645000D03*
X52130000Y-83185000D03*
%TD*%
D11*
%TO.C,SW11*%
X87078111Y-81500000D03*
X73009397Y-82087733D03*
%TD*%
D10*
%TO.C,SW46*%
X253515000Y-80150000D03*
X239664999Y-82690000D03*
%TD*%
D11*
%TO.C,SW31*%
X116021787Y-143750000D03*
X101953075Y-144337733D03*
%TD*%
D10*
%TO.C,SW68*%
X278410311Y-99695000D03*
X264560311Y-102235000D03*
%TD*%
D11*
%TO.C,SW20*%
X147695560Y-109300821D03*
X133626848Y-109888554D03*
%TD*%
D10*
%TO.C,SW63*%
X354351295Y-80645000D03*
X340501295Y-83185000D03*
%TD*%
D12*
%TO.C,SW44*%
X231991225Y-80887040D03*
X218629511Y-85329868D03*
%TD*%
M02*
