%TF.GenerationSoftware,KiCad,Pcbnew,9.0.2*%
%TF.CreationDate,2025-06-19T20:24:16-07:00*%
%TF.ProjectId,toro-pcb,746f726f-2d70-4636-922e-6b696361645f,rev?*%
%TF.SameCoordinates,Original*%
%TF.FileFunction,Copper,L1,Top*%
%TF.FilePolarity,Positive*%
%FSLAX46Y46*%
G04 Gerber Fmt 4.6, Leading zero omitted, Abs format (unit mm)*
G04 Created by KiCad (PCBNEW 9.0.2) date 2025-06-19 20:24:16*
%MOMM*%
%LPD*%
G01*
G04 APERTURE LIST*
G04 Aperture macros list*
%AMHorizOval*
0 Thick line with rounded ends*
0 $1 width*
0 $2 $3 position (X,Y) of the first rounded end (center of the circle)*
0 $4 $5 position (X,Y) of the second rounded end (center of the circle)*
0 Add line between two ends*
20,1,$1,$2,$3,$4,$5,0*
0 Add two circle primitives to create the rounded ends*
1,1,$1,$2,$3*
1,1,$1,$4,$5*%
%AMRotRect*
0 Rectangle, with rotation*
0 The origin of the aperture is its center*
0 $1 length*
0 $2 width*
0 $3 Rotation angle, in degrees counterclockwise*
0 Add horizontal line*
21,1,$1,$2,0,0,$3*%
G04 Aperture macros list end*
%TA.AperFunction,ComponentPad*%
%ADD10R,2.000000X2.000000*%
%TD*%
%TA.AperFunction,ComponentPad*%
%ADD11C,2.000000*%
%TD*%
%TA.AperFunction,ComponentPad*%
%ADD12R,3.000000X2.500000*%
%TD*%
%TA.AperFunction,ComponentPad*%
%ADD13R,1.600000X1.600000*%
%TD*%
%TA.AperFunction,ComponentPad*%
%ADD14O,1.600000X1.600000*%
%TD*%
%TA.AperFunction,ComponentPad*%
%ADD15RotRect,1.600000X1.600000X98.000000*%
%TD*%
%TA.AperFunction,ComponentPad*%
%ADD16HorizOval,1.600000X0.000000X0.000000X0.000000X0.000000X0*%
%TD*%
%TA.AperFunction,ComponentPad*%
%ADD17RotRect,1.600000X1.600000X82.000000*%
%TD*%
%TA.AperFunction,ComponentPad*%
%ADD18HorizOval,1.600000X0.000000X0.000000X0.000000X0.000000X0*%
%TD*%
%TA.AperFunction,ComponentPad*%
%ADD19O,1.700000X1.700000*%
%TD*%
%TA.AperFunction,ComponentPad*%
%ADD20R,1.700000X1.700000*%
%TD*%
%TA.AperFunction,ViaPad*%
%ADD21C,0.600000*%
%TD*%
%TA.AperFunction,ViaPad*%
%ADD22C,0.300000*%
%TD*%
%TA.AperFunction,Conductor*%
%ADD23C,0.200000*%
%TD*%
G04 APERTURE END LIST*
D10*
%TO.P,SW2,A,A*%
%TO.N,ENC_A*%
X340481295Y-61550000D03*
D11*
%TO.P,SW2,B,B*%
%TO.N,ENC_B*%
X340481295Y-66550000D03*
%TO.P,SW2,C,C*%
%TO.N,GND*%
X340481295Y-64050000D03*
D12*
%TO.P,SW2,MP*%
%TO.N,N/C*%
X347981295Y-58450000D03*
X347981295Y-69650000D03*
D11*
%TO.P,SW2,S1,S1*%
%TO.N,ENC_S1*%
X354981295Y-61550000D03*
%TO.P,SW2,S2,S2*%
%TO.N,GND*%
X354981295Y-66550000D03*
%TD*%
D13*
%TO.P,D36,1,K*%
%TO.N,Row 0*%
X282852811Y-68918750D03*
D14*
%TO.P,D36,2,A*%
%TO.N,Net-(D36-A)*%
X282852811Y-61298750D03*
%TD*%
D15*
%TO.P,D53,1,K*%
%TO.N,Row 3*%
X221031400Y-128323610D03*
D16*
%TO.P,D53,2,A*%
%TO.N,Net-(D53-A)*%
X219970901Y-120777767D03*
%TD*%
D13*
%TO.P,D65,1,K*%
%TO.N,Row 3*%
X356873795Y-126810000D03*
D14*
%TO.P,D65,2,A*%
%TO.N,Net-(D65-A)*%
X356873795Y-119190000D03*
%TD*%
D13*
%TO.P,D15,1,K*%
%TO.N,Row 2*%
X45755000Y-106835000D03*
D14*
%TO.P,D15,2,A*%
%TO.N,Net-(D15-A)*%
X45755000Y-99215000D03*
%TD*%
D17*
%TO.P,D17,1,K*%
%TO.N,Row 2*%
X92330953Y-109322846D03*
D18*
%TO.P,D17,2,A*%
%TO.N,Net-(D17-A)*%
X93391452Y-101777003D03*
%TD*%
D17*
%TO.P,D26,1,K*%
%TO.N,Row 3*%
X156349936Y-137394913D03*
D18*
%TO.P,D26,2,A*%
%TO.N,Net-(D26-A)*%
X157410435Y-129849070D03*
%TD*%
D17*
%TO.P,D8,1,K*%
%TO.N,Row 0*%
X158318107Y-80902337D03*
D18*
%TO.P,D8,2,A*%
%TO.N,Net-(D8-A)*%
X159378607Y-73356494D03*
%TD*%
D15*
%TO.P,D28,1,K*%
%TO.N,Row 0*%
X186798657Y-75519293D03*
D16*
%TO.P,D28,2,A*%
%TO.N,Net-(D28-A)*%
X185738158Y-67973450D03*
%TD*%
D17*
%TO.P,D11,1,K*%
%TO.N,Row 1*%
X88550731Y-89236489D03*
D18*
%TO.P,D11,2,A*%
%TO.N,Net-(D11-A)*%
X89611230Y-81690646D03*
%TD*%
D13*
%TO.P,D68,1,K*%
%TO.N,Row 1*%
X294352811Y-87882500D03*
D14*
%TO.P,D68,2,A*%
%TO.N,Net-(D68-A)*%
X294352811Y-80262500D03*
%TD*%
D15*
%TO.P,D40,1,K*%
%TO.N,Row 1*%
X197715292Y-92833590D03*
D16*
%TO.P,D40,2,A*%
%TO.N,Net-(D40-A)*%
X196654793Y-85287747D03*
%TD*%
D15*
%TO.P,D38,1,K*%
%TO.N,Row 1*%
X178935688Y-95888940D03*
D16*
%TO.P,D38,2,A*%
%TO.N,Net-(D38-A)*%
X177875189Y-88343097D03*
%TD*%
D17*
%TO.P,D5,1,K*%
%TO.N,Row 0*%
X101734420Y-71272922D03*
D18*
%TO.P,D5,2,A*%
%TO.N,Net-(D5-A)*%
X102794919Y-63727079D03*
%TD*%
D13*
%TO.P,D69,1,K*%
%TO.N,Row 2*%
X281110311Y-106825000D03*
D14*
%TO.P,D69,2,A*%
%TO.N,Net-(D69-A)*%
X281110311Y-99205000D03*
%TD*%
D13*
%TO.P,D22,1,K*%
%TO.N,Row 3*%
X79738750Y-125981250D03*
D14*
%TO.P,D22,2,A*%
%TO.N,Net-(D22-A)*%
X79738750Y-118361250D03*
%TD*%
D13*
%TO.P,D70,1,K*%
%TO.N,Row 3*%
X279030311Y-125825000D03*
D14*
%TO.P,D70,2,A*%
%TO.N,Net-(D70-A)*%
X279030311Y-118205000D03*
%TD*%
D15*
%TO.P,D51,1,K*%
%TO.N,Row 3*%
X183403649Y-133629518D03*
D16*
%TO.P,D51,2,A*%
%TO.N,Net-(D51-A)*%
X182343150Y-126083675D03*
%TD*%
D13*
%TO.P,D48,1,K*%
%TO.N,Row 1*%
X275352811Y-87750000D03*
D14*
%TO.P,D48,2,A*%
%TO.N,Net-(D48-A)*%
X275352811Y-80130000D03*
%TD*%
D15*
%TO.P,D33,1,K*%
%TO.N,Row 0*%
X224387299Y-69997981D03*
D16*
%TO.P,D33,2,A*%
%TO.N,Net-(D33-A)*%
X223326800Y-62452138D03*
%TD*%
D15*
%TO.P,D54,1,K*%
%TO.N,Row 3*%
X239824944Y-125462595D03*
D16*
%TO.P,D54,2,A*%
%TO.N,Net-(D54-A)*%
X238764445Y-117916752D03*
%TD*%
D17*
%TO.P,D6,1,K*%
%TO.N,Row 0*%
X120500000Y-73910252D03*
D18*
%TO.P,D6,2,A*%
%TO.N,Net-(D6-A)*%
X121560499Y-66364409D03*
%TD*%
D19*
%TO.P,U1,1,GPIO0*%
%TO.N,Row 0*%
X26360000Y-36850000D03*
%TO.P,U1,2,GPIO1*%
%TO.N,Row 1*%
X28900000Y-36850000D03*
D20*
%TO.P,U1,3,GND*%
%TO.N,unconnected-(U1-GND-Pad3)*%
X31440000Y-36850000D03*
D19*
%TO.P,U1,4,GPIO2*%
%TO.N,Row 2*%
X33980000Y-36850000D03*
%TO.P,U1,5,GPIO3*%
%TO.N,Row 3*%
X36520000Y-36850000D03*
%TO.P,U1,6,GPIO4*%
%TO.N,Row 4*%
X39060000Y-36850000D03*
%TO.P,U1,7,GPIO5*%
%TO.N,Col 0*%
X41600000Y-36850000D03*
D20*
%TO.P,U1,8,GND*%
%TO.N,unconnected-(U1-GND-Pad8)*%
X44140000Y-36850000D03*
D19*
%TO.P,U1,9,GPIO6*%
%TO.N,Col 1*%
X46680000Y-36850000D03*
%TO.P,U1,10,GPIO7*%
%TO.N,Col 2*%
X49220000Y-36850000D03*
%TO.P,U1,11,GPIO8*%
%TO.N,Col 3*%
X51760000Y-36850000D03*
%TO.P,U1,12,GPIO9*%
%TO.N,Col 4*%
X54300000Y-36850000D03*
D20*
%TO.P,U1,13,GND*%
%TO.N,unconnected-(U1-GND-Pad13)*%
X56840000Y-36850000D03*
D19*
%TO.P,U1,14,GPIO10*%
%TO.N,Col 5*%
X59380000Y-36850000D03*
%TO.P,U1,15,GPIO11*%
%TO.N,Col 6*%
X61920000Y-36850000D03*
%TO.P,U1,16,GPIO12*%
%TO.N,Col 7*%
X64460000Y-36850000D03*
%TO.P,U1,17,GPIO13*%
%TO.N,Col 8*%
X67000000Y-36850000D03*
D20*
%TO.P,U1,18,GND*%
%TO.N,unconnected-(U1-GND-Pad18)*%
X69540000Y-36850000D03*
D19*
%TO.P,U1,19,GPIO14*%
%TO.N,Col 10*%
X72080000Y-36850000D03*
%TO.P,U1,20,GPIO15*%
%TO.N,Col 9*%
X74620000Y-36850000D03*
%TO.P,U1,21,GPIO16*%
%TO.N,Col 11*%
X74620000Y-54630000D03*
%TO.P,U1,22,GPIO17*%
%TO.N,Col 12*%
X72080000Y-54630000D03*
D20*
%TO.P,U1,23,GND*%
%TO.N,unconnected-(U1-GND-Pad23)*%
X69540000Y-54630000D03*
D19*
%TO.P,U1,24,GPIO18*%
%TO.N,Col 13*%
X67000000Y-54630000D03*
%TO.P,U1,25,GPIO19*%
%TO.N,Col 14*%
X64460000Y-54630000D03*
%TO.P,U1,26,GPIO20*%
%TO.N,Col 15*%
X61920000Y-54630000D03*
%TO.P,U1,27,GPIO21*%
%TO.N,Col 16*%
X59380000Y-54630000D03*
D20*
%TO.P,U1,28,GND*%
%TO.N,unconnected-(U1-GND-Pad28)*%
X56840000Y-54630000D03*
D19*
%TO.P,U1,29,GPIO22*%
%TO.N,ENC_A*%
X54300000Y-54630000D03*
%TO.P,U1,30,RUN*%
%TO.N,unconnected-(U1-RUN-Pad30)*%
X51760000Y-54630000D03*
%TO.P,U1,31,GPIO26_ADC0*%
%TO.N,ENC_B*%
X49220000Y-54630000D03*
%TO.P,U1,32,GPIO27_ADC1*%
%TO.N,ENC_S1*%
X46680000Y-54630000D03*
D20*
%TO.P,U1,33,AGND*%
%TO.N,unconnected-(U1-AGND-Pad33)*%
X44140000Y-54630000D03*
D19*
%TO.P,U1,34,GPIO28_ADC2*%
%TO.N,LEDS*%
X41600000Y-54630000D03*
%TO.P,U1,35,ADC_VREF*%
%TO.N,unconnected-(U1-ADC_VREF-Pad35)*%
X39060000Y-54630000D03*
%TO.P,U1,36,3V3*%
%TO.N,unconnected-(U1-3V3-Pad36)*%
X36520000Y-54630000D03*
%TO.P,U1,37,3V3_EN*%
%TO.N,unconnected-(U1-3V3_EN-Pad37)*%
X33980000Y-54630000D03*
D20*
%TO.P,U1,38,GND*%
%TO.N,unconnected-(U1-GND-Pad38)*%
X31440000Y-54630000D03*
D19*
%TO.P,U1,39,VSYS*%
%TO.N,unconnected-(U1-VSYS-Pad39)*%
X28900000Y-54630000D03*
%TO.P,U1,40,VBUS*%
%TO.N,unconnected-(U1-VBUS-Pad40)*%
X26360000Y-54630000D03*
%TO.P,U1,41,SWCLK*%
%TO.N,unconnected-(U1-SWCLK-Pad41)*%
X74390000Y-43200000D03*
D20*
%TO.P,U1,42,GND*%
%TO.N,unconnected-(U1-GND-Pad42)*%
X74390000Y-45740000D03*
D19*
%TO.P,U1,43,SWDIO*%
%TO.N,unconnected-(U1-SWDIO-Pad43)*%
X74390000Y-48280000D03*
%TD*%
D13*
%TO.P,D10,1,K*%
%TO.N,Row 1*%
X68540000Y-88101250D03*
D14*
%TO.P,D10,2,A*%
%TO.N,Net-(D10-A)*%
X68540000Y-80481250D03*
%TD*%
D13*
%TO.P,D2,1,K*%
%TO.N,Row 0*%
X43235000Y-68847500D03*
D14*
%TO.P,D2,2,A*%
%TO.N,Net-(D2-A)*%
X43235000Y-61227500D03*
%TD*%
D13*
%TO.P,D73,1,K*%
%TO.N,Row 2*%
X311987811Y-106810000D03*
D14*
%TO.P,D73,2,A*%
%TO.N,Net-(D73-A)*%
X311987811Y-99190000D03*
%TD*%
D13*
%TO.P,D9,1,K*%
%TO.N,Row 1*%
X44596250Y-88101250D03*
D14*
%TO.P,D9,2,A*%
%TO.N,Net-(D9-A)*%
X44596250Y-80481250D03*
%TD*%
D13*
%TO.P,D4,1,K*%
%TO.N,Row 0*%
X81235000Y-67616250D03*
D14*
%TO.P,D4,2,A*%
%TO.N,Net-(D4-A)*%
X81235000Y-59996250D03*
%TD*%
D15*
%TO.P,D57,1,K*%
%TO.N,Row 4*%
X243660221Y-144500000D03*
D16*
%TO.P,D57,2,A*%
%TO.N,Net-(D57-A)*%
X242599722Y-136954157D03*
%TD*%
D13*
%TO.P,D64,1,K*%
%TO.N,Row 2*%
X356873795Y-109083750D03*
D14*
%TO.P,D64,2,A*%
%TO.N,Net-(D64-A)*%
X356873795Y-101463750D03*
%TD*%
D13*
%TO.P,D35,1,K*%
%TO.N,Row 0*%
X263569061Y-68250000D03*
D14*
%TO.P,D35,2,A*%
%TO.N,Net-(D35-A)*%
X263569061Y-60630000D03*
%TD*%
D15*
%TO.P,D45,1,K*%
%TO.N,Row 2*%
X222471748Y-108813760D03*
D16*
%TO.P,D45,2,A*%
%TO.N,Net-(D45-A)*%
X221411249Y-101267917D03*
%TD*%
D13*
%TO.P,D58,1,K*%
%TO.N,Row 4*%
X269250000Y-145060000D03*
D14*
%TO.P,D58,2,A*%
%TO.N,Net-(D58-A)*%
X269250000Y-137440000D03*
%TD*%
D13*
%TO.P,D74,1,K*%
%TO.N,Row 3*%
X305374061Y-125817500D03*
D14*
%TO.P,D74,2,A*%
%TO.N,Net-(D74-A)*%
X305374061Y-118197500D03*
%TD*%
D17*
%TO.P,D19,1,K*%
%TO.N,Row 2*%
X130464947Y-114064140D03*
D18*
%TO.P,D19,2,A*%
%TO.N,Net-(D19-A)*%
X131525446Y-106518297D03*
%TD*%
D13*
%TO.P,D32,1,K*%
%TO.N,Row 2*%
X72030000Y-107010000D03*
D14*
%TO.P,D32,2,A*%
%TO.N,Net-(D16-A)*%
X72030000Y-99390000D03*
%TD*%
D13*
%TO.P,D21,1,K*%
%TO.N,Row 3*%
X48811250Y-125981250D03*
D14*
%TO.P,D21,2,A*%
%TO.N,Net-(D21-A)*%
X48811250Y-118361250D03*
%TD*%
D15*
%TO.P,D52,1,K*%
%TO.N,Row 3*%
X202201693Y-130863921D03*
D16*
%TO.P,D52,2,A*%
%TO.N,Net-(D52-A)*%
X201141194Y-123318078D03*
%TD*%
D15*
%TO.P,D34,1,K*%
%TO.N,Row 0*%
X243560499Y-67795843D03*
D16*
%TO.P,D34,2,A*%
%TO.N,Net-(D34-A)*%
X242500000Y-60250000D03*
%TD*%
D17*
%TO.P,D18,1,K*%
%TO.N,Row 2*%
X111483062Y-111456999D03*
D18*
%TO.P,D18,2,A*%
%TO.N,Net-(D18-A)*%
X112543561Y-103911156D03*
%TD*%
D15*
%TO.P,D47,1,K*%
%TO.N,Row 2*%
X241369967Y-105711472D03*
D16*
%TO.P,D47,2,A*%
%TO.N,Net-(D47-A)*%
X240309468Y-98165629D03*
%TD*%
D15*
%TO.P,D56,1,K*%
%TO.N,Row 4*%
X202897673Y-150300850D03*
D16*
%TO.P,D56,2,A*%
%TO.N,Net-(D56-A)*%
X201837174Y-142755007D03*
%TD*%
D13*
%TO.P,D49,1,K*%
%TO.N,Row 2*%
X262106985Y-107302037D03*
D14*
%TO.P,D49,2,A*%
%TO.N,Net-(D49-A)*%
X262106985Y-99682037D03*
%TD*%
D17*
%TO.P,D24,1,K*%
%TO.N,Row 3*%
X118719751Y-132106336D03*
D18*
%TO.P,D24,2,A*%
%TO.N,Net-(D24-A)*%
X119780250Y-124560493D03*
%TD*%
D13*
%TO.P,D37,1,K*%
%TO.N,Row 0*%
X311212811Y-68918750D03*
D14*
%TO.P,D37,2,A*%
%TO.N,Net-(D37-A)*%
X311212811Y-61298750D03*
%TD*%
D17*
%TO.P,D23,1,K*%
%TO.N,Row 3*%
X99788301Y-129445694D03*
D18*
%TO.P,D23,2,A*%
%TO.N,Net-(D23-A)*%
X100848800Y-121899851D03*
%TD*%
D13*
%TO.P,D63,1,K*%
%TO.N,Row 1*%
X356873795Y-90283750D03*
D14*
%TO.P,D63,2,A*%
%TO.N,Net-(D63-A)*%
X356873795Y-82663750D03*
%TD*%
D13*
%TO.P,D61,1,K*%
%TO.N,Row 4*%
X353750000Y-148810000D03*
D14*
%TO.P,D61,2,A*%
%TO.N,Net-(D61-A)*%
X353750000Y-141190000D03*
%TD*%
D13*
%TO.P,D59,1,K*%
%TO.N,Row 4*%
X315615939Y-148515000D03*
D14*
%TO.P,D59,2,A*%
%TO.N,Net-(D59-A)*%
X315615939Y-140895000D03*
%TD*%
D13*
%TO.P,D62,1,K*%
%TO.N,Row 3*%
X334750000Y-130560000D03*
D14*
%TO.P,D62,2,A*%
%TO.N,Net-(D62-A)*%
X334750000Y-122940000D03*
%TD*%
D15*
%TO.P,D43,1,K*%
%TO.N,Row 2*%
X203349832Y-111430482D03*
D16*
%TO.P,D43,2,A*%
%TO.N,Net-(D43-A)*%
X202289333Y-103884639D03*
%TD*%
D17*
%TO.P,D13,1,K*%
%TO.N,Row 1*%
X126173985Y-94524409D03*
D18*
%TO.P,D13,2,A*%
%TO.N,Net-(D13-A)*%
X127234484Y-86978566D03*
%TD*%
D17*
%TO.P,D32,1,K*%
%TO.N,Row 4*%
X148265270Y-155365466D03*
D18*
%TO.P,D32,2,A*%
%TO.N,Net-(D32-A)*%
X149325769Y-147819623D03*
%TD*%
D13*
%TO.P,D55,1,K*%
%TO.N,Row 3*%
X259825000Y-125067500D03*
D14*
%TO.P,D55,2,A*%
%TO.N,Net-(D55-A)*%
X259825000Y-117447500D03*
%TD*%
D17*
%TO.P,D12,1,K*%
%TO.N,Row 1*%
X107358890Y-91880121D03*
D18*
%TO.P,D12,2,A*%
%TO.N,Net-(D12-A)*%
X108419389Y-84334278D03*
%TD*%
D17*
%TO.P,D30,1,K*%
%TO.N,Row 4*%
X94009966Y-147927199D03*
D18*
%TO.P,D30,2,A*%
%TO.N,Net-(D30-A)*%
X95070465Y-140381356D03*
%TD*%
D17*
%TO.P,D14,1,K*%
%TO.N,Row 1*%
X145105435Y-97185052D03*
D18*
%TO.P,D14,2,A*%
%TO.N,Net-(D14-A)*%
X146165934Y-89639209D03*
%TD*%
D13*
%TO.P,D46,1,K*%
%TO.N,Row 1*%
X256162811Y-87643965D03*
D14*
%TO.P,D46,2,A*%
%TO.N,Net-(D46-A)*%
X256162811Y-80023965D03*
%TD*%
D13*
%TO.P,D72,1,K*%
%TO.N,Row 1*%
X318372811Y-87947500D03*
D14*
%TO.P,D72,2,A*%
%TO.N,Net-(D72-A)*%
X318372811Y-80327500D03*
%TD*%
D17*
%TO.P,D20,1,K*%
%TO.N,Row 2*%
X149302322Y-116711560D03*
D18*
%TO.P,D20,2,A*%
%TO.N,Net-(D20-A)*%
X150362821Y-109165717D03*
%TD*%
D13*
%TO.P,D3,1,K*%
%TO.N,Row 0*%
X62235000Y-68791250D03*
D14*
%TO.P,D3,2,A*%
%TO.N,Net-(D3-A)*%
X62235000Y-61171250D03*
%TD*%
D13*
%TO.P,D60,1,K*%
%TO.N,Row 4*%
X334617500Y-148828750D03*
D14*
%TO.P,D60,2,A*%
%TO.N,Net-(D60-A)*%
X334617500Y-141208750D03*
%TD*%
D17*
%TO.P,D7,1,K*%
%TO.N,Row 0*%
X139385395Y-76611515D03*
D18*
%TO.P,D7,2,A*%
%TO.N,Net-(D7-A)*%
X140445894Y-69065672D03*
%TD*%
D15*
%TO.P,D44,1,K*%
%TO.N,Row 1*%
X235616859Y-87688641D03*
D16*
%TO.P,D44,2,A*%
%TO.N,Net-(D44-A)*%
X234556360Y-80142798D03*
%TD*%
D15*
%TO.P,D29,1,K*%
%TO.N,Row 0*%
X205627875Y-73038378D03*
D16*
%TO.P,D29,2,A*%
%TO.N,Net-(D29-A)*%
X204567376Y-65492535D03*
%TD*%
D17*
%TO.P,D25,1,K*%
%TO.N,Row 3*%
X137534843Y-134750625D03*
D18*
%TO.P,D25,2,A*%
%TO.N,Net-(D25-A)*%
X138595342Y-127204782D03*
%TD*%
D15*
%TO.P,D42,1,K*%
%TO.N,Row 1*%
X216565874Y-90441819D03*
D16*
%TO.P,D42,2,A*%
%TO.N,Net-(D42-A)*%
X215505375Y-82895976D03*
%TD*%
D13*
%TO.P,D27,1,K*%
%TO.N,Row 4*%
X41735000Y-144935000D03*
D14*
%TO.P,D27,2,A*%
%TO.N,Net-(D27-A)*%
X41735000Y-137315000D03*
%TD*%
D17*
%TO.P,D31,1,K*%
%TO.N,Row 4*%
X117729116Y-151073890D03*
D18*
%TO.P,D31,2,A*%
%TO.N,Net-(D31-A)*%
X118789615Y-143528047D03*
%TD*%
D15*
%TO.P,D41,1,K*%
%TO.N,Row 2*%
X184534739Y-114074771D03*
D16*
%TO.P,D41,2,A*%
%TO.N,Net-(D41-A)*%
X183474240Y-106528928D03*
%TD*%
D21*
%TO.N,Col 0*%
X46250000Y-118750000D03*
X39250000Y-137750000D03*
X40500000Y-61500000D03*
X43250000Y-99750000D03*
X42000000Y-80750000D03*
D22*
%TO.N,ENC_A*%
X58000000Y-50880000D03*
%TO.N,ENC_S1*%
X47500000Y-53380000D03*
%TO.N,ENC_B*%
X50000000Y-53380000D03*
D21*
%TO.N,Col 1*%
X66000000Y-80500000D03*
X59750000Y-61500000D03*
X69250000Y-99750000D03*
X77250000Y-118750000D03*
D22*
%TO.N,Col 2*%
X90500000Y-101250000D03*
X98500000Y-122000000D03*
D21*
X78750000Y-60500000D03*
D22*
X87000000Y-81500000D03*
%TO.N,Col 3*%
X117250000Y-124500000D03*
X100140606Y-63725150D03*
X100140606Y-63725150D03*
X105935785Y-84150590D03*
X92384088Y-140427938D03*
X110000000Y-104000000D03*
%TO.N,Col 4*%
X124750000Y-86750000D03*
X136250000Y-127250000D03*
X128750000Y-106750000D03*
X119005212Y-66376399D03*
X116000000Y-143750000D03*
D21*
%TO.N,Col 5*%
X143664997Y-89095886D03*
D22*
X146500000Y-148000000D03*
D21*
X154962554Y-129836645D03*
X138049830Y-69009895D03*
X147559924Y-108991749D03*
D22*
%TO.N,Col 6*%
X181000000Y-107750000D03*
X199250000Y-143500000D03*
D21*
X175439331Y-88919140D03*
D22*
X156750000Y-71723698D03*
D21*
X179682850Y-126899485D03*
D22*
%TO.N,Col 7*%
X198500000Y-124250000D03*
X183250000Y-68750000D03*
X240081225Y-137828413D03*
X194250000Y-86250000D03*
D21*
X199561084Y-104717457D03*
D22*
%TO.N,Col 8*%
X213137055Y-83612558D03*
X202042574Y-66146535D03*
X217250000Y-121750000D03*
X218750000Y-102250000D03*
X266250000Y-137500000D03*
%TO.N,Col 9*%
X236302349Y-119035413D03*
X232000000Y-81000000D03*
X220907181Y-63495287D03*
X237521787Y-99498545D03*
D21*
%TO.N,Col 10*%
X257472189Y-118000000D03*
D22*
X239771787Y-60844040D03*
D21*
X259410465Y-99324979D03*
D22*
X253500000Y-80000000D03*
D21*
%TO.N,Col 11*%
X272750000Y-80500000D03*
X276500000Y-118750000D03*
X278500000Y-99750000D03*
D22*
X261127811Y-61616100D03*
X76000000Y-54130000D03*
D21*
%TO.N,Col 12*%
X280250000Y-61500000D03*
X291500000Y-80500000D03*
D22*
X73000000Y-53630000D03*
D21*
X309250000Y-99750000D03*
X302750000Y-118750000D03*
D22*
%TO.N,Col 13*%
X68000000Y-53380000D03*
D21*
X315750000Y-80500000D03*
X308750000Y-61750000D03*
D22*
%TO.N,Col 14*%
X65250000Y-53380000D03*
D21*
X313115939Y-141560000D03*
D22*
%TO.N,Col 15*%
X332115939Y-122560000D03*
X332115939Y-122560000D03*
D21*
X332115939Y-141560000D03*
D22*
X62750000Y-53380000D03*
%TO.N,Col 16*%
X354458484Y-99750000D03*
X60250000Y-53380000D03*
X354458484Y-118750000D03*
D21*
X354351295Y-80645000D03*
D22*
X351000000Y-141500000D03*
%TD*%
D23*
%TO.N,Net-(D45-A)*%
X221127308Y-101127308D02*
X221000000Y-101000000D01*
%TO.N,Col 0*%
X43884100Y-121115900D02*
X43884100Y-133115900D01*
X46250000Y-118750000D02*
X44655000Y-117155000D01*
X44655000Y-101155000D02*
X43250000Y-99750000D01*
X44655000Y-117155000D02*
X44655000Y-101155000D01*
X43250000Y-82000000D02*
X42000000Y-80750000D01*
X40500000Y-65500000D02*
X40500000Y-61500000D01*
X46250000Y-118750000D02*
X43884100Y-121115900D01*
X42000000Y-80750000D02*
X42000000Y-67000000D01*
X43250000Y-99750000D02*
X43250000Y-82000000D01*
X42000000Y-67000000D02*
X40500000Y-65500000D01*
X43884100Y-133115900D02*
X39250000Y-137750000D01*
%TO.N,ENC_A*%
X329811295Y-50880000D02*
X329250000Y-50880000D01*
X340481295Y-61550000D02*
X329811295Y-50880000D01*
X329811294Y-50880000D02*
X58000000Y-50880000D01*
%TO.N,ENC_S1*%
X341781295Y-60250000D02*
X331961295Y-50430000D01*
X46680000Y-54200000D02*
X46750000Y-54130000D01*
X341781295Y-61550000D02*
X341781295Y-60250000D01*
X354981295Y-61550000D02*
X341781295Y-61550000D01*
X331961295Y-50430000D02*
X331500000Y-50430000D01*
X331961294Y-50430000D02*
X50450000Y-50430000D01*
X50450000Y-50430000D02*
X47500000Y-53380000D01*
%TO.N,ENC_B*%
X325361295Y-51430000D02*
X319335686Y-51430000D01*
X51950000Y-51430000D02*
X50000000Y-53380000D01*
X319335686Y-51430000D02*
X51950000Y-51430000D01*
X340481295Y-66550000D02*
X325361295Y-51430000D01*
%TO.N,Col 1*%
X61135000Y-62885000D02*
X59750000Y-61500000D01*
X65970900Y-80529100D02*
X66000000Y-80500000D01*
X69250000Y-99750000D02*
X65970900Y-96470900D01*
X70930000Y-101430000D02*
X69250000Y-99750000D01*
X65970900Y-96470900D02*
X65970900Y-80529100D01*
X77250000Y-118750000D02*
X70930000Y-112430000D01*
X61135000Y-75635000D02*
X61135000Y-62885000D01*
X70930000Y-112430000D02*
X70930000Y-101430000D01*
X66000000Y-80500000D02*
X61135000Y-75635000D01*
%TO.N,Col 2*%
X87000000Y-81500000D02*
X87000000Y-97750000D01*
X90500000Y-101250000D02*
X90500000Y-114000000D01*
X87000000Y-97750000D02*
X90500000Y-101250000D01*
X78750000Y-73250000D02*
X87000000Y-81500000D01*
X78750000Y-60500000D02*
X78750000Y-73250000D01*
X90500000Y-114000000D02*
X98500000Y-122000000D01*
%TO.N,Col 3*%
X110250000Y-104250000D02*
X110000000Y-104000000D01*
X105935785Y-84064215D02*
X105935785Y-84150590D01*
X106522804Y-129243900D02*
X109843766Y-125922938D01*
X115827062Y-125922938D02*
X117250000Y-124500000D01*
X109843766Y-125922938D02*
X115827062Y-125922938D01*
X105935785Y-84150590D02*
X105935785Y-73465593D01*
X92384088Y-140427938D02*
X103568126Y-129243900D01*
X117250000Y-124500000D02*
X110250000Y-117500000D01*
X110000000Y-104000000D02*
X110000000Y-88000000D01*
X103568126Y-129243900D02*
X106522804Y-129243900D01*
X100000000Y-67529808D02*
X100000000Y-63865756D01*
X105935785Y-73465593D02*
X100000000Y-67529808D01*
X110250000Y-117500000D02*
X110250000Y-104250000D01*
X100000000Y-63865756D02*
X100140606Y-63725150D01*
X106000000Y-84000000D02*
X105935785Y-84064215D01*
X110000000Y-88000000D02*
X106000000Y-84000000D01*
%TO.N,Col 4*%
X116000000Y-143750000D02*
X126004853Y-133745147D01*
X124750000Y-102750000D02*
X128750000Y-106750000D01*
X124750000Y-86750000D02*
X124750000Y-102750000D01*
X128750000Y-106750000D02*
X128750000Y-120250000D01*
X130166959Y-133745147D02*
X136250000Y-127662106D01*
X119005212Y-66376399D02*
X119005212Y-81005212D01*
X135750000Y-127250000D02*
X136250000Y-127250000D01*
X119005212Y-81005212D02*
X124750000Y-86750000D01*
X128750000Y-120250000D02*
X135750000Y-127250000D01*
X136250000Y-127662106D02*
X136250000Y-127250000D01*
X126004853Y-133745147D02*
X130166959Y-133745147D01*
%TO.N,Col 5*%
X147559924Y-108991749D02*
X147559924Y-92588834D01*
X154962554Y-129836645D02*
X147559924Y-122434015D01*
X146500000Y-148000000D02*
X146500000Y-145236155D01*
X144066976Y-89095886D02*
X143664997Y-89095886D01*
X138049830Y-73049830D02*
X138049830Y-69009895D01*
X146500000Y-145236155D02*
X154962554Y-136773601D01*
X143664997Y-78664997D02*
X138049830Y-73049830D01*
X147559924Y-92588834D02*
X144066976Y-89095886D01*
X147559924Y-122434015D02*
X147559924Y-108991749D01*
X154962554Y-136773601D02*
X154962554Y-129836645D01*
X143664997Y-89095886D02*
X143664997Y-78664997D01*
%TO.N,Col 6*%
X179682850Y-126899485D02*
X185250000Y-132466635D01*
X185250000Y-132466635D02*
X188216635Y-132466635D01*
X175439331Y-88919140D02*
X176117517Y-89597326D01*
X181000000Y-107750000D02*
X181668955Y-108418955D01*
X181668955Y-108418955D02*
X181668955Y-124913380D01*
X188216635Y-132466635D02*
X199250000Y-143500000D01*
X176117517Y-102867517D02*
X181000000Y-107750000D01*
X175439331Y-87861583D02*
X175439331Y-88919140D01*
X181668955Y-124913380D02*
X179682850Y-126899485D01*
X159301446Y-71723698D02*
X175439331Y-87861583D01*
X176117517Y-89597326D02*
X176117517Y-102867517D01*
X156750000Y-71723698D02*
X159301446Y-71723698D01*
%TO.N,Col 7*%
X211250312Y-136500312D02*
X238750312Y-136500312D01*
X194250000Y-79750000D02*
X194250000Y-86250000D01*
X194250000Y-86250000D02*
X199561084Y-91561084D01*
X199500000Y-125250000D02*
X200000000Y-125250000D01*
X199561084Y-104717457D02*
X200502248Y-105658621D01*
X198500000Y-124250000D02*
X199500000Y-125250000D01*
X200502248Y-105658621D02*
X200502248Y-122247752D01*
X240078413Y-137828413D02*
X240081225Y-137828413D01*
X183250000Y-68750000D02*
X194250000Y-79750000D01*
X199561084Y-91561084D02*
X199561084Y-104717457D01*
X200502248Y-122247752D02*
X198500000Y-124250000D01*
X200000000Y-125250000D02*
X211250312Y-136500312D01*
X238750312Y-136500312D02*
X240078413Y-137828413D01*
%TO.N,Col 8*%
X218000000Y-101500000D02*
X218750000Y-102250000D01*
X218000000Y-88475503D02*
X218000000Y-101500000D01*
X217250000Y-122533516D02*
X230570641Y-135854157D01*
X217250000Y-121750000D02*
X217250000Y-122533516D01*
X230570641Y-135854157D02*
X264604157Y-135854157D01*
X264604157Y-135854157D02*
X266250000Y-137500000D01*
X213249613Y-83500000D02*
X213137055Y-83612558D01*
X213137055Y-83612558D02*
X218000000Y-88475503D01*
X213250000Y-83500000D02*
X213249613Y-83500000D01*
X219366855Y-102866855D02*
X219366855Y-119633145D01*
X218750000Y-102250000D02*
X219366855Y-102866855D01*
X213250000Y-77353961D02*
X213250000Y-83500000D01*
X219366855Y-119633145D02*
X217250000Y-121750000D01*
X202042574Y-66146535D02*
X213250000Y-77353961D01*
%TO.N,Col 9*%
X237521787Y-99498545D02*
X238231462Y-100208220D01*
X237500000Y-99500000D02*
X237520332Y-99500000D01*
X237500000Y-86500000D02*
X237500000Y-99500000D01*
X236266936Y-119000000D02*
X236302349Y-119035413D01*
X232000000Y-81000000D02*
X237500000Y-86500000D01*
X238231462Y-116768538D02*
X236250000Y-118750000D01*
X232000000Y-74588106D02*
X232000000Y-81000000D01*
X236250000Y-118750000D02*
X236250000Y-119000000D01*
X237520332Y-99500000D02*
X237521787Y-99498545D01*
X236250000Y-119000000D02*
X236266936Y-119000000D01*
X238231462Y-100208220D02*
X238231462Y-116768538D01*
X220907181Y-63495287D02*
X232000000Y-74588106D01*
%TO.N,Col 10*%
X253500000Y-78750000D02*
X253500000Y-80000000D01*
X239771787Y-60844040D02*
X253500000Y-74572253D01*
X257750000Y-84250000D02*
X257750000Y-97664514D01*
X253500000Y-80000000D02*
X257750000Y-84250000D01*
X253500000Y-79210000D02*
X253480000Y-79230000D01*
X253500000Y-78750000D02*
X253500000Y-79210000D01*
X253500000Y-74572253D02*
X253500000Y-78750000D01*
X257750000Y-97664514D02*
X259410465Y-99324979D01*
X259410465Y-99324979D02*
X259410465Y-116061724D01*
X259410465Y-116061724D02*
X257472189Y-118000000D01*
%TO.N,Col 11*%
X261127811Y-63377811D02*
X261500000Y-63750000D01*
X272750000Y-87347189D02*
X278500000Y-93097189D01*
X261500000Y-69250000D02*
X272750000Y-80500000D01*
X261250000Y-57130000D02*
X258250000Y-54130000D01*
X261500000Y-63750000D02*
X261500000Y-69250000D01*
X278500000Y-116750000D02*
X276500000Y-118750000D01*
X261127811Y-61616100D02*
X261127811Y-63377811D01*
X258435000Y-54315000D02*
X258250000Y-54130000D01*
X272750000Y-80500000D02*
X272750000Y-87347189D01*
X261127811Y-61616100D02*
X261250000Y-61493911D01*
X258250000Y-54130000D02*
X76000000Y-54130000D01*
X278500000Y-99750000D02*
X278500000Y-116750000D01*
X261250000Y-61493911D02*
X261250000Y-57130000D01*
X278500000Y-93097189D02*
X278500000Y-99750000D01*
%TO.N,Col 12*%
X309250000Y-99750000D02*
X291500000Y-82000000D01*
X280168711Y-69168711D02*
X280168711Y-61581289D01*
X76236397Y-53730000D02*
X75986397Y-53480000D01*
X280168711Y-61581289D02*
X280250000Y-61500000D01*
X309250000Y-102016982D02*
X309250000Y-99750000D01*
X258935686Y-54250000D02*
X258415686Y-53730000D01*
X73150000Y-53480000D02*
X73000000Y-53630000D01*
X274250000Y-54250000D02*
X258935686Y-54250000D01*
X302750000Y-118750000D02*
X302750000Y-108516982D01*
X280250000Y-61500000D02*
X280250000Y-59250000D01*
X258415686Y-53730000D02*
X76236397Y-53730000D01*
X75986397Y-53480000D02*
X73150000Y-53480000D01*
X302750000Y-108516982D02*
X309250000Y-102016982D01*
X291500000Y-82000000D02*
X291500000Y-80500000D01*
X275250000Y-54250000D02*
X274250000Y-54250000D01*
X291500000Y-80500000D02*
X280168711Y-69168711D01*
X280250000Y-59250000D02*
X275250000Y-54250000D01*
%TO.N,Col 13*%
X76402082Y-53330000D02*
X76152082Y-53080000D01*
X300330000Y-53330000D02*
X76402082Y-53330000D01*
X308743711Y-61756289D02*
X308750000Y-61750000D01*
X308743711Y-73493711D02*
X308743711Y-61756289D01*
X76152082Y-53080000D02*
X72913603Y-53080000D01*
X308750000Y-61750000D02*
X300330000Y-53330000D01*
X315750000Y-80500000D02*
X308743711Y-73493711D01*
X72613603Y-53380000D02*
X68000000Y-53380000D01*
X72913603Y-53080000D02*
X72613603Y-53380000D01*
%TO.N,Col 14*%
X319472811Y-66844775D02*
X319472811Y-135203128D01*
X76317767Y-52680000D02*
X76567767Y-52930000D01*
X305558036Y-52930000D02*
X319472811Y-66844775D01*
X65950000Y-52680000D02*
X76317767Y-52680000D01*
X76567767Y-52930000D02*
X305558036Y-52930000D01*
X319472811Y-135203128D02*
X313115939Y-141560000D01*
X65250000Y-53380000D02*
X65950000Y-52680000D01*
%TO.N,Col 15*%
X63880000Y-52250000D02*
X62750000Y-53380000D01*
X311507586Y-52250000D02*
X63880000Y-52250000D01*
X311507586Y-52250000D02*
X306000000Y-52250000D01*
X316706711Y-63470611D02*
X316706711Y-57449125D01*
X311628793Y-52371207D02*
X311507586Y-52250000D01*
X332115939Y-122560000D02*
X332115939Y-78879839D01*
X332115939Y-78879839D02*
X316706711Y-63470611D01*
X316706711Y-57449125D02*
X311507586Y-52250000D01*
X332115939Y-141560000D02*
X332115939Y-122560000D01*
%TO.N,Col 16*%
X319670000Y-52330000D02*
X319170000Y-51830000D01*
X352500000Y-140000000D02*
X351000000Y-141500000D01*
X352500000Y-126519482D02*
X354458484Y-124560998D01*
X354458484Y-122750000D02*
X354458484Y-118750000D01*
X354458484Y-123269482D02*
X354458484Y-122750000D01*
X354458484Y-99750000D02*
X354458484Y-80752189D01*
X354351295Y-80645000D02*
X352501295Y-82495000D01*
X319170000Y-51830000D02*
X318750000Y-51830000D01*
X352501295Y-82495000D02*
X349835000Y-82495000D01*
X349835000Y-82495000D02*
X319170000Y-51830000D01*
X354458484Y-80752189D02*
X354351295Y-80645000D01*
X352500000Y-126519482D02*
X352500000Y-140000000D01*
X319170000Y-51830000D02*
X61800000Y-51830000D01*
X354458484Y-124560998D02*
X354458484Y-122750000D01*
X61800000Y-51830000D02*
X60250000Y-53380000D01*
X354458484Y-118750000D02*
X354458484Y-99750000D01*
%TD*%
M02*
