%TF.GenerationSoftware,KiCad,Pcbnew,9.0.2*%
%TF.CreationDate,2025-06-19T20:24:17-07:00*%
%TF.ProjectId,toro-pcb,746f726f-2d70-4636-922e-6b696361645f,rev?*%
%TF.SameCoordinates,Original*%
%TF.FileFunction,Soldermask,Top*%
%TF.FilePolarity,Negative*%
%FSLAX46Y46*%
G04 Gerber Fmt 4.6, Leading zero omitted, Abs format (unit mm)*
G04 Created by KiCad (PCBNEW 9.0.2) date 2025-06-19 20:24:17*
%MOMM*%
%LPD*%
G01*
G04 APERTURE LIST*
G04 Aperture macros list*
%AMHorizOval*
0 Thick line with rounded ends*
0 $1 width*
0 $2 $3 position (X,Y) of the first rounded end (center of the circle)*
0 $4 $5 position (X,Y) of the second rounded end (center of the circle)*
0 Add line between two ends*
20,1,$1,$2,$3,$4,$5,0*
0 Add two circle primitives to create the rounded ends*
1,1,$1,$2,$3*
1,1,$1,$4,$5*%
%AMRotRect*
0 Rectangle, with rotation*
0 The origin of the aperture is its center*
0 $1 length*
0 $2 width*
0 $3 Rotation angle, in degrees counterclockwise*
0 Add horizontal line*
21,1,$1,$2,0,0,$3*%
G04 Aperture macros list end*
%ADD10C,1.701800*%
%ADD11C,3.000000*%
%ADD12C,3.987800*%
%ADD13C,3.048000*%
%ADD14R,2.000000X2.000000*%
%ADD15C,2.000000*%
%ADD16R,3.000000X2.500000*%
%ADD17R,1.600000X1.600000*%
%ADD18O,1.600000X1.600000*%
%ADD19RotRect,1.600000X1.600000X98.000000*%
%ADD20HorizOval,1.600000X0.000000X0.000000X0.000000X0.000000X0*%
%ADD21RotRect,1.600000X1.600000X82.000000*%
%ADD22HorizOval,1.600000X0.000000X0.000000X0.000000X0.000000X0*%
%ADD23O,1.800000X1.800000*%
%ADD24O,1.500000X1.500000*%
%ADD25O,1.700000X1.700000*%
%ADD26R,1.700000X1.700000*%
G04 APERTURE END LIST*
D10*
%TO.C,SW37*%
X297382811Y-66675000D03*
D11*
X298652811Y-64135000D03*
D12*
X302462811Y-66675000D03*
D11*
X305002811Y-61595000D03*
D10*
X307542811Y-66675000D03*
%TD*%
%TO.C,SW18*%
X98000000Y-107446490D03*
D11*
X99611141Y-105107960D03*
D12*
X103030562Y-108153490D03*
D11*
X106252843Y-103476428D03*
D10*
X108061124Y-108860490D03*
%TD*%
%TO.C,SW57*%
X229528876Y-144441373D03*
D11*
X230433017Y-141749342D03*
D12*
X234559438Y-143734373D03*
D11*
X236367719Y-138350312D03*
D10*
X239590000Y-143027373D03*
%TD*%
%TO.C,SW57*%
X226969438Y-106111505D03*
D11*
X227873579Y-103419474D03*
D12*
X232000000Y-105404505D03*
D11*
X233808281Y-100020444D03*
D10*
X237030562Y-104697505D03*
%TD*%
%TO.C,SW48*%
X261187811Y-85650000D03*
D11*
X262457811Y-83110000D03*
D12*
X266267811Y-85650000D03*
D11*
X268807811Y-80570000D03*
D10*
X271347811Y-85650000D03*
%TD*%
%TO.C,SW17*%
X78627354Y-104793001D03*
D11*
X80238494Y-102454470D03*
D12*
X83657916Y-105500000D03*
D11*
X86880196Y-100822939D03*
D10*
X88688478Y-106206999D03*
%TD*%
%TO.C,SW42*%
X202584706Y-90225518D03*
D11*
X203488847Y-87533487D03*
D12*
X207615268Y-89518518D03*
D11*
X209423549Y-84134457D03*
D10*
X212645830Y-88811518D03*
%TD*%
%TO.C,SW4*%
X67186250Y-65500000D03*
D11*
X68456250Y-62960000D03*
D12*
X72266250Y-65500000D03*
D11*
X74806250Y-60420000D03*
D10*
X77346250Y-65500000D03*
%TD*%
%TO.C,SW28*%
X172625618Y-75410743D03*
D11*
X173529759Y-72718712D03*
D12*
X177656180Y-74703743D03*
D11*
X179464461Y-69319682D03*
D10*
X182686742Y-73996743D03*
%TD*%
%TO.C,SW7*%
X125924259Y-72525825D03*
D11*
X127535400Y-70187295D03*
D12*
X130954821Y-73232825D03*
D11*
X134177102Y-68555763D03*
D10*
X135985383Y-73939825D03*
%TD*%
%TO.C,SW55*%
X245920000Y-123250000D03*
D11*
X247190000Y-120710000D03*
D12*
X251000000Y-123250000D03*
D11*
X253540000Y-118170000D03*
D10*
X256080000Y-123250000D03*
%TD*%
%TO.C,SW43*%
X189240224Y-111414000D03*
D11*
X190144365Y-108721969D03*
D12*
X194270786Y-110707000D03*
D11*
X196079067Y-105322939D03*
D10*
X199301348Y-110000000D03*
%TD*%
%TO.C,SW54*%
X225750000Y-125648373D03*
D11*
X226654141Y-122956342D03*
D12*
X230780562Y-124941373D03*
D11*
X232588843Y-119557312D03*
D10*
X235811124Y-124234373D03*
%TD*%
%TO.C,SW65*%
X342981295Y-124000000D03*
D11*
X344251295Y-121460000D03*
D12*
X348061295Y-124000000D03*
D11*
X350601295Y-118920000D03*
D10*
X353141295Y-124000000D03*
%TD*%
%TO.C,SW62*%
X320675000Y-127635000D03*
D11*
X321945000Y-125095000D03*
D12*
X325755000Y-127635000D03*
D11*
X328295000Y-122555000D03*
D10*
X330835000Y-127635000D03*
%TD*%
%TO.C,SW8*%
X144788865Y-75177073D03*
D11*
X146400006Y-72838543D03*
D12*
X149819427Y-75884073D03*
D11*
X153041708Y-71207011D03*
D10*
X154849989Y-76591073D03*
%TD*%
%TO.C,SW3*%
X48136250Y-66675000D03*
D11*
X49406250Y-64135000D03*
D12*
X53216250Y-66675000D03*
D11*
X55756250Y-61595000D03*
D10*
X58296250Y-66675000D03*
%TD*%
%TO.C,SW21*%
X34925000Y-123825000D03*
D11*
X36195000Y-121285000D03*
D12*
X40005000Y-123825000D03*
D11*
X42545000Y-118745000D03*
D10*
X45085000Y-123825000D03*
%TD*%
%TO.C,SW61*%
X339725000Y-146685000D03*
D11*
X340995000Y-144145000D03*
D12*
X344805000Y-146685000D03*
D11*
X347345000Y-141605000D03*
D10*
X349885000Y-146685000D03*
%TD*%
%TO.C,SW6*%
X107038865Y-69824562D03*
D11*
X108650006Y-67486032D03*
D12*
X112069427Y-70531562D03*
D11*
X115291708Y-65854500D03*
D10*
X117099989Y-71238562D03*
%TD*%
%TO.C,SW67*%
X280237811Y-85725000D03*
D11*
X281507811Y-83185000D03*
D12*
X285317811Y-85725000D03*
D11*
X287857811Y-80645000D03*
D10*
X290397811Y-85725000D03*
%TD*%
%TO.C,SW51*%
X169156180Y-133602116D03*
D11*
X170060321Y-130910085D03*
D12*
X174186742Y-132895116D03*
D11*
X175995023Y-127511055D03*
D10*
X179217304Y-132188116D03*
%TD*%
%TO.C,SW16*%
X57960000Y-104775000D03*
D11*
X59230000Y-102235000D03*
D12*
X63040000Y-104775000D03*
D11*
X65580000Y-99695000D03*
D10*
X68120000Y-104775000D03*
%TD*%
%TO.C,SW30*%
X80417741Y-143876101D03*
D11*
X82028882Y-141537571D03*
D12*
X85448303Y-144583101D03*
D11*
X88670584Y-139906039D03*
D10*
X90478865Y-145290101D03*
%TD*%
%TO.C,SW73*%
X291272811Y-123825000D03*
D11*
X292542811Y-121285000D03*
D12*
X296352811Y-123825000D03*
D11*
X298892811Y-118745000D03*
D10*
X301432811Y-123825000D03*
%TD*%
D13*
%TO.C,REF\u002A\u002A*%
X314362811Y-73660000D03*
D12*
X314362811Y-58420000D03*
D13*
X290562811Y-73660000D03*
D12*
X290562811Y-58420000D03*
%TD*%
D10*
%TO.C,SW64*%
X342981295Y-104775000D03*
D11*
X344251295Y-102235000D03*
D12*
X348061295Y-104775000D03*
D11*
X350601295Y-99695000D03*
D10*
X353141295Y-104775000D03*
%TD*%
%TO.C,SW45*%
X208104831Y-108762753D03*
D11*
X209008972Y-106070722D03*
D12*
X213135393Y-108055753D03*
D11*
X214943674Y-102671692D03*
D10*
X218165955Y-107348753D03*
%TD*%
%TO.C,SW34*%
X229219438Y-67457000D03*
D11*
X230123579Y-64764969D03*
D12*
X234250000Y-66750000D03*
D11*
X236058281Y-61365939D03*
D10*
X239280562Y-66043000D03*
%TD*%
%TO.C,SW72*%
X298030311Y-104775000D03*
D11*
X299300311Y-102235000D03*
D12*
X303110311Y-104775000D03*
D11*
X305650311Y-99695000D03*
D10*
X308190311Y-104775000D03*
%TD*%
%TO.C,SW52*%
X188020786Y-130950869D03*
D11*
X188924927Y-128258838D03*
D12*
X193051348Y-130243869D03*
D11*
X194859629Y-124859808D03*
D10*
X198081910Y-129536869D03*
%TD*%
%TO.C,SW58*%
X254980000Y-142875000D03*
D11*
X256250000Y-140335000D03*
D12*
X260060000Y-142875000D03*
D11*
X262600000Y-137795000D03*
D10*
X265140000Y-142875000D03*
%TD*%
%TO.C,SW71*%
X304272811Y-85790000D03*
D11*
X305542811Y-83250000D03*
D12*
X309352811Y-85790000D03*
D11*
X311892811Y-80710000D03*
D10*
X314432811Y-85790000D03*
%TD*%
%TO.C,SW13*%
X112834043Y-90250000D03*
D11*
X114445184Y-87911470D03*
D12*
X117864605Y-90957000D03*
D11*
X121086886Y-86279938D03*
D10*
X122895167Y-91664000D03*
%TD*%
D13*
%TO.C,REF\u002A\u002A*%
X206556314Y-154633834D03*
D12*
X204435316Y-139542149D03*
D13*
X182987934Y-157946154D03*
D12*
X180866936Y-142854469D03*
%TD*%
D10*
%TO.C,SW14*%
X31750000Y-104775000D03*
D11*
X33020000Y-102235000D03*
D12*
X36830000Y-104775000D03*
D11*
X39370000Y-99695000D03*
D10*
X41910000Y-104775000D03*
%TD*%
%TO.C,SW33*%
X210354832Y-70108247D03*
D11*
X211258973Y-67416216D03*
D12*
X215385394Y-69401247D03*
D11*
X217193675Y-64017186D03*
D10*
X220415956Y-68694247D03*
%TD*%
%TO.C,SW26*%
X143030130Y-133345495D03*
D11*
X144641271Y-131006965D03*
D12*
X148060692Y-134052495D03*
D11*
X151282973Y-129375433D03*
D10*
X153091254Y-134759495D03*
%TD*%
%TO.C,SW29*%
X191490225Y-72759495D03*
D11*
X192394366Y-70067464D03*
D12*
X196520787Y-72052495D03*
D11*
X198329068Y-66668434D03*
D10*
X201551349Y-71345495D03*
%TD*%
%TO.C,SW32*%
X134666553Y-151414438D03*
D11*
X136277694Y-149075908D03*
D12*
X139697115Y-152121438D03*
D11*
X142919396Y-147444376D03*
D10*
X144727677Y-152828438D03*
%TD*%
%TO.C,SW9*%
X30710000Y-85725000D03*
D11*
X31980000Y-83185000D03*
D12*
X35790000Y-85725000D03*
D11*
X38330000Y-80645000D03*
D10*
X40870000Y-85725000D03*
%TD*%
%TO.C,SW22*%
X65870000Y-123825000D03*
D11*
X67140000Y-121285000D03*
D12*
X70950000Y-123825000D03*
D11*
X73490000Y-118745000D03*
D10*
X76030000Y-123825000D03*
%TD*%
%TO.C,SW14*%
X131698650Y-92901248D03*
D11*
X133309791Y-90562718D03*
D12*
X136729212Y-93608248D03*
D11*
X139951493Y-88931186D03*
D10*
X141759774Y-94315248D03*
%TD*%
%TO.C,SW23*%
X86436309Y-125391752D03*
D11*
X88047450Y-123053222D03*
D12*
X91466871Y-126098752D03*
D11*
X94689152Y-121421690D03*
D10*
X96497433Y-126805752D03*
%TD*%
%TO.C,SW24*%
X105300917Y-128043000D03*
D11*
X106912058Y-125704470D03*
D12*
X110331479Y-128750000D03*
D11*
X113553760Y-124072938D03*
D10*
X115362041Y-129457000D03*
%TD*%
D13*
%TO.C,REF\u002A\u002A*%
X51905000Y-130810000D03*
D12*
X51905000Y-115570000D03*
D13*
X28105000Y-130810000D03*
D12*
X28105000Y-115570000D03*
%TD*%
D10*
%TO.C,SW1*%
X29086250Y-66675000D03*
D11*
X30356250Y-64135000D03*
D12*
X34166250Y-66675000D03*
D11*
X36706250Y-61595000D03*
D10*
X39246250Y-66675000D03*
%TD*%
%TO.C,SW38*%
X164855493Y-95591061D03*
D11*
X165759634Y-92899030D03*
D12*
X169886055Y-94884061D03*
D11*
X171694336Y-89500000D03*
D10*
X174916617Y-94177061D03*
%TD*%
%TO.C,SW25*%
X124165522Y-130694247D03*
D11*
X125776663Y-128355717D03*
D12*
X129196084Y-131401247D03*
D11*
X132418365Y-126724185D03*
D10*
X134226646Y-132108247D03*
%TD*%
%TO.C,SW12*%
X93969438Y-87598753D03*
D11*
X95580579Y-85260223D03*
D12*
X99000000Y-88305753D03*
D11*
X102222281Y-83628691D03*
D10*
X104030562Y-89012753D03*
%TD*%
%TO.C,SW40*%
X183720100Y-92876765D03*
D11*
X184624241Y-90184734D03*
D12*
X188750662Y-92169765D03*
D11*
X190558943Y-86785704D03*
D10*
X193781224Y-91462765D03*
%TD*%
%TO.C,SW27*%
X27730000Y-142875000D03*
D11*
X29000000Y-140335000D03*
D12*
X32810000Y-142875000D03*
D11*
X35350000Y-137795000D03*
D10*
X37890000Y-142875000D03*
%TD*%
%TO.C,SW53*%
X206885393Y-128299621D03*
D11*
X207789534Y-125607590D03*
D12*
X211915955Y-127592621D03*
D11*
X213724236Y-122208560D03*
D10*
X216946517Y-126885621D03*
%TD*%
%TO.C,SW60*%
X320675000Y-146685000D03*
D11*
X321945000Y-144145000D03*
D12*
X325755000Y-146685000D03*
D11*
X328295000Y-141605000D03*
D10*
X330835000Y-146685000D03*
%TD*%
%TO.C,SW69*%
X264997811Y-123825000D03*
D11*
X266267811Y-121285000D03*
D12*
X270077811Y-123825000D03*
D11*
X272617811Y-118745000D03*
D10*
X275157811Y-123825000D03*
%TD*%
%TO.C,SW36*%
X268807811Y-66675000D03*
D11*
X270077811Y-64135000D03*
D12*
X273887811Y-66675000D03*
D11*
X276427811Y-61595000D03*
D10*
X278967811Y-66675000D03*
%TD*%
%TO.C,SW19*%
X116864606Y-110097737D03*
D11*
X118475747Y-107759207D03*
D12*
X121895168Y-110804737D03*
D11*
X125117449Y-106127675D03*
D10*
X126925730Y-111511737D03*
%TD*%
%TO.C,SW35*%
X249757811Y-66696100D03*
D11*
X251027811Y-64156100D03*
D12*
X254837811Y-66696100D03*
D11*
X257377811Y-61616100D03*
D10*
X259917811Y-66696100D03*
%TD*%
%TO.C,SW5*%
X88174259Y-67173313D03*
D11*
X89785400Y-64834783D03*
D12*
X93204821Y-67880313D03*
D11*
X96427102Y-63203251D03*
D10*
X98235383Y-68587313D03*
%TD*%
%TO.C,SW49*%
X247963592Y-104279560D03*
D11*
X249233592Y-101739559D03*
D12*
X253043592Y-104279559D03*
D11*
X255583592Y-99199559D03*
D10*
X258123592Y-104279558D03*
%TD*%
D14*
%TO.C,SW2*%
X340481295Y-61550000D03*
D15*
X340481295Y-66550000D03*
X340481295Y-64050000D03*
D16*
X347981295Y-58450000D03*
X347981295Y-69650000D03*
D15*
X354981295Y-61550000D03*
X354981295Y-66550000D03*
%TD*%
D10*
%TO.C,SW59*%
X301825000Y-146685000D03*
D11*
X303095000Y-144145000D03*
D12*
X306905000Y-146685000D03*
D11*
X309445000Y-141605000D03*
D10*
X311985000Y-146685000D03*
%TD*%
%TO.C,SW41*%
X170406931Y-114288059D03*
D11*
X171311072Y-111596028D03*
D12*
X175437493Y-113581059D03*
D11*
X177245774Y-108196998D03*
D10*
X180468055Y-112874059D03*
%TD*%
%TO.C,SW56*%
X188769438Y-150079972D03*
D11*
X189673579Y-147387941D03*
D12*
X193800000Y-149372972D03*
D11*
X195608281Y-143988911D03*
D10*
X198830562Y-148665972D03*
%TD*%
%TO.C,SW10*%
X54610000Y-85725000D03*
D11*
X55880000Y-83185000D03*
D12*
X59690000Y-85725000D03*
D11*
X62230000Y-80645000D03*
D10*
X64770000Y-85725000D03*
%TD*%
%TO.C,SW11*%
X75111763Y-84948164D03*
D11*
X76722903Y-82609633D03*
D12*
X80142325Y-85655163D03*
D11*
X83364605Y-80978102D03*
D10*
X85172887Y-86362162D03*
%TD*%
D13*
%TO.C,REF\u002A\u002A*%
X150596379Y-160792711D03*
D12*
X152717377Y-145701026D03*
D13*
X127027999Y-157480391D03*
D12*
X129148997Y-142388706D03*
%TD*%
D10*
%TO.C,SW46*%
X242145000Y-85230000D03*
D11*
X243415000Y-82690000D03*
D12*
X247225000Y-85230000D03*
D11*
X249765000Y-80150000D03*
D10*
X252305000Y-85230000D03*
%TD*%
%TO.C,SW31*%
X104055440Y-147198163D03*
D11*
X105666581Y-144859633D03*
D12*
X109086002Y-147905163D03*
D11*
X112308283Y-143228101D03*
D10*
X114116564Y-148612163D03*
%TD*%
D13*
%TO.C,REF\u002A\u002A*%
X315010311Y-111760000D03*
D12*
X315010311Y-96520000D03*
D13*
X291210311Y-111760000D03*
D12*
X291210311Y-96520000D03*
%TD*%
D10*
%TO.C,SW68*%
X267040311Y-104775000D03*
D11*
X268310311Y-102235000D03*
D12*
X272120311Y-104775000D03*
D11*
X274660311Y-99695000D03*
D10*
X277200311Y-104775000D03*
%TD*%
%TO.C,SW20*%
X135729213Y-112748984D03*
D11*
X137340354Y-110410454D03*
D12*
X140759775Y-113455984D03*
D11*
X143982056Y-108778922D03*
D10*
X145790337Y-114162984D03*
%TD*%
%TO.C,SW63*%
X342981295Y-85725000D03*
D11*
X344251295Y-83185000D03*
D12*
X348061295Y-85725000D03*
D11*
X350601295Y-80645000D03*
D10*
X353141295Y-85725000D03*
%TD*%
%TO.C,SW44*%
X221438876Y-87500000D03*
D11*
X222343017Y-84807969D03*
D12*
X226469438Y-86793000D03*
D11*
X228277719Y-81408939D03*
D10*
X231500000Y-86086000D03*
%TD*%
D17*
%TO.C,D36*%
X282852811Y-68918750D03*
D18*
X282852811Y-61298750D03*
%TD*%
D19*
%TO.C,D53*%
X221031400Y-128323610D03*
D20*
X219970901Y-120777767D03*
%TD*%
D17*
%TO.C,D65*%
X356873795Y-126810000D03*
D18*
X356873795Y-119190000D03*
%TD*%
D17*
%TO.C,D15*%
X45755000Y-106835000D03*
D18*
X45755000Y-99215000D03*
%TD*%
D21*
%TO.C,D17*%
X92330953Y-109322846D03*
D22*
X93391452Y-101777003D03*
%TD*%
D21*
%TO.C,D26*%
X156349936Y-137394913D03*
D22*
X157410435Y-129849070D03*
%TD*%
D21*
%TO.C,D8*%
X158318107Y-80902337D03*
D22*
X159378607Y-73356494D03*
%TD*%
D19*
%TO.C,D28*%
X186798657Y-75519293D03*
D20*
X185738158Y-67973450D03*
%TD*%
D21*
%TO.C,D11*%
X88550731Y-89236489D03*
D22*
X89611230Y-81690646D03*
%TD*%
D17*
%TO.C,D68*%
X294352811Y-87882500D03*
D18*
X294352811Y-80262500D03*
%TD*%
D19*
%TO.C,D40*%
X197715292Y-92833590D03*
D20*
X196654793Y-85287747D03*
%TD*%
D19*
%TO.C,D38*%
X178935688Y-95888940D03*
D20*
X177875189Y-88343097D03*
%TD*%
D21*
%TO.C,D5*%
X101734420Y-71272922D03*
D22*
X102794919Y-63727079D03*
%TD*%
D17*
%TO.C,D69*%
X281110311Y-106825000D03*
D18*
X281110311Y-99205000D03*
%TD*%
D17*
%TO.C,D22*%
X79738750Y-125981250D03*
D18*
X79738750Y-118361250D03*
%TD*%
D17*
%TO.C,D70*%
X279030311Y-125825000D03*
D18*
X279030311Y-118205000D03*
%TD*%
D19*
%TO.C,D51*%
X183403649Y-133629518D03*
D20*
X182343150Y-126083675D03*
%TD*%
D17*
%TO.C,D48*%
X275352811Y-87750000D03*
D18*
X275352811Y-80130000D03*
%TD*%
D19*
%TO.C,D33*%
X224387299Y-69997981D03*
D20*
X223326800Y-62452138D03*
%TD*%
D19*
%TO.C,D54*%
X239824944Y-125462595D03*
D20*
X238764445Y-117916752D03*
%TD*%
D21*
%TO.C,D6*%
X120500000Y-73910252D03*
D22*
X121560499Y-66364409D03*
%TD*%
D23*
%TO.C,U1*%
X26490000Y-43015000D03*
D24*
X29520000Y-43315000D03*
X29520000Y-48165000D03*
D23*
X26490000Y-48465000D03*
D25*
X26360000Y-36850000D03*
X28900000Y-36850000D03*
D26*
X31440000Y-36850000D03*
D25*
X33980000Y-36850000D03*
X36520000Y-36850000D03*
X39060000Y-36850000D03*
X41600000Y-36850000D03*
D26*
X44140000Y-36850000D03*
D25*
X46680000Y-36850000D03*
X49220000Y-36850000D03*
X51760000Y-36850000D03*
X54300000Y-36850000D03*
D26*
X56840000Y-36850000D03*
D25*
X59380000Y-36850000D03*
X61920000Y-36850000D03*
X64460000Y-36850000D03*
X67000000Y-36850000D03*
D26*
X69540000Y-36850000D03*
D25*
X72080000Y-36850000D03*
X74620000Y-36850000D03*
X74620000Y-54630000D03*
X72080000Y-54630000D03*
D26*
X69540000Y-54630000D03*
D25*
X67000000Y-54630000D03*
X64460000Y-54630000D03*
X61920000Y-54630000D03*
X59380000Y-54630000D03*
D26*
X56840000Y-54630000D03*
D25*
X54300000Y-54630000D03*
X51760000Y-54630000D03*
X49220000Y-54630000D03*
X46680000Y-54630000D03*
D26*
X44140000Y-54630000D03*
D25*
X41600000Y-54630000D03*
X39060000Y-54630000D03*
X36520000Y-54630000D03*
X33980000Y-54630000D03*
D26*
X31440000Y-54630000D03*
D25*
X28900000Y-54630000D03*
X26360000Y-54630000D03*
X74390000Y-43200000D03*
D26*
X74390000Y-45740000D03*
D25*
X74390000Y-48280000D03*
%TD*%
D17*
%TO.C,D10*%
X68540000Y-88101250D03*
D18*
X68540000Y-80481250D03*
%TD*%
D17*
%TO.C,D2*%
X43235000Y-68847500D03*
D18*
X43235000Y-61227500D03*
%TD*%
D17*
%TO.C,D73*%
X311987811Y-106810000D03*
D18*
X311987811Y-99190000D03*
%TD*%
D17*
%TO.C,D9*%
X44596250Y-88101250D03*
D18*
X44596250Y-80481250D03*
%TD*%
D17*
%TO.C,D4*%
X81235000Y-67616250D03*
D18*
X81235000Y-59996250D03*
%TD*%
D19*
%TO.C,D57*%
X243660221Y-144500000D03*
D20*
X242599722Y-136954157D03*
%TD*%
D17*
%TO.C,D64*%
X356873795Y-109083750D03*
D18*
X356873795Y-101463750D03*
%TD*%
D17*
%TO.C,D35*%
X263569061Y-68250000D03*
D18*
X263569061Y-60630000D03*
%TD*%
D19*
%TO.C,D45*%
X222471748Y-108813760D03*
D20*
X221411249Y-101267917D03*
%TD*%
D17*
%TO.C,D58*%
X269250000Y-145060000D03*
D18*
X269250000Y-137440000D03*
%TD*%
D17*
%TO.C,D74*%
X305374061Y-125817500D03*
D18*
X305374061Y-118197500D03*
%TD*%
D21*
%TO.C,D19*%
X130464947Y-114064140D03*
D22*
X131525446Y-106518297D03*
%TD*%
D17*
%TO.C,D32*%
X72030000Y-107010000D03*
D18*
X72030000Y-99390000D03*
%TD*%
D17*
%TO.C,D21*%
X48811250Y-125981250D03*
D18*
X48811250Y-118361250D03*
%TD*%
D19*
%TO.C,D52*%
X202201693Y-130863921D03*
D20*
X201141194Y-123318078D03*
%TD*%
D19*
%TO.C,D34*%
X243560499Y-67795843D03*
D20*
X242500000Y-60250000D03*
%TD*%
D21*
%TO.C,D18*%
X111483062Y-111456999D03*
D22*
X112543561Y-103911156D03*
%TD*%
D19*
%TO.C,D47*%
X241369967Y-105711472D03*
D20*
X240309468Y-98165629D03*
%TD*%
D19*
%TO.C,D56*%
X202897673Y-150300850D03*
D20*
X201837174Y-142755007D03*
%TD*%
D17*
%TO.C,D49*%
X262106985Y-107302037D03*
D18*
X262106985Y-99682037D03*
%TD*%
D21*
%TO.C,D24*%
X118719751Y-132106336D03*
D22*
X119780250Y-124560493D03*
%TD*%
D17*
%TO.C,D37*%
X311212811Y-68918750D03*
D18*
X311212811Y-61298750D03*
%TD*%
D21*
%TO.C,D23*%
X99788301Y-129445694D03*
D22*
X100848800Y-121899851D03*
%TD*%
D17*
%TO.C,D63*%
X356873795Y-90283750D03*
D18*
X356873795Y-82663750D03*
%TD*%
D17*
%TO.C,D61*%
X353750000Y-148810000D03*
D18*
X353750000Y-141190000D03*
%TD*%
D17*
%TO.C,D59*%
X315615939Y-148515000D03*
D18*
X315615939Y-140895000D03*
%TD*%
D17*
%TO.C,D62*%
X334750000Y-130560000D03*
D18*
X334750000Y-122940000D03*
%TD*%
D19*
%TO.C,D43*%
X203349832Y-111430482D03*
D20*
X202289333Y-103884639D03*
%TD*%
D21*
%TO.C,D13*%
X126173985Y-94524409D03*
D22*
X127234484Y-86978566D03*
%TD*%
D21*
%TO.C,D32*%
X148265270Y-155365466D03*
D22*
X149325769Y-147819623D03*
%TD*%
D17*
%TO.C,D55*%
X259825000Y-125067500D03*
D18*
X259825000Y-117447500D03*
%TD*%
D21*
%TO.C,D12*%
X107358890Y-91880121D03*
D22*
X108419389Y-84334278D03*
%TD*%
D21*
%TO.C,D30*%
X94009966Y-147927199D03*
D22*
X95070465Y-140381356D03*
%TD*%
D21*
%TO.C,D14*%
X145105435Y-97185052D03*
D22*
X146165934Y-89639209D03*
%TD*%
D17*
%TO.C,D46*%
X256162811Y-87643965D03*
D18*
X256162811Y-80023965D03*
%TD*%
D17*
%TO.C,D72*%
X318372811Y-87947500D03*
D18*
X318372811Y-80327500D03*
%TD*%
D21*
%TO.C,D20*%
X149302322Y-116711560D03*
D22*
X150362821Y-109165717D03*
%TD*%
D17*
%TO.C,D3*%
X62235000Y-68791250D03*
D18*
X62235000Y-61171250D03*
%TD*%
D17*
%TO.C,D60*%
X334617500Y-148828750D03*
D18*
X334617500Y-141208750D03*
%TD*%
D21*
%TO.C,D7*%
X139385395Y-76611515D03*
D22*
X140445894Y-69065672D03*
%TD*%
D19*
%TO.C,D44*%
X235616859Y-87688641D03*
D20*
X234556360Y-80142798D03*
%TD*%
D19*
%TO.C,D29*%
X205627875Y-73038378D03*
D20*
X204567376Y-65492535D03*
%TD*%
D21*
%TO.C,D25*%
X137534843Y-134750625D03*
D22*
X138595342Y-127204782D03*
%TD*%
D19*
%TO.C,D42*%
X216565874Y-90441819D03*
D20*
X215505375Y-82895976D03*
%TD*%
D17*
%TO.C,D27*%
X41735000Y-144935000D03*
D18*
X41735000Y-137315000D03*
%TD*%
D21*
%TO.C,D31*%
X117729116Y-151073890D03*
D22*
X118789615Y-143528047D03*
%TD*%
D19*
%TO.C,D41*%
X184534739Y-114074771D03*
D20*
X183474240Y-106528928D03*
%TD*%
M02*
