%TF.GenerationSoftware,KiCad,Pcbnew,9.0.2*%
%TF.CreationDate,2025-06-19T20:24:16-07:00*%
%TF.ProjectId,toro-pcb,746f726f-2d70-4636-922e-6b696361645f,rev?*%
%TF.SameCoordinates,Original*%
%TF.FileFunction,Copper,L2,Bot*%
%TF.FilePolarity,Positive*%
%FSLAX46Y46*%
G04 Gerber Fmt 4.6, Leading zero omitted, Abs format (unit mm)*
G04 Created by KiCad (PCBNEW 9.0.2) date 2025-06-19 20:24:16*
%MOMM*%
%LPD*%
G01*
G04 APERTURE LIST*
G04 Aperture macros list*
%AMHorizOval*
0 Thick line with rounded ends*
0 $1 width*
0 $2 $3 position (X,Y) of the first rounded end (center of the circle)*
0 $4 $5 position (X,Y) of the second rounded end (center of the circle)*
0 Add line between two ends*
20,1,$1,$2,$3,$4,$5,0*
0 Add two circle primitives to create the rounded ends*
1,1,$1,$2,$3*
1,1,$1,$4,$5*%
%AMRotRect*
0 Rectangle, with rotation*
0 The origin of the aperture is its center*
0 $1 length*
0 $2 width*
0 $3 Rotation angle, in degrees counterclockwise*
0 Add horizontal line*
21,1,$1,$2,0,0,$3*%
G04 Aperture macros list end*
%TA.AperFunction,SMDPad,CuDef*%
%ADD10R,2.550000X2.500000*%
%TD*%
%TA.AperFunction,SMDPad,CuDef*%
%ADD11RotRect,2.550000X2.500000X352.000000*%
%TD*%
%TA.AperFunction,SMDPad,CuDef*%
%ADD12RotRect,2.550000X2.500000X8.000000*%
%TD*%
%TA.AperFunction,ComponentPad*%
%ADD13R,2.000000X2.000000*%
%TD*%
%TA.AperFunction,ComponentPad*%
%ADD14C,2.000000*%
%TD*%
%TA.AperFunction,ComponentPad*%
%ADD15R,3.000000X2.500000*%
%TD*%
%TA.AperFunction,ComponentPad*%
%ADD16R,1.600000X1.600000*%
%TD*%
%TA.AperFunction,ComponentPad*%
%ADD17O,1.600000X1.600000*%
%TD*%
%TA.AperFunction,ComponentPad*%
%ADD18RotRect,1.600000X1.600000X98.000000*%
%TD*%
%TA.AperFunction,ComponentPad*%
%ADD19HorizOval,1.600000X0.000000X0.000000X0.000000X0.000000X0*%
%TD*%
%TA.AperFunction,ComponentPad*%
%ADD20RotRect,1.600000X1.600000X82.000000*%
%TD*%
%TA.AperFunction,ComponentPad*%
%ADD21HorizOval,1.600000X0.000000X0.000000X0.000000X0.000000X0*%
%TD*%
%TA.AperFunction,ComponentPad*%
%ADD22O,1.700000X1.700000*%
%TD*%
%TA.AperFunction,SMDPad,CuDef*%
%ADD23R,1.700000X3.500000*%
%TD*%
%TA.AperFunction,ComponentPad*%
%ADD24R,1.700000X1.700000*%
%TD*%
%TA.AperFunction,SMDPad,CuDef*%
%ADD25R,3.500000X1.700000*%
%TD*%
%TA.AperFunction,ViaPad*%
%ADD26C,0.600000*%
%TD*%
%TA.AperFunction,ViaPad*%
%ADD27C,0.300000*%
%TD*%
%TA.AperFunction,Conductor*%
%ADD28C,0.200000*%
%TD*%
G04 APERTURE END LIST*
D10*
%TO.P,SW37,1*%
%TO.N,Col 13*%
X308752811Y-61595000D03*
%TO.P,SW37,2*%
%TO.N,Net-(D37-A)*%
X294902811Y-64135000D03*
%TD*%
D11*
%TO.P,SW18,1*%
%TO.N,Col 3*%
X109966347Y-103998327D03*
%TO.P,SW18,2*%
%TO.N,Net-(D18-A)*%
X95897635Y-104586060D03*
%TD*%
D12*
%TO.P,SW57,1*%
%TO.N,Col 7*%
X240081225Y-137828413D03*
%TO.P,SW57,2*%
%TO.N,Net-(D57-A)*%
X226719511Y-142271241D03*
%TD*%
%TO.P,SW57,1*%
%TO.N,Col 9*%
X237521787Y-99498545D03*
%TO.P,SW57,2*%
%TO.N,Net-(D47-A)*%
X224160073Y-103941373D03*
%TD*%
D10*
%TO.P,SW48,1*%
%TO.N,Col 11*%
X272557811Y-80570000D03*
%TO.P,SW48,2*%
%TO.N,Net-(D48-A)*%
X258707811Y-83110000D03*
%TD*%
D11*
%TO.P,SW17,1*%
%TO.N,Col 2*%
X90593702Y-101344837D03*
%TO.P,SW17,2*%
%TO.N,Net-(D17-A)*%
X76524989Y-101932570D03*
%TD*%
D12*
%TO.P,SW42,1*%
%TO.N,Col 8*%
X213137055Y-83612558D03*
%TO.P,SW42,2*%
%TO.N,Net-(D42-A)*%
X199775341Y-88055386D03*
%TD*%
D10*
%TO.P,SW4,1*%
%TO.N,Col 2*%
X78556250Y-60420000D03*
%TO.P,SW4,2*%
%TO.N,Net-(D4-A)*%
X64706250Y-62960000D03*
%TD*%
D12*
%TO.P,SW28,1*%
%TO.N,Col 7*%
X183177967Y-68797783D03*
%TO.P,SW28,2*%
%TO.N,Net-(D28-A)*%
X169816253Y-73240611D03*
%TD*%
D11*
%TO.P,SW7,1*%
%TO.N,Col 5*%
X137890606Y-69077662D03*
%TO.P,SW7,2*%
%TO.N,Net-(D7-A)*%
X123821894Y-69665395D03*
%TD*%
D10*
%TO.P,SW55,1*%
%TO.N,Col 10*%
X257290000Y-118170000D03*
%TO.P,SW55,2*%
%TO.N,Net-(D55-A)*%
X243440000Y-120710000D03*
%TD*%
D12*
%TO.P,SW43,1*%
%TO.N,Col 7*%
X199792573Y-104801040D03*
%TO.P,SW43,2*%
%TO.N,Net-(D43-A)*%
X186430859Y-109243868D03*
%TD*%
%TO.P,SW54,1*%
%TO.N,Col 9*%
X236302349Y-119035413D03*
%TO.P,SW54,2*%
%TO.N,Net-(D54-A)*%
X222940635Y-123478241D03*
%TD*%
D10*
%TO.P,SW65,1*%
%TO.N,Col 16*%
X354351295Y-118920000D03*
%TO.P,SW65,2*%
%TO.N,Net-(D65-A)*%
X340501295Y-121460000D03*
%TD*%
%TO.P,SW62,1*%
%TO.N,Col 15*%
X332045000Y-122555000D03*
%TO.P,SW62,2*%
%TO.N,Net-(D62-A)*%
X318195000Y-125095000D03*
%TD*%
D11*
%TO.P,SW8,1*%
%TO.N,Col 6*%
X156755212Y-71728910D03*
%TO.P,SW8,2*%
%TO.N,Net-(D8-A)*%
X142686500Y-72316643D03*
%TD*%
D10*
%TO.P,SW3,1*%
%TO.N,Col 1*%
X59506250Y-61595000D03*
%TO.P,SW3,2*%
%TO.N,Net-(D3-A)*%
X45656250Y-64135000D03*
%TD*%
%TO.P,SW21,1*%
%TO.N,Col 0*%
X46295000Y-118745000D03*
%TO.P,SW21,2*%
%TO.N,Net-(D21-A)*%
X32445000Y-121285000D03*
%TD*%
%TO.P,SW61,1*%
%TO.N,Col 16*%
X351095000Y-141605000D03*
%TO.P,SW61,2*%
%TO.N,Net-(D61-A)*%
X337245000Y-144145000D03*
%TD*%
D11*
%TO.P,SW6,1*%
%TO.N,Col 4*%
X119005212Y-66376399D03*
%TO.P,SW6,2*%
%TO.N,Net-(D6-A)*%
X104936500Y-66964132D03*
%TD*%
D10*
%TO.P,SW67,1*%
%TO.N,Col 12*%
X291607811Y-80645000D03*
%TO.P,SW67,2*%
%TO.N,Net-(D68-A)*%
X277757811Y-83185000D03*
%TD*%
D12*
%TO.P,SW51,1*%
%TO.N,Col 6*%
X179708529Y-126989156D03*
%TO.P,SW51,2*%
%TO.N,Net-(D51-A)*%
X166346815Y-131431984D03*
%TD*%
D10*
%TO.P,SW16,1*%
%TO.N,Col 1*%
X69330000Y-99695000D03*
%TO.P,SW16,2*%
%TO.N,Net-(D16-A)*%
X55480000Y-102235000D03*
%TD*%
D11*
%TO.P,SW30,1*%
%TO.N,Col 3*%
X92384088Y-140427938D03*
%TO.P,SW30,2*%
%TO.N,Net-(D30-A)*%
X78315376Y-141015671D03*
%TD*%
D10*
%TO.P,SW73,1*%
%TO.N,Col 12*%
X302642811Y-118745000D03*
%TO.P,SW73,2*%
%TO.N,Net-(D74-A)*%
X288792811Y-121285000D03*
%TD*%
%TO.P,SW64,1*%
%TO.N,Col 16*%
X354351295Y-99695000D03*
%TO.P,SW64,2*%
%TO.N,Net-(D64-A)*%
X340501295Y-102235000D03*
%TD*%
D12*
%TO.P,SW45,1*%
%TO.N,Col 8*%
X218657180Y-102149793D03*
%TO.P,SW45,2*%
%TO.N,Net-(D45-A)*%
X205295466Y-106592621D03*
%TD*%
%TO.P,SW34,1*%
%TO.N,Col 10*%
X239771787Y-60844040D03*
%TO.P,SW34,2*%
%TO.N,Net-(D34-A)*%
X226410073Y-65286868D03*
%TD*%
D10*
%TO.P,SW72,1*%
%TO.N,Col 12*%
X309400311Y-99695000D03*
%TO.P,SW72,2*%
%TO.N,Net-(D73-A)*%
X295550311Y-102235000D03*
%TD*%
D12*
%TO.P,SW52,1*%
%TO.N,Col 7*%
X198573135Y-124337909D03*
%TO.P,SW52,2*%
%TO.N,Net-(D52-A)*%
X185211421Y-128780737D03*
%TD*%
D10*
%TO.P,SW58,1*%
%TO.N,Col 8*%
X266350000Y-137795000D03*
%TO.P,SW58,2*%
%TO.N,Net-(D58-A)*%
X252500000Y-140335000D03*
%TD*%
%TO.P,SW71,1*%
%TO.N,Col 13*%
X315642811Y-80710000D03*
%TO.P,SW71,2*%
%TO.N,Net-(D72-A)*%
X301792811Y-83250000D03*
%TD*%
D11*
%TO.P,SW13,1*%
%TO.N,Col 4*%
X124800390Y-86801837D03*
%TO.P,SW13,2*%
%TO.N,Net-(D13-A)*%
X110731678Y-87389570D03*
%TD*%
D10*
%TO.P,SW14,1*%
%TO.N,Col 0*%
X43120000Y-99695000D03*
%TO.P,SW14,2*%
%TO.N,Net-(D15-A)*%
X29270000Y-102235000D03*
%TD*%
D12*
%TO.P,SW33,1*%
%TO.N,Col 9*%
X220907181Y-63495287D03*
%TO.P,SW33,2*%
%TO.N,Net-(D33-A)*%
X207545467Y-67938115D03*
%TD*%
D11*
%TO.P,SW26,1*%
%TO.N,Col 5*%
X154996477Y-129897332D03*
%TO.P,SW26,2*%
%TO.N,Net-(D26-A)*%
X140927765Y-130485065D03*
%TD*%
D12*
%TO.P,SW29,1*%
%TO.N,Col 8*%
X202042574Y-66146535D03*
%TO.P,SW29,2*%
%TO.N,Net-(D29-A)*%
X188680860Y-70589363D03*
%TD*%
D11*
%TO.P,SW32,1*%
%TO.N,Col 5*%
X146632900Y-147966275D03*
%TO.P,SW32,2*%
%TO.N,Net-(D32-A)*%
X132564188Y-148554008D03*
%TD*%
D10*
%TO.P,SW9,1*%
%TO.N,Col 0*%
X42080000Y-80645000D03*
%TO.P,SW9,2*%
%TO.N,Net-(D9-A)*%
X28230000Y-83185000D03*
%TD*%
%TO.P,SW22,1*%
%TO.N,Col 1*%
X77240000Y-118745000D03*
%TO.P,SW22,2*%
%TO.N,Net-(D22-A)*%
X63390000Y-121285000D03*
%TD*%
D11*
%TO.P,SW14,1*%
%TO.N,Col 5*%
X143664997Y-89453085D03*
%TO.P,SW14,2*%
%TO.N,Net-(D14-A)*%
X129596285Y-90040818D03*
%TD*%
%TO.P,SW23,1*%
%TO.N,Col 2*%
X98402656Y-121943589D03*
%TO.P,SW23,2*%
%TO.N,Net-(D23-A)*%
X84333944Y-122531322D03*
%TD*%
%TO.P,SW24,1*%
%TO.N,Col 3*%
X117267264Y-124594837D03*
%TO.P,SW24,2*%
%TO.N,Net-(D24-A)*%
X103198552Y-125182570D03*
%TD*%
D10*
%TO.P,SW1,1*%
%TO.N,Col 0*%
X40456250Y-61595000D03*
%TO.P,SW1,2*%
%TO.N,Net-(D2-A)*%
X26606250Y-64135000D03*
%TD*%
D12*
%TO.P,SW38,1*%
%TO.N,Col 6*%
X175407842Y-88978101D03*
%TO.P,SW38,2*%
%TO.N,Net-(D38-A)*%
X162046128Y-93420929D03*
%TD*%
D11*
%TO.P,SW25,1*%
%TO.N,Col 4*%
X136131869Y-127246084D03*
%TO.P,SW25,2*%
%TO.N,Net-(D25-A)*%
X122063157Y-127833817D03*
%TD*%
%TO.P,SW12,1*%
%TO.N,Col 3*%
X105935785Y-84150590D03*
%TO.P,SW12,2*%
%TO.N,Net-(D12-A)*%
X91867073Y-84738323D03*
%TD*%
D12*
%TO.P,SW40,1*%
%TO.N,Col 7*%
X194272449Y-86263805D03*
%TO.P,SW40,2*%
%TO.N,Net-(D40-A)*%
X180910735Y-90706633D03*
%TD*%
D10*
%TO.P,SW27,1*%
%TO.N,Col 0*%
X39100000Y-137795000D03*
%TO.P,SW27,2*%
%TO.N,Net-(D27-A)*%
X25250000Y-140335000D03*
%TD*%
D12*
%TO.P,SW53,1*%
%TO.N,Col 8*%
X217437742Y-121686661D03*
%TO.P,SW53,2*%
%TO.N,Net-(D53-A)*%
X204076028Y-126129489D03*
%TD*%
D10*
%TO.P,SW60,1*%
%TO.N,Col 15*%
X332045000Y-141605000D03*
%TO.P,SW60,2*%
%TO.N,Net-(D60-A)*%
X318195000Y-144145000D03*
%TD*%
%TO.P,SW69,1*%
%TO.N,Col 11*%
X276367811Y-118745000D03*
%TO.P,SW69,2*%
%TO.N,Net-(D70-A)*%
X262517811Y-121285000D03*
%TD*%
%TO.P,SW36,1*%
%TO.N,Col 12*%
X280177811Y-61595000D03*
%TO.P,SW36,2*%
%TO.N,Net-(D36-A)*%
X266327811Y-64135000D03*
%TD*%
D11*
%TO.P,SW19,1*%
%TO.N,Col 4*%
X128830953Y-106649574D03*
%TO.P,SW19,2*%
%TO.N,Net-(D19-A)*%
X114762241Y-107237307D03*
%TD*%
D10*
%TO.P,SW35,1*%
%TO.N,Col 11*%
X261127811Y-61616100D03*
%TO.P,SW35,2*%
%TO.N,Net-(D35-A)*%
X247277811Y-64156100D03*
%TD*%
D11*
%TO.P,SW5,1*%
%TO.N,Col 3*%
X100140606Y-63725150D03*
%TO.P,SW5,2*%
%TO.N,Net-(D5-A)*%
X86071894Y-64312883D03*
%TD*%
D10*
%TO.P,SW49,1*%
%TO.N,Col 10*%
X259333592Y-99199559D03*
%TO.P,SW49,2*%
%TO.N,Net-(D49-A)*%
X245483592Y-101739559D03*
%TD*%
D13*
%TO.P,SW2,A,A*%
%TO.N,ENC_A*%
X340481295Y-61550000D03*
D14*
%TO.P,SW2,B,B*%
%TO.N,ENC_B*%
X340481295Y-66550000D03*
%TO.P,SW2,C,C*%
%TO.N,GND*%
X340481295Y-64050000D03*
D15*
%TO.P,SW2,MP*%
%TO.N,N/C*%
X347981295Y-58450000D03*
X347981295Y-69650000D03*
D14*
%TO.P,SW2,S1,S1*%
%TO.N,ENC_S1*%
X354981295Y-61550000D03*
%TO.P,SW2,S2,S2*%
%TO.N,GND*%
X354981295Y-66550000D03*
%TD*%
D10*
%TO.P,SW59,1*%
%TO.N,Col 14*%
X313195000Y-141605000D03*
%TO.P,SW59,2*%
%TO.N,Net-(D59-A)*%
X299345000Y-144145000D03*
%TD*%
D12*
%TO.P,SW41,1*%
%TO.N,Col 6*%
X180959280Y-107675099D03*
%TO.P,SW41,2*%
%TO.N,Net-(D41-A)*%
X167597566Y-112117927D03*
%TD*%
%TO.P,SW56,1*%
%TO.N,Col 6*%
X199321787Y-143467012D03*
%TO.P,SW56,2*%
%TO.N,Net-(D56-A)*%
X185960073Y-147909840D03*
%TD*%
D10*
%TO.P,SW10,1*%
%TO.N,Col 1*%
X65980000Y-80645000D03*
%TO.P,SW10,2*%
%TO.N,Net-(D10-A)*%
X52130000Y-83185000D03*
%TD*%
D11*
%TO.P,SW11,1*%
%TO.N,Col 2*%
X87078111Y-81500000D03*
%TO.P,SW11,2*%
%TO.N,Net-(D11-A)*%
X73009397Y-82087733D03*
%TD*%
D10*
%TO.P,SW46,1*%
%TO.N,Col 10*%
X253515000Y-80150000D03*
%TO.P,SW46,2*%
%TO.N,Net-(D46-A)*%
X239664999Y-82690000D03*
%TD*%
D11*
%TO.P,SW31,1*%
%TO.N,Col 4*%
X116021787Y-143750000D03*
%TO.P,SW31,2*%
%TO.N,Net-(D31-A)*%
X101953075Y-144337733D03*
%TD*%
D10*
%TO.P,SW68,1*%
%TO.N,Col 11*%
X278410311Y-99695000D03*
%TO.P,SW68,2*%
%TO.N,Net-(D69-A)*%
X264560311Y-102235000D03*
%TD*%
D11*
%TO.P,SW20,1*%
%TO.N,Col 5*%
X147695560Y-109300821D03*
%TO.P,SW20,2*%
%TO.N,Net-(D20-A)*%
X133626848Y-109888554D03*
%TD*%
D10*
%TO.P,SW63,1*%
%TO.N,Col 16*%
X354351295Y-80645000D03*
%TO.P,SW63,2*%
%TO.N,Net-(D63-A)*%
X340501295Y-83185000D03*
%TD*%
D12*
%TO.P,SW44,1*%
%TO.N,Col 9*%
X231991225Y-80887040D03*
%TO.P,SW44,2*%
%TO.N,Net-(D44-A)*%
X218629511Y-85329868D03*
%TD*%
D16*
%TO.P,D36,1,K*%
%TO.N,Row 0*%
X282852811Y-68918750D03*
D17*
%TO.P,D36,2,A*%
%TO.N,Net-(D36-A)*%
X282852811Y-61298750D03*
%TD*%
D18*
%TO.P,D53,1,K*%
%TO.N,Row 3*%
X221031400Y-128323610D03*
D19*
%TO.P,D53,2,A*%
%TO.N,Net-(D53-A)*%
X219970901Y-120777767D03*
%TD*%
D16*
%TO.P,D65,1,K*%
%TO.N,Row 3*%
X356873795Y-126810000D03*
D17*
%TO.P,D65,2,A*%
%TO.N,Net-(D65-A)*%
X356873795Y-119190000D03*
%TD*%
D16*
%TO.P,D15,1,K*%
%TO.N,Row 2*%
X45755000Y-106835000D03*
D17*
%TO.P,D15,2,A*%
%TO.N,Net-(D15-A)*%
X45755000Y-99215000D03*
%TD*%
D20*
%TO.P,D17,1,K*%
%TO.N,Row 2*%
X92330953Y-109322846D03*
D21*
%TO.P,D17,2,A*%
%TO.N,Net-(D17-A)*%
X93391452Y-101777003D03*
%TD*%
D20*
%TO.P,D26,1,K*%
%TO.N,Row 3*%
X156349936Y-137394913D03*
D21*
%TO.P,D26,2,A*%
%TO.N,Net-(D26-A)*%
X157410435Y-129849070D03*
%TD*%
D20*
%TO.P,D8,1,K*%
%TO.N,Row 0*%
X158318107Y-80902337D03*
D21*
%TO.P,D8,2,A*%
%TO.N,Net-(D8-A)*%
X159378607Y-73356494D03*
%TD*%
D18*
%TO.P,D28,1,K*%
%TO.N,Row 0*%
X186798657Y-75519293D03*
D19*
%TO.P,D28,2,A*%
%TO.N,Net-(D28-A)*%
X185738158Y-67973450D03*
%TD*%
D20*
%TO.P,D11,1,K*%
%TO.N,Row 1*%
X88550731Y-89236489D03*
D21*
%TO.P,D11,2,A*%
%TO.N,Net-(D11-A)*%
X89611230Y-81690646D03*
%TD*%
D16*
%TO.P,D68,1,K*%
%TO.N,Row 1*%
X294352811Y-87882500D03*
D17*
%TO.P,D68,2,A*%
%TO.N,Net-(D68-A)*%
X294352811Y-80262500D03*
%TD*%
D18*
%TO.P,D40,1,K*%
%TO.N,Row 1*%
X197715292Y-92833590D03*
D19*
%TO.P,D40,2,A*%
%TO.N,Net-(D40-A)*%
X196654793Y-85287747D03*
%TD*%
D18*
%TO.P,D38,1,K*%
%TO.N,Row 1*%
X178935688Y-95888940D03*
D19*
%TO.P,D38,2,A*%
%TO.N,Net-(D38-A)*%
X177875189Y-88343097D03*
%TD*%
D20*
%TO.P,D5,1,K*%
%TO.N,Row 0*%
X101734420Y-71272922D03*
D21*
%TO.P,D5,2,A*%
%TO.N,Net-(D5-A)*%
X102794919Y-63727079D03*
%TD*%
D16*
%TO.P,D69,1,K*%
%TO.N,Row 2*%
X281110311Y-106825000D03*
D17*
%TO.P,D69,2,A*%
%TO.N,Net-(D69-A)*%
X281110311Y-99205000D03*
%TD*%
D16*
%TO.P,D22,1,K*%
%TO.N,Row 3*%
X79738750Y-125981250D03*
D17*
%TO.P,D22,2,A*%
%TO.N,Net-(D22-A)*%
X79738750Y-118361250D03*
%TD*%
D16*
%TO.P,D70,1,K*%
%TO.N,Row 3*%
X279030311Y-125825000D03*
D17*
%TO.P,D70,2,A*%
%TO.N,Net-(D70-A)*%
X279030311Y-118205000D03*
%TD*%
D18*
%TO.P,D51,1,K*%
%TO.N,Row 3*%
X183403649Y-133629518D03*
D19*
%TO.P,D51,2,A*%
%TO.N,Net-(D51-A)*%
X182343150Y-126083675D03*
%TD*%
D16*
%TO.P,D48,1,K*%
%TO.N,Row 1*%
X275352811Y-87750000D03*
D17*
%TO.P,D48,2,A*%
%TO.N,Net-(D48-A)*%
X275352811Y-80130000D03*
%TD*%
D18*
%TO.P,D33,1,K*%
%TO.N,Row 0*%
X224387299Y-69997981D03*
D19*
%TO.P,D33,2,A*%
%TO.N,Net-(D33-A)*%
X223326800Y-62452138D03*
%TD*%
D18*
%TO.P,D54,1,K*%
%TO.N,Row 3*%
X239824944Y-125462595D03*
D19*
%TO.P,D54,2,A*%
%TO.N,Net-(D54-A)*%
X238764445Y-117916752D03*
%TD*%
D20*
%TO.P,D6,1,K*%
%TO.N,Row 0*%
X120500000Y-73910252D03*
D21*
%TO.P,D6,2,A*%
%TO.N,Net-(D6-A)*%
X121560499Y-66364409D03*
%TD*%
D22*
%TO.P,U1,1,GPIO0*%
%TO.N,Row 0*%
X26360000Y-36850000D03*
D23*
X26360000Y-35950000D03*
D22*
%TO.P,U1,2,GPIO1*%
%TO.N,Row 1*%
X28900000Y-36850000D03*
D23*
X28900000Y-35950000D03*
D24*
%TO.P,U1,3,GND*%
%TO.N,unconnected-(U1-GND-Pad3)*%
X31440000Y-36850000D03*
D23*
X31440000Y-35950000D03*
D22*
%TO.P,U1,4,GPIO2*%
%TO.N,Row 2*%
X33980000Y-36850000D03*
D23*
X33980000Y-35950000D03*
D22*
%TO.P,U1,5,GPIO3*%
%TO.N,Row 3*%
X36520000Y-36850000D03*
D23*
X36520000Y-35950000D03*
D22*
%TO.P,U1,6,GPIO4*%
%TO.N,Row 4*%
X39060000Y-36850000D03*
D23*
X39060000Y-35950000D03*
D22*
%TO.P,U1,7,GPIO5*%
%TO.N,Col 0*%
X41600000Y-36850000D03*
D23*
X41600000Y-35950000D03*
D24*
%TO.P,U1,8,GND*%
%TO.N,unconnected-(U1-GND-Pad8)*%
X44140000Y-36850000D03*
D23*
X44140000Y-35950000D03*
D22*
%TO.P,U1,9,GPIO6*%
%TO.N,Col 1*%
X46680000Y-36850000D03*
D23*
X46680000Y-35950000D03*
D22*
%TO.P,U1,10,GPIO7*%
%TO.N,Col 2*%
X49220000Y-36850000D03*
D23*
X49220000Y-35950000D03*
D22*
%TO.P,U1,11,GPIO8*%
%TO.N,Col 3*%
X51760000Y-36850000D03*
D23*
X51760000Y-35950000D03*
D22*
%TO.P,U1,12,GPIO9*%
%TO.N,Col 4*%
X54300000Y-36850000D03*
D23*
X54300000Y-35950000D03*
D24*
%TO.P,U1,13,GND*%
%TO.N,unconnected-(U1-GND-Pad13)*%
X56840000Y-36850000D03*
D23*
X56840000Y-35950000D03*
D22*
%TO.P,U1,14,GPIO10*%
%TO.N,Col 5*%
X59380000Y-36850000D03*
D23*
X59380000Y-35950000D03*
D22*
%TO.P,U1,15,GPIO11*%
%TO.N,Col 6*%
X61920000Y-36850000D03*
D23*
X61920000Y-35950000D03*
D22*
%TO.P,U1,16,GPIO12*%
%TO.N,Col 7*%
X64460000Y-36850000D03*
D23*
X64460000Y-35950000D03*
D22*
%TO.P,U1,17,GPIO13*%
%TO.N,Col 8*%
X67000000Y-36850000D03*
D23*
X67000000Y-35950000D03*
D24*
%TO.P,U1,18,GND*%
%TO.N,unconnected-(U1-GND-Pad18)*%
X69540000Y-36850000D03*
D23*
X69540000Y-35950000D03*
D22*
%TO.P,U1,19,GPIO14*%
%TO.N,Col 10*%
X72080000Y-36850000D03*
D23*
X72080000Y-35950000D03*
D22*
%TO.P,U1,20,GPIO15*%
%TO.N,Col 9*%
X74620000Y-36850000D03*
D23*
X74620000Y-35950000D03*
D22*
%TO.P,U1,21,GPIO16*%
%TO.N,Col 11*%
X74620000Y-54630000D03*
D23*
X74620000Y-55530000D03*
D22*
%TO.P,U1,22,GPIO17*%
%TO.N,Col 12*%
X72080000Y-54630000D03*
D23*
X72080000Y-55530000D03*
D24*
%TO.P,U1,23,GND*%
%TO.N,unconnected-(U1-GND-Pad23)*%
X69540000Y-54630000D03*
D23*
X69540000Y-55530000D03*
D22*
%TO.P,U1,24,GPIO18*%
%TO.N,Col 13*%
X67000000Y-54630000D03*
D23*
X67000000Y-55530000D03*
D22*
%TO.P,U1,25,GPIO19*%
%TO.N,Col 14*%
X64460000Y-54630000D03*
D23*
X64460000Y-55530000D03*
D22*
%TO.P,U1,26,GPIO20*%
%TO.N,Col 15*%
X61920000Y-54630000D03*
D23*
X61920000Y-55530000D03*
D22*
%TO.P,U1,27,GPIO21*%
%TO.N,Col 16*%
X59380000Y-54630000D03*
D23*
X59380000Y-55530000D03*
D24*
%TO.P,U1,28,GND*%
%TO.N,unconnected-(U1-GND-Pad28)*%
X56840000Y-54630000D03*
D23*
X56840000Y-55530000D03*
D22*
%TO.P,U1,29,GPIO22*%
%TO.N,ENC_A*%
X54300000Y-54630000D03*
D23*
X54300000Y-55530000D03*
D22*
%TO.P,U1,30,RUN*%
%TO.N,unconnected-(U1-RUN-Pad30)*%
X51760000Y-54630000D03*
D23*
X51760000Y-55530000D03*
D22*
%TO.P,U1,31,GPIO26_ADC0*%
%TO.N,ENC_B*%
X49220000Y-54630000D03*
D23*
X49220000Y-55530000D03*
D22*
%TO.P,U1,32,GPIO27_ADC1*%
%TO.N,ENC_S1*%
X46680000Y-54630000D03*
D23*
X46680000Y-55530000D03*
D24*
%TO.P,U1,33,AGND*%
%TO.N,unconnected-(U1-AGND-Pad33)*%
X44140000Y-54630000D03*
D23*
X44140000Y-55530000D03*
D22*
%TO.P,U1,34,GPIO28_ADC2*%
%TO.N,LEDS*%
X41600000Y-54630000D03*
D23*
X41600000Y-55530000D03*
D22*
%TO.P,U1,35,ADC_VREF*%
%TO.N,unconnected-(U1-ADC_VREF-Pad35)*%
X39060000Y-54630000D03*
D23*
X39060000Y-55530000D03*
D22*
%TO.P,U1,36,3V3*%
%TO.N,unconnected-(U1-3V3-Pad36)*%
X36520000Y-54630000D03*
D23*
X36520000Y-55530000D03*
D22*
%TO.P,U1,37,3V3_EN*%
%TO.N,unconnected-(U1-3V3_EN-Pad37)*%
X33980000Y-54630000D03*
D23*
X33980000Y-55530000D03*
D24*
%TO.P,U1,38,GND*%
%TO.N,unconnected-(U1-GND-Pad38)*%
X31440000Y-54630000D03*
D23*
X31440000Y-55530000D03*
D22*
%TO.P,U1,39,VSYS*%
%TO.N,unconnected-(U1-VSYS-Pad39)*%
X28900000Y-54630000D03*
D23*
X28900000Y-55530000D03*
D22*
%TO.P,U1,40,VBUS*%
%TO.N,unconnected-(U1-VBUS-Pad40)*%
X26360000Y-54630000D03*
D23*
X26360000Y-55530000D03*
D22*
%TO.P,U1,41,SWCLK*%
%TO.N,unconnected-(U1-SWCLK-Pad41)*%
X74390000Y-43200000D03*
D25*
X75290000Y-43200000D03*
D24*
%TO.P,U1,42,GND*%
%TO.N,unconnected-(U1-GND-Pad42)*%
X74390000Y-45740000D03*
D25*
X75290000Y-45740000D03*
D22*
%TO.P,U1,43,SWDIO*%
%TO.N,unconnected-(U1-SWDIO-Pad43)*%
X74390000Y-48280000D03*
D25*
X75290000Y-48280000D03*
%TD*%
D16*
%TO.P,D10,1,K*%
%TO.N,Row 1*%
X68540000Y-88101250D03*
D17*
%TO.P,D10,2,A*%
%TO.N,Net-(D10-A)*%
X68540000Y-80481250D03*
%TD*%
D16*
%TO.P,D2,1,K*%
%TO.N,Row 0*%
X43235000Y-68847500D03*
D17*
%TO.P,D2,2,A*%
%TO.N,Net-(D2-A)*%
X43235000Y-61227500D03*
%TD*%
D16*
%TO.P,D73,1,K*%
%TO.N,Row 2*%
X311987811Y-106810000D03*
D17*
%TO.P,D73,2,A*%
%TO.N,Net-(D73-A)*%
X311987811Y-99190000D03*
%TD*%
D16*
%TO.P,D9,1,K*%
%TO.N,Row 1*%
X44596250Y-88101250D03*
D17*
%TO.P,D9,2,A*%
%TO.N,Net-(D9-A)*%
X44596250Y-80481250D03*
%TD*%
D16*
%TO.P,D4,1,K*%
%TO.N,Row 0*%
X81235000Y-67616250D03*
D17*
%TO.P,D4,2,A*%
%TO.N,Net-(D4-A)*%
X81235000Y-59996250D03*
%TD*%
D18*
%TO.P,D57,1,K*%
%TO.N,Row 4*%
X243660221Y-144500000D03*
D19*
%TO.P,D57,2,A*%
%TO.N,Net-(D57-A)*%
X242599722Y-136954157D03*
%TD*%
D16*
%TO.P,D64,1,K*%
%TO.N,Row 2*%
X356873795Y-109083750D03*
D17*
%TO.P,D64,2,A*%
%TO.N,Net-(D64-A)*%
X356873795Y-101463750D03*
%TD*%
D16*
%TO.P,D35,1,K*%
%TO.N,Row 0*%
X263569061Y-68250000D03*
D17*
%TO.P,D35,2,A*%
%TO.N,Net-(D35-A)*%
X263569061Y-60630000D03*
%TD*%
D18*
%TO.P,D45,1,K*%
%TO.N,Row 2*%
X222471748Y-108813760D03*
D19*
%TO.P,D45,2,A*%
%TO.N,Net-(D45-A)*%
X221411249Y-101267917D03*
%TD*%
D16*
%TO.P,D58,1,K*%
%TO.N,Row 4*%
X269250000Y-145060000D03*
D17*
%TO.P,D58,2,A*%
%TO.N,Net-(D58-A)*%
X269250000Y-137440000D03*
%TD*%
D16*
%TO.P,D74,1,K*%
%TO.N,Row 3*%
X305374061Y-125817500D03*
D17*
%TO.P,D74,2,A*%
%TO.N,Net-(D74-A)*%
X305374061Y-118197500D03*
%TD*%
D20*
%TO.P,D19,1,K*%
%TO.N,Row 2*%
X130464947Y-114064140D03*
D21*
%TO.P,D19,2,A*%
%TO.N,Net-(D19-A)*%
X131525446Y-106518297D03*
%TD*%
D16*
%TO.P,D32,1,K*%
%TO.N,Row 2*%
X72030000Y-107010000D03*
D17*
%TO.P,D32,2,A*%
%TO.N,Net-(D16-A)*%
X72030000Y-99390000D03*
%TD*%
D16*
%TO.P,D21,1,K*%
%TO.N,Row 3*%
X48811250Y-125981250D03*
D17*
%TO.P,D21,2,A*%
%TO.N,Net-(D21-A)*%
X48811250Y-118361250D03*
%TD*%
D18*
%TO.P,D52,1,K*%
%TO.N,Row 3*%
X202201693Y-130863921D03*
D19*
%TO.P,D52,2,A*%
%TO.N,Net-(D52-A)*%
X201141194Y-123318078D03*
%TD*%
D18*
%TO.P,D34,1,K*%
%TO.N,Row 0*%
X243560499Y-67795843D03*
D19*
%TO.P,D34,2,A*%
%TO.N,Net-(D34-A)*%
X242500000Y-60250000D03*
%TD*%
D20*
%TO.P,D18,1,K*%
%TO.N,Row 2*%
X111483062Y-111456999D03*
D21*
%TO.P,D18,2,A*%
%TO.N,Net-(D18-A)*%
X112543561Y-103911156D03*
%TD*%
D18*
%TO.P,D47,1,K*%
%TO.N,Row 2*%
X241369967Y-105711472D03*
D19*
%TO.P,D47,2,A*%
%TO.N,Net-(D47-A)*%
X240309468Y-98165629D03*
%TD*%
D18*
%TO.P,D56,1,K*%
%TO.N,Row 4*%
X202897673Y-150300850D03*
D19*
%TO.P,D56,2,A*%
%TO.N,Net-(D56-A)*%
X201837174Y-142755007D03*
%TD*%
D16*
%TO.P,D49,1,K*%
%TO.N,Row 2*%
X262106985Y-107302037D03*
D17*
%TO.P,D49,2,A*%
%TO.N,Net-(D49-A)*%
X262106985Y-99682037D03*
%TD*%
D20*
%TO.P,D24,1,K*%
%TO.N,Row 3*%
X118719751Y-132106336D03*
D21*
%TO.P,D24,2,A*%
%TO.N,Net-(D24-A)*%
X119780250Y-124560493D03*
%TD*%
D16*
%TO.P,D37,1,K*%
%TO.N,Row 0*%
X311212811Y-68918750D03*
D17*
%TO.P,D37,2,A*%
%TO.N,Net-(D37-A)*%
X311212811Y-61298750D03*
%TD*%
D20*
%TO.P,D23,1,K*%
%TO.N,Row 3*%
X99788301Y-129445694D03*
D21*
%TO.P,D23,2,A*%
%TO.N,Net-(D23-A)*%
X100848800Y-121899851D03*
%TD*%
D16*
%TO.P,D63,1,K*%
%TO.N,Row 1*%
X356873795Y-90283750D03*
D17*
%TO.P,D63,2,A*%
%TO.N,Net-(D63-A)*%
X356873795Y-82663750D03*
%TD*%
D16*
%TO.P,D61,1,K*%
%TO.N,Row 4*%
X353750000Y-148810000D03*
D17*
%TO.P,D61,2,A*%
%TO.N,Net-(D61-A)*%
X353750000Y-141190000D03*
%TD*%
D16*
%TO.P,D59,1,K*%
%TO.N,Row 4*%
X315615939Y-148515000D03*
D17*
%TO.P,D59,2,A*%
%TO.N,Net-(D59-A)*%
X315615939Y-140895000D03*
%TD*%
D16*
%TO.P,D62,1,K*%
%TO.N,Row 3*%
X334750000Y-130560000D03*
D17*
%TO.P,D62,2,A*%
%TO.N,Net-(D62-A)*%
X334750000Y-122940000D03*
%TD*%
D18*
%TO.P,D43,1,K*%
%TO.N,Row 2*%
X203349832Y-111430482D03*
D19*
%TO.P,D43,2,A*%
%TO.N,Net-(D43-A)*%
X202289333Y-103884639D03*
%TD*%
D20*
%TO.P,D13,1,K*%
%TO.N,Row 1*%
X126173985Y-94524409D03*
D21*
%TO.P,D13,2,A*%
%TO.N,Net-(D13-A)*%
X127234484Y-86978566D03*
%TD*%
D20*
%TO.P,D32,1,K*%
%TO.N,Row 4*%
X148265270Y-155365466D03*
D21*
%TO.P,D32,2,A*%
%TO.N,Net-(D32-A)*%
X149325769Y-147819623D03*
%TD*%
D16*
%TO.P,D55,1,K*%
%TO.N,Row 3*%
X259825000Y-125067500D03*
D17*
%TO.P,D55,2,A*%
%TO.N,Net-(D55-A)*%
X259825000Y-117447500D03*
%TD*%
D20*
%TO.P,D12,1,K*%
%TO.N,Row 1*%
X107358890Y-91880121D03*
D21*
%TO.P,D12,2,A*%
%TO.N,Net-(D12-A)*%
X108419389Y-84334278D03*
%TD*%
D20*
%TO.P,D30,1,K*%
%TO.N,Row 4*%
X94009966Y-147927199D03*
D21*
%TO.P,D30,2,A*%
%TO.N,Net-(D30-A)*%
X95070465Y-140381356D03*
%TD*%
D20*
%TO.P,D14,1,K*%
%TO.N,Row 1*%
X145105435Y-97185052D03*
D21*
%TO.P,D14,2,A*%
%TO.N,Net-(D14-A)*%
X146165934Y-89639209D03*
%TD*%
D16*
%TO.P,D46,1,K*%
%TO.N,Row 1*%
X256162811Y-87643965D03*
D17*
%TO.P,D46,2,A*%
%TO.N,Net-(D46-A)*%
X256162811Y-80023965D03*
%TD*%
D16*
%TO.P,D72,1,K*%
%TO.N,Row 1*%
X318372811Y-87947500D03*
D17*
%TO.P,D72,2,A*%
%TO.N,Net-(D72-A)*%
X318372811Y-80327500D03*
%TD*%
D20*
%TO.P,D20,1,K*%
%TO.N,Row 2*%
X149302322Y-116711560D03*
D21*
%TO.P,D20,2,A*%
%TO.N,Net-(D20-A)*%
X150362821Y-109165717D03*
%TD*%
D16*
%TO.P,D3,1,K*%
%TO.N,Row 0*%
X62235000Y-68791250D03*
D17*
%TO.P,D3,2,A*%
%TO.N,Net-(D3-A)*%
X62235000Y-61171250D03*
%TD*%
D16*
%TO.P,D60,1,K*%
%TO.N,Row 4*%
X334617500Y-148828750D03*
D17*
%TO.P,D60,2,A*%
%TO.N,Net-(D60-A)*%
X334617500Y-141208750D03*
%TD*%
D20*
%TO.P,D7,1,K*%
%TO.N,Row 0*%
X139385395Y-76611515D03*
D21*
%TO.P,D7,2,A*%
%TO.N,Net-(D7-A)*%
X140445894Y-69065672D03*
%TD*%
D18*
%TO.P,D44,1,K*%
%TO.N,Row 1*%
X235616859Y-87688641D03*
D19*
%TO.P,D44,2,A*%
%TO.N,Net-(D44-A)*%
X234556360Y-80142798D03*
%TD*%
D18*
%TO.P,D29,1,K*%
%TO.N,Row 0*%
X205627875Y-73038378D03*
D19*
%TO.P,D29,2,A*%
%TO.N,Net-(D29-A)*%
X204567376Y-65492535D03*
%TD*%
D20*
%TO.P,D25,1,K*%
%TO.N,Row 3*%
X137534843Y-134750625D03*
D21*
%TO.P,D25,2,A*%
%TO.N,Net-(D25-A)*%
X138595342Y-127204782D03*
%TD*%
D18*
%TO.P,D42,1,K*%
%TO.N,Row 1*%
X216565874Y-90441819D03*
D19*
%TO.P,D42,2,A*%
%TO.N,Net-(D42-A)*%
X215505375Y-82895976D03*
%TD*%
D16*
%TO.P,D27,1,K*%
%TO.N,Row 4*%
X41735000Y-144935000D03*
D17*
%TO.P,D27,2,A*%
%TO.N,Net-(D27-A)*%
X41735000Y-137315000D03*
%TD*%
D20*
%TO.P,D31,1,K*%
%TO.N,Row 4*%
X117729116Y-151073890D03*
D21*
%TO.P,D31,2,A*%
%TO.N,Net-(D31-A)*%
X118789615Y-143528047D03*
%TD*%
D18*
%TO.P,D41,1,K*%
%TO.N,Row 2*%
X184534739Y-114074771D03*
D19*
%TO.P,D41,2,A*%
%TO.N,Net-(D41-A)*%
X183474240Y-106528928D03*
%TD*%
D26*
%TO.N,Col 0*%
X46250000Y-118750000D03*
X39250000Y-137750000D03*
X40500000Y-61500000D03*
X43250000Y-99750000D03*
X42000000Y-80750000D03*
D27*
%TO.N,ENC_A*%
X58000000Y-50880000D03*
%TO.N,ENC_S1*%
X47500000Y-53380000D03*
%TO.N,ENC_B*%
X50000000Y-53380000D03*
D26*
%TO.N,Col 1*%
X66000000Y-80500000D03*
X59750000Y-61500000D03*
X69250000Y-99750000D03*
X77250000Y-118750000D03*
D27*
%TO.N,Col 2*%
X90500000Y-101250000D03*
X98500000Y-122000000D03*
D26*
X78750000Y-60500000D03*
D27*
X87000000Y-81500000D03*
%TO.N,Col 3*%
X117250000Y-124500000D03*
X100140606Y-63725150D03*
X100140606Y-63725150D03*
X105935785Y-84150590D03*
X92384088Y-140427938D03*
X110000000Y-104000000D03*
%TO.N,Col 4*%
X124750000Y-86750000D03*
X136250000Y-127250000D03*
X128750000Y-106750000D03*
X119005212Y-66376399D03*
X116000000Y-143750000D03*
D26*
%TO.N,Col 5*%
X143664997Y-89095886D03*
D27*
X146500000Y-148000000D03*
D26*
X154962554Y-129836645D03*
X138049830Y-69009895D03*
X147559924Y-108991749D03*
D27*
%TO.N,Col 6*%
X181000000Y-107750000D03*
X199250000Y-143500000D03*
D26*
X175439331Y-88919140D03*
D27*
X156750000Y-71723698D03*
D26*
X179682850Y-126899485D03*
D27*
%TO.N,Col 7*%
X198500000Y-124250000D03*
X183250000Y-68750000D03*
X240081225Y-137828413D03*
X194250000Y-86250000D03*
D26*
X199561084Y-104717457D03*
D27*
%TO.N,Col 8*%
X213137055Y-83612558D03*
X202042574Y-66146535D03*
X217250000Y-121750000D03*
X218750000Y-102250000D03*
X266250000Y-137500000D03*
%TO.N,Col 9*%
X236302349Y-119035413D03*
X232000000Y-81000000D03*
X220907181Y-63495287D03*
X237521787Y-99498545D03*
D26*
%TO.N,Col 10*%
X257472189Y-118000000D03*
D27*
X239771787Y-60844040D03*
D26*
X259410465Y-99324979D03*
D27*
X253500000Y-80000000D03*
D26*
%TO.N,Col 11*%
X272750000Y-80500000D03*
X276500000Y-118750000D03*
X278500000Y-99750000D03*
D27*
X261127811Y-61616100D03*
X76000000Y-54130000D03*
D26*
%TO.N,Col 12*%
X280250000Y-61500000D03*
X291500000Y-80500000D03*
D27*
X73000000Y-53630000D03*
D26*
X309250000Y-99750000D03*
X302750000Y-118750000D03*
D27*
%TO.N,Col 13*%
X68000000Y-53380000D03*
D26*
X315750000Y-80500000D03*
X308750000Y-61750000D03*
D27*
%TO.N,Col 14*%
X65250000Y-53380000D03*
D26*
X313115939Y-141560000D03*
D27*
%TO.N,Col 15*%
X332115939Y-122560000D03*
X332115939Y-122560000D03*
D26*
X332115939Y-141560000D03*
D27*
X62750000Y-53380000D03*
%TO.N,Col 16*%
X354458484Y-99750000D03*
X60250000Y-53380000D03*
X354458484Y-118750000D03*
D26*
X354351295Y-80645000D03*
D27*
X351000000Y-141500000D03*
%TD*%
D28*
%TO.N,Net-(D2-A)*%
X35500000Y-63500000D02*
X42093870Y-63500000D01*
X34285000Y-62285000D02*
X35500000Y-63500000D01*
X43235000Y-62358870D02*
X43235000Y-61227500D01*
X26606250Y-64135000D02*
X28456250Y-62285000D01*
X42093870Y-63500000D02*
X43235000Y-62358870D01*
X28456250Y-62285000D02*
X34285000Y-62285000D01*
%TO.N,Row 0*%
X24750000Y-38460000D02*
X26360000Y-36850000D01*
X84891672Y-71272922D02*
X81235000Y-67616250D01*
X80628750Y-67791250D02*
X81235000Y-67185000D01*
X43063600Y-69018900D02*
X28365150Y-69018900D01*
X28365150Y-69018900D02*
X24750000Y-65403750D01*
X203146960Y-75519293D02*
X186798657Y-75519293D01*
X120500000Y-73910252D02*
X104371750Y-73910252D01*
X186798657Y-75519293D02*
X186230707Y-75519293D01*
X104371750Y-73910252D02*
X101734420Y-71272922D01*
X282852811Y-68918750D02*
X282952961Y-69018900D01*
X264337961Y-69018900D02*
X263569061Y-68250000D01*
X43235000Y-68847500D02*
X43063600Y-69018900D01*
X224002019Y-69997981D02*
X220961622Y-73038378D01*
X262779061Y-69040000D02*
X244200512Y-69040000D01*
X263468911Y-68343900D02*
X263569061Y-68243750D01*
X180847663Y-80902337D02*
X158318107Y-80902337D01*
X143676217Y-80902337D02*
X139385395Y-76611515D01*
X186230707Y-75519293D02*
X180847663Y-80902337D01*
X224387299Y-69997981D02*
X224002019Y-69997981D01*
X24750000Y-65403750D02*
X24750000Y-38460000D01*
X43406400Y-69018900D02*
X62007350Y-69018900D01*
X263569061Y-68250000D02*
X262779061Y-69040000D01*
X81235000Y-67616250D02*
X80060000Y-68791250D01*
X220961622Y-73038378D02*
X205627875Y-73038378D01*
X242852811Y-68000000D02*
X243196711Y-68343900D01*
X244200512Y-69040000D02*
X243037578Y-67877066D01*
X282752661Y-69018900D02*
X264337961Y-69018900D01*
X243037578Y-67877066D02*
X240916663Y-69997981D01*
X158318107Y-80902337D02*
X143676217Y-80902337D01*
X139385395Y-76611515D02*
X123201263Y-76611515D01*
X123201263Y-76611515D02*
X120500000Y-73910252D01*
X101734420Y-71272922D02*
X84891672Y-71272922D01*
X311112661Y-69018900D02*
X311212811Y-68918750D01*
X43235000Y-68847500D02*
X43406400Y-69018900D01*
X205627875Y-73038378D02*
X203146960Y-75519293D01*
X282852811Y-68918750D02*
X282752661Y-69018900D01*
X240916663Y-69997981D02*
X224387299Y-69997981D01*
X80060000Y-68791250D02*
X62235000Y-68791250D01*
X263569061Y-68243750D02*
X264344211Y-69018900D01*
X62007350Y-69018900D02*
X62235000Y-68791250D01*
X282952961Y-69018900D02*
X311112661Y-69018900D01*
%TO.N,Net-(D3-A)*%
X53829955Y-62285000D02*
X54989955Y-63445000D01*
X47506250Y-62285000D02*
X53829955Y-62285000D01*
X62235000Y-61991250D02*
X62235000Y-61171250D01*
X45656250Y-64135000D02*
X47506250Y-62285000D01*
X60781250Y-63445000D02*
X62235000Y-61991250D01*
X54989955Y-63445000D02*
X60781250Y-63445000D01*
%TO.N,Net-(D4-A)*%
X81235000Y-60065000D02*
X81235000Y-60042500D01*
X70773750Y-60678750D02*
X72845000Y-62750000D01*
X81235000Y-60866250D02*
X81235000Y-59996250D01*
X81235000Y-60435000D02*
X81235000Y-59565000D01*
X64706250Y-62528750D02*
X66556250Y-60678750D01*
X66556250Y-60678750D02*
X70773750Y-60678750D01*
X72845000Y-62750000D02*
X79351250Y-62750000D01*
X79351250Y-62750000D02*
X81235000Y-60866250D01*
%TO.N,Net-(D5-A)*%
X87399994Y-62984783D02*
X93592339Y-62984783D01*
X102794919Y-65205081D02*
X102794919Y-63727079D01*
X86071894Y-64312883D02*
X87399994Y-62984783D01*
X96357556Y-65750000D02*
X102250000Y-65750000D01*
X102250000Y-65750000D02*
X102794919Y-65205081D01*
X93592339Y-62984783D02*
X96357556Y-65750000D01*
%TO.N,Net-(D6-A)*%
X120964598Y-68091680D02*
X121560499Y-67495779D01*
X110825413Y-64004500D02*
X114912593Y-68091680D01*
X104936500Y-66964132D02*
X104936500Y-65701848D01*
X106633848Y-64004500D02*
X110825413Y-64004500D01*
X121560499Y-67495779D02*
X121560499Y-66364409D01*
X114912593Y-68091680D02*
X120964598Y-68091680D01*
X104936500Y-65701848D02*
X106633848Y-64004500D01*
%TO.N,Net-(D7-A)*%
X139103496Y-70792943D02*
X140445894Y-69450545D01*
X140445894Y-69450545D02*
X140445894Y-69065672D01*
X133797987Y-70792943D02*
X139103496Y-70792943D01*
X123821894Y-69665395D02*
X125149994Y-68337295D01*
X125149994Y-68337295D02*
X131342339Y-68337295D01*
X131342339Y-68337295D02*
X133797987Y-70792943D01*
%TO.N,Net-(D8-A)*%
X159290910Y-73444191D02*
X159378607Y-73356494D01*
X150206945Y-70988543D02*
X152662593Y-73444191D01*
X142686500Y-72316643D02*
X144014600Y-70988543D01*
X152662593Y-73444191D02*
X159290910Y-73444191D01*
X144014600Y-70988543D02*
X150206945Y-70988543D01*
%TO.N,Net-(D9-A)*%
X36403705Y-81335000D02*
X37563705Y-82495000D01*
X28230000Y-83185000D02*
X30080000Y-81335000D01*
X30080000Y-81335000D02*
X36403705Y-81335000D01*
X44596250Y-81253750D02*
X44596250Y-80481250D01*
X43355000Y-82495000D02*
X44596250Y-81253750D01*
X37563705Y-82495000D02*
X43355000Y-82495000D01*
%TO.N,Row 1*%
X232863681Y-90441819D02*
X235616859Y-87688641D01*
X88550731Y-89236489D02*
X87759557Y-88445315D01*
X107358890Y-91880121D02*
X110003178Y-94524409D01*
X275352811Y-87750000D02*
X275671711Y-88068900D01*
X275671711Y-88068900D02*
X294166411Y-88068900D01*
X256996711Y-87993900D02*
X275108911Y-87993900D01*
X256118135Y-87688641D02*
X256162811Y-87643965D01*
X128834628Y-97185052D02*
X145105435Y-97185052D01*
X318372811Y-87947500D02*
X319197500Y-87947500D01*
X88550731Y-89236489D02*
X91194363Y-91880121D01*
X25210000Y-33900000D02*
X27510000Y-33900000D01*
X178935688Y-95888940D02*
X194659942Y-95888940D01*
X177596667Y-97227961D02*
X178935688Y-95888940D01*
X321533750Y-90283750D02*
X356873795Y-90283750D01*
X28900000Y-36010000D02*
X28900000Y-37570000D01*
X110003178Y-94524409D02*
X126173985Y-94524409D01*
X27510000Y-33900000D02*
X28900000Y-35290000D01*
X214174103Y-92833590D02*
X216565874Y-90441819D01*
X87759557Y-88445315D02*
X68212887Y-88445315D01*
X28900000Y-35290000D02*
X28900000Y-36850000D01*
X126173985Y-94524409D02*
X128834628Y-97185052D01*
X30021250Y-88101250D02*
X24350000Y-82430000D01*
X317990311Y-88330000D02*
X318372811Y-87947500D01*
X194659942Y-95888940D02*
X197715292Y-92833590D01*
X216565874Y-90441819D02*
X232863681Y-90441819D01*
X319197500Y-87947500D02*
X321533750Y-90283750D01*
X197715292Y-92833590D02*
X214174103Y-92833590D01*
X275108911Y-87993900D02*
X275352811Y-87750000D01*
X235473480Y-88851299D02*
X236555779Y-87769000D01*
X24350000Y-82430000D02*
X24350000Y-34760000D01*
X145105435Y-97185052D02*
X145148344Y-97227961D01*
X235616859Y-87688641D02*
X256118135Y-87688641D01*
X24350000Y-34760000D02*
X25210000Y-33900000D01*
X44596250Y-88101250D02*
X68540000Y-88101250D01*
X44596250Y-88101250D02*
X30021250Y-88101250D01*
X145148344Y-97227961D02*
X177596667Y-97227961D01*
X294166411Y-88068900D02*
X294352811Y-87882500D01*
X91194363Y-91880121D02*
X107358890Y-91880121D01*
X294352811Y-88330000D02*
X317990311Y-88330000D01*
%TO.N,Net-(D10-A)*%
X52130000Y-83185000D02*
X54565000Y-80750000D01*
X61463705Y-82495000D02*
X67255000Y-82495000D01*
X67255000Y-82495000D02*
X68540000Y-81210000D01*
X54565000Y-80750000D02*
X59718705Y-80750000D01*
X68540000Y-81210000D02*
X68540000Y-80481250D01*
X59718705Y-80750000D02*
X61463705Y-82495000D01*
%TO.N,Net-(D11-A)*%
X88291001Y-83215281D02*
X89611230Y-81895052D01*
X89611230Y-81895052D02*
X89611230Y-81690646D01*
X74337497Y-80759633D02*
X80529841Y-80759633D01*
X80529841Y-80759633D02*
X82985489Y-83215281D01*
X73009397Y-82087733D02*
X74337497Y-80759633D01*
X82985489Y-83215281D02*
X88291001Y-83215281D01*
%TO.N,Net-(D12-A)*%
X108419389Y-84595157D02*
X108419389Y-84334278D01*
X91867073Y-84738323D02*
X93195173Y-83410223D01*
X93195173Y-83410223D02*
X99387518Y-83410223D01*
X107148675Y-85865871D02*
X108419389Y-84595157D01*
X99387518Y-83410223D02*
X101843166Y-85865871D01*
X101843166Y-85865871D02*
X107148675Y-85865871D01*
%TO.N,Net-(D13-A)*%
X120707771Y-88517118D02*
X126827302Y-88517118D01*
X110731678Y-87389570D02*
X112059778Y-86061470D01*
X126827302Y-88517118D02*
X127234484Y-88109936D01*
X112059778Y-86061470D02*
X118252123Y-86061470D01*
X118252123Y-86061470D02*
X120707771Y-88517118D01*
X127234484Y-88109936D02*
X127234484Y-86978566D01*
%TO.N,Net-(D14-A)*%
X139418366Y-91168366D02*
X144877887Y-91168366D01*
X129596285Y-90040818D02*
X130924385Y-88712718D01*
X144877887Y-91168366D02*
X146165934Y-89880319D01*
X136962718Y-88712718D02*
X139418366Y-91168366D01*
X146165934Y-89880319D02*
X146165934Y-89639209D01*
X130924385Y-88712718D02*
X136962718Y-88712718D01*
%TO.N,Row 2*%
X281404211Y-107118900D02*
X281110311Y-106825000D01*
X238267679Y-108813760D02*
X241369967Y-105711472D01*
X23950000Y-34594314D02*
X25044314Y-33500000D01*
X133112367Y-116711560D02*
X149302322Y-116711560D01*
X71921100Y-107118900D02*
X46038900Y-107118900D01*
X92330953Y-109322846D02*
X94465106Y-111456999D01*
X45471100Y-107118900D02*
X45755000Y-106835000D01*
X281110311Y-106825000D02*
X280816411Y-107118900D01*
X23950000Y-99950000D02*
X23950000Y-34594314D01*
X23950000Y-99950000D02*
X31118900Y-107118900D01*
X33980000Y-35290000D02*
X33980000Y-36850000D01*
X261925000Y-106825000D02*
X261900537Y-106849463D01*
X280816411Y-107118900D02*
X262404211Y-107118900D01*
X219855026Y-111430482D02*
X222471748Y-108813760D01*
X314261561Y-109083750D02*
X356873795Y-109083750D01*
X311678911Y-107118900D02*
X281404211Y-107118900D01*
X181897950Y-116711560D02*
X184534739Y-114074771D01*
X262110311Y-106825000D02*
X261925000Y-106825000D01*
X114090203Y-114064140D02*
X130464947Y-114064140D01*
X130464947Y-114064140D02*
X133112367Y-116711560D01*
X111483062Y-111456999D02*
X114090203Y-114064140D01*
X311987811Y-106810000D02*
X311678911Y-107118900D01*
X72030000Y-107010000D02*
X71921100Y-107118900D01*
X262404211Y-107118900D02*
X262110311Y-106825000D01*
X241369967Y-105711472D02*
X242960532Y-107302037D01*
X31118900Y-107118900D02*
X45471100Y-107118900D01*
X33980000Y-37570000D02*
X33980000Y-35330000D01*
X149302322Y-116711560D02*
X181897950Y-116711560D01*
X222471748Y-108813760D02*
X238267679Y-108813760D01*
X200705543Y-114074771D02*
X203349832Y-111430482D01*
X25044314Y-33500000D02*
X32190000Y-33500000D01*
X74342846Y-109322846D02*
X92330953Y-109322846D01*
X46038900Y-107118900D02*
X45755000Y-106835000D01*
X32190000Y-33500000D02*
X33980000Y-35290000D01*
X94465106Y-111456999D02*
X111483062Y-111456999D01*
X203349832Y-111430482D02*
X219855026Y-111430482D01*
X311987811Y-106810000D02*
X314261561Y-109083750D01*
X184534739Y-114074771D02*
X200705543Y-114074771D01*
X72030000Y-107010000D02*
X74342846Y-109322846D01*
X33980000Y-35330000D02*
X32750000Y-34100000D01*
X242960532Y-107302037D02*
X262106985Y-107302037D01*
%TO.N,Net-(D15-A)*%
X45755000Y-100185000D02*
X45755000Y-99215000D01*
X38603705Y-101545000D02*
X44395000Y-101545000D01*
X44395000Y-101545000D02*
X45755000Y-100185000D01*
X29270000Y-102235000D02*
X31120000Y-100385000D01*
X31120000Y-100385000D02*
X37443705Y-100385000D01*
X37443705Y-100385000D02*
X38603705Y-101545000D01*
%TO.N,Net-(D16-A)*%
X63653705Y-100385000D02*
X65018705Y-101750000D01*
X65018705Y-101750000D02*
X70500000Y-101750000D01*
X57330000Y-100385000D02*
X63653705Y-100385000D01*
X72030000Y-100220000D02*
X72030000Y-99390000D01*
X70500000Y-101750000D02*
X72030000Y-100220000D01*
X55480000Y-102235000D02*
X57330000Y-100385000D01*
%TO.N,Net-(D17-A)*%
X77853089Y-100604470D02*
X84045432Y-100604470D01*
X86501080Y-103060118D02*
X92108337Y-103060118D01*
X76524989Y-101932570D02*
X77853089Y-100604470D01*
X92108337Y-103060118D02*
X93391452Y-101777003D01*
X84045432Y-100604470D02*
X86501080Y-103060118D01*
%TO.N,Net-(D18-A)*%
X105873728Y-105713608D02*
X112036392Y-105713608D01*
X95897635Y-104586060D02*
X97225735Y-103257960D01*
X103418080Y-103257960D02*
X105873728Y-105713608D01*
X112543561Y-105206439D02*
X112543561Y-103911156D01*
X97225735Y-103257960D02*
X103418080Y-103257960D01*
X112036392Y-105713608D02*
X112543561Y-105206439D01*
%TO.N,Net-(D19-A)*%
X114762241Y-107237307D02*
X116090341Y-105909207D01*
X131250000Y-108500000D02*
X131525446Y-108224554D01*
X131525446Y-108224554D02*
X131525446Y-106518297D01*
X116090341Y-105909207D02*
X122282686Y-105909207D01*
X124873479Y-108500000D02*
X131250000Y-108500000D01*
X122282686Y-105909207D02*
X124873479Y-108500000D01*
%TO.N,Net-(D20-A)*%
X141060454Y-108560454D02*
X143516102Y-111016102D01*
X134954948Y-108560454D02*
X141060454Y-108560454D01*
X143516102Y-111016102D02*
X149983898Y-111016102D01*
X149983898Y-111016102D02*
X150362821Y-110637179D01*
X150362821Y-110637179D02*
X150362821Y-109165717D01*
X133626848Y-109888554D02*
X134954948Y-108560454D01*
%TO.N,Row 3*%
X48998900Y-126168900D02*
X79551100Y-126168900D01*
X260926400Y-126168900D02*
X278686411Y-126168900D01*
X79738750Y-125981250D02*
X83203194Y-129445694D01*
X79551100Y-126168900D02*
X79738750Y-125981250D01*
X137534843Y-134750625D02*
X140179131Y-137394913D01*
X34330000Y-33100000D02*
X36520000Y-35290000D01*
X183403649Y-133629518D02*
X199436096Y-133629518D01*
X156349936Y-137394913D02*
X179638254Y-137394913D01*
X305374061Y-125817500D02*
X309535461Y-129978900D01*
X48623600Y-126168900D02*
X48811250Y-125981250D01*
X118719751Y-132106336D02*
X121364040Y-134750625D01*
X140179131Y-137394913D02*
X156349936Y-137394913D01*
X354075045Y-129608750D02*
X356873795Y-126810000D01*
X259825000Y-125067500D02*
X260926400Y-126168900D01*
X239956249Y-125593900D02*
X259298600Y-125593900D01*
X202201693Y-130863921D02*
X218491089Y-130863921D01*
X279374211Y-126168900D02*
X305022661Y-126168900D01*
X279030311Y-125825000D02*
X279374211Y-126168900D01*
X305022661Y-126168900D02*
X305374061Y-125817500D01*
X24878628Y-33100000D02*
X34330000Y-33100000D01*
X239824944Y-125462595D02*
X239956249Y-125593900D01*
X23550000Y-34428628D02*
X24878628Y-33100000D01*
X83203194Y-129445694D02*
X99788301Y-129445694D01*
X278686411Y-126168900D02*
X279030311Y-125825000D01*
X102448943Y-132106336D02*
X118719751Y-132106336D01*
X23550000Y-115515000D02*
X23550000Y-34428628D01*
X34203900Y-126168900D02*
X48623600Y-126168900D01*
X335908795Y-129608750D02*
X354075045Y-129608750D01*
X199436096Y-133629518D02*
X202201693Y-130863921D01*
X179638254Y-137394913D02*
X183403649Y-133629518D01*
X23550000Y-115515000D02*
X34203900Y-126168900D01*
X36520000Y-37570000D02*
X36520000Y-36010000D01*
X121364040Y-134750625D02*
X137534843Y-134750625D01*
X218491089Y-130863921D02*
X221031400Y-128323610D01*
X259298600Y-125593900D02*
X259825000Y-125067500D01*
X335538645Y-129978900D02*
X335908795Y-129608750D01*
X36520000Y-35290000D02*
X36520000Y-36850000D01*
X99788301Y-129445694D02*
X102448943Y-132106336D01*
X48811250Y-125981250D02*
X48998900Y-126168900D01*
X309535461Y-129978900D02*
X335538645Y-129978900D01*
X221031400Y-128323610D02*
X236963929Y-128323610D01*
X236963929Y-128323610D02*
X239824944Y-125462595D01*
%TO.N,Net-(D21-A)*%
X48811250Y-119492620D02*
X48811250Y-118361250D01*
X47553870Y-120750000D02*
X48811250Y-119492620D01*
X32445000Y-121285000D02*
X34295000Y-119435000D01*
X34295000Y-119435000D02*
X40435000Y-119435000D01*
X40435000Y-119435000D02*
X41750000Y-120750000D01*
X41750000Y-120750000D02*
X47553870Y-120750000D01*
%TO.N,Net-(D22-A)*%
X72723705Y-120595000D02*
X78636370Y-120595000D01*
X65425000Y-119250000D02*
X71378705Y-119250000D01*
X63390000Y-121285000D02*
X65425000Y-119250000D01*
X71378705Y-119250000D02*
X72723705Y-120595000D01*
X79738750Y-119492620D02*
X79738750Y-118361250D01*
X78636370Y-120595000D02*
X79738750Y-119492620D01*
%TO.N,Net-(D23-A)*%
X99615546Y-123658870D02*
X100848800Y-122425616D01*
X100848800Y-122425616D02*
X100848800Y-121899851D01*
X93408870Y-123658870D02*
X99615546Y-123658870D01*
X90953222Y-121203222D02*
X93408870Y-123658870D01*
X85662044Y-121203222D02*
X90953222Y-121203222D01*
X84333944Y-122531322D02*
X85662044Y-121203222D01*
%TO.N,Net-(D24-A)*%
X113174645Y-126310118D02*
X118480154Y-126310118D01*
X103198552Y-125182570D02*
X104526652Y-123854470D01*
X104526652Y-123854470D02*
X110718997Y-123854470D01*
X119780250Y-125010022D02*
X119780250Y-124560493D01*
X110718997Y-123854470D02*
X113174645Y-126310118D01*
X118480154Y-126310118D02*
X119780250Y-125010022D01*
%TO.N,Net-(D25-A)*%
X137344759Y-128961365D02*
X138595342Y-127710782D01*
X138595342Y-127710782D02*
X138595342Y-127204782D01*
X132039250Y-128961365D02*
X137344759Y-128961365D01*
X129583602Y-126505717D02*
X132039250Y-128961365D01*
X122063157Y-127833817D02*
X123391257Y-126505717D01*
X123391257Y-126505717D02*
X129583602Y-126505717D01*
%TO.N,Net-(D26-A)*%
X142255865Y-129156965D02*
X148448210Y-129156965D01*
X140927765Y-130485065D02*
X142255865Y-129156965D01*
X157410435Y-130411545D02*
X157410435Y-129849070D01*
X156209367Y-131612613D02*
X157410435Y-130411545D01*
X150903858Y-131612613D02*
X156209367Y-131612613D01*
X148448210Y-129156965D02*
X150903858Y-131612613D01*
%TO.N,Net-(D27-A)*%
X27100000Y-138485000D02*
X33235000Y-138485000D01*
X34395000Y-139645000D02*
X40375000Y-139645000D01*
X41735000Y-138285000D02*
X41735000Y-137315000D01*
X33235000Y-138485000D02*
X34395000Y-139645000D01*
X25250000Y-140335000D02*
X27100000Y-138485000D01*
X40375000Y-139645000D02*
X41735000Y-138285000D01*
%TO.N,Row 4*%
X41735000Y-144935000D02*
X41451100Y-145218900D01*
X269091100Y-145218900D02*
X269250000Y-145060000D01*
X97156657Y-151073890D02*
X117729116Y-151073890D01*
X315468750Y-148515000D02*
X315982650Y-149028900D01*
X273218900Y-149028900D02*
X315102039Y-149028900D01*
X243660221Y-144500000D02*
X244379121Y-145218900D01*
X148265270Y-155365466D02*
X197833057Y-155365466D01*
X315982650Y-149028900D02*
X334417350Y-149028900D01*
X315102039Y-149028900D02*
X315615939Y-148515000D01*
X39060000Y-36010000D02*
X39060000Y-37570000D01*
X334817650Y-149028900D02*
X350500000Y-149028900D01*
X94009966Y-147927199D02*
X97156657Y-151073890D01*
X244379121Y-145218900D02*
X269091100Y-145218900D01*
X23150000Y-141400000D02*
X23150000Y-34262942D01*
X39060000Y-35290000D02*
X39060000Y-36850000D01*
X117729116Y-151073890D02*
X122020692Y-155365466D01*
X350718900Y-148810000D02*
X350500000Y-149028900D01*
X353750000Y-148810000D02*
X350718900Y-148810000D01*
X44727199Y-147927199D02*
X94009966Y-147927199D01*
X202897673Y-150300850D02*
X237859371Y-150300850D01*
X334617500Y-148828750D02*
X334817650Y-149028900D01*
X36470000Y-32700000D02*
X39060000Y-35290000D01*
X334417350Y-149028900D02*
X334617500Y-148828750D01*
X197833057Y-155365466D02*
X202897673Y-150300850D01*
X41735000Y-144935000D02*
X44727199Y-147927199D01*
X26968900Y-145218900D02*
X23150000Y-141400000D01*
X41451100Y-145218900D02*
X26968900Y-145218900D01*
X122020692Y-155365466D02*
X148265270Y-155365466D01*
X237859371Y-150300850D02*
X243660221Y-144500000D01*
X314954850Y-149028900D02*
X315468750Y-148515000D01*
X24712942Y-32700000D02*
X36470000Y-32700000D01*
X23150000Y-34262942D02*
X24712942Y-32700000D01*
X269250000Y-145060000D02*
X273218900Y-149028900D01*
%TO.N,Net-(D28-A)*%
X172306864Y-70750000D02*
X178278484Y-70750000D01*
X178698166Y-71169682D02*
X183727279Y-71169682D01*
X183727279Y-71169682D02*
X185738158Y-69158803D01*
X178278484Y-70750000D02*
X178698166Y-71169682D01*
X185738158Y-69158803D02*
X185738158Y-67973450D01*
X169816253Y-73240611D02*
X172306864Y-70750000D01*
%TO.N,Net-(D29-A)*%
X196717464Y-68217464D02*
X197250000Y-68750000D01*
X202360320Y-68750000D02*
X204567376Y-66542944D01*
X204567376Y-66542944D02*
X204567376Y-65492535D01*
X191052759Y-68217464D02*
X196717464Y-68217464D01*
X197250000Y-68750000D02*
X202360320Y-68750000D01*
X188680860Y-70589363D02*
X191052759Y-68217464D01*
%TO.N,Net-(D30-A)*%
X78315376Y-141015671D02*
X79643476Y-139687571D01*
X85687571Y-139687571D02*
X88143219Y-142143219D01*
X79643476Y-139687571D02*
X85687571Y-139687571D01*
X93596978Y-142143219D02*
X95070465Y-140669732D01*
X95070465Y-140669732D02*
X95070465Y-140381356D01*
X88143219Y-142143219D02*
X93596978Y-142143219D01*
%TO.N,Net-(D31-A)*%
X101953075Y-144337733D02*
X103281175Y-143009633D01*
X117983751Y-145465281D02*
X118789615Y-144659417D01*
X109473520Y-143009633D02*
X111929168Y-145465281D01*
X118789615Y-144659417D02*
X118789615Y-143528047D01*
X103281175Y-143009633D02*
X109473520Y-143009633D01*
X111929168Y-145465281D02*
X117983751Y-145465281D01*
%TO.N,Net-(D32-A)*%
X132564188Y-148554008D02*
X133892288Y-147225908D01*
X149325769Y-148201577D02*
X149325769Y-147819623D01*
X142431556Y-149681556D02*
X147845790Y-149681556D01*
X139975908Y-147225908D02*
X142431556Y-149681556D01*
X147845790Y-149681556D02*
X149325769Y-148201577D01*
X133892288Y-147225908D02*
X139975908Y-147225908D01*
%TO.N,Net-(D33-A)*%
X223326800Y-63996879D02*
X223326800Y-62452138D01*
X215166108Y-65867186D02*
X221456493Y-65867186D01*
X209917366Y-65566216D02*
X214865138Y-65566216D01*
X214865138Y-65566216D02*
X215166108Y-65867186D01*
X221456493Y-65867186D02*
X223326800Y-63996879D01*
X207545467Y-67938115D02*
X209917366Y-65566216D01*
%TO.N,Net-(D34-A)*%
X241977079Y-61559959D02*
X241977079Y-60331223D01*
X228859964Y-62836977D02*
X234913024Y-62836977D01*
X235291986Y-63215939D02*
X240321099Y-63215939D01*
X240321099Y-63215939D02*
X241977079Y-61559959D01*
X226410073Y-65286868D02*
X228859964Y-62836977D01*
X234913024Y-62836977D02*
X235291986Y-63215939D01*
%TO.N,Net-(D35-A)*%
X247277811Y-64156100D02*
X249127811Y-62306100D01*
X263569061Y-61603750D02*
X263569061Y-60623750D01*
X256796100Y-63796100D02*
X262453900Y-63796100D01*
X262453900Y-63796100D02*
X263569061Y-62680939D01*
X249127811Y-62306100D02*
X255306100Y-62306100D01*
X263569061Y-62680939D02*
X263569061Y-60630000D01*
X247277811Y-64156100D02*
X248250000Y-64156100D01*
X255306100Y-62306100D02*
X256796100Y-63796100D01*
%TO.N,Net-(D36-A)*%
X282852811Y-62647189D02*
X282852811Y-61298750D01*
X274501516Y-62285000D02*
X275661516Y-63445000D01*
X275661516Y-63445000D02*
X282055000Y-63445000D01*
X282055000Y-63445000D02*
X282852811Y-62647189D01*
X266327811Y-64135000D02*
X268177811Y-62285000D01*
X268177811Y-62285000D02*
X274501516Y-62285000D01*
%TO.N,Net-(D37-A)*%
X296752811Y-62285000D02*
X303035000Y-62285000D01*
X309972811Y-63500000D02*
X311212811Y-62260000D01*
X303035000Y-62285000D02*
X304250000Y-63500000D01*
X311212811Y-62260000D02*
X311212811Y-61298750D01*
X294902811Y-64135000D02*
X296752811Y-62285000D01*
X304250000Y-63500000D02*
X309972811Y-63500000D01*
%TO.N,Net-(D38-A)*%
X164418027Y-91049030D02*
X169549030Y-91049030D01*
X162046128Y-93420929D02*
X164418027Y-91049030D01*
X175807154Y-91500000D02*
X177875189Y-89431965D01*
X170000000Y-91500000D02*
X175807154Y-91500000D01*
X177875189Y-89431965D02*
X177875189Y-88343097D01*
X169549030Y-91049030D02*
X170000000Y-91500000D01*
%TO.N,Net-(D40-A)*%
X180910735Y-90706633D02*
X183570840Y-88046528D01*
X194821761Y-88635704D02*
X196654793Y-86802672D01*
X189203472Y-88046528D02*
X189792648Y-88635704D01*
X196654793Y-86802672D02*
X196654793Y-85287747D01*
X183570840Y-88046528D02*
X189203472Y-88046528D01*
X189792648Y-88635704D02*
X194821761Y-88635704D01*
%TO.N,Net-(D41-A)*%
X181508592Y-110046998D02*
X183474240Y-108081350D01*
X176479479Y-110046998D02*
X181508592Y-110046998D01*
X167597566Y-112117927D02*
X170181733Y-109533760D01*
X183474240Y-108081350D02*
X183474240Y-106528928D01*
X175966241Y-109533760D02*
X176479479Y-110046998D01*
X170181733Y-109533760D02*
X175966241Y-109533760D01*
%TO.N,Net-(D42-A)*%
X199775341Y-88055386D02*
X202147240Y-85683487D01*
X208356284Y-85683487D02*
X208657254Y-85984457D01*
X215505375Y-84165449D02*
X215505375Y-82895976D01*
X202147240Y-85683487D02*
X208356284Y-85683487D01*
X208657254Y-85984457D02*
X213686367Y-85984457D01*
X213686367Y-85984457D02*
X215505375Y-84165449D01*
%TO.N,Net-(D43-A)*%
X188802758Y-106871969D02*
X195011802Y-106871969D01*
X200341885Y-107172939D02*
X202289333Y-105225491D01*
X195011802Y-106871969D02*
X195312772Y-107172939D01*
X186430859Y-109243868D02*
X188802758Y-106871969D01*
X202289333Y-105225491D02*
X202289333Y-103884639D01*
X195312772Y-107172939D02*
X200341885Y-107172939D01*
%TO.N,Net-(D44-A)*%
X218629511Y-85329868D02*
X221001410Y-82957969D01*
X227511425Y-83258939D02*
X232991061Y-83258939D01*
X221001410Y-82957969D02*
X227210455Y-82957969D01*
X234556360Y-81693640D02*
X234556360Y-80142798D01*
X232991061Y-83258939D02*
X234556360Y-81693640D01*
X227210455Y-82957969D02*
X227511425Y-83258939D01*
%TO.N,Net-(D45-A)*%
X205295466Y-106592621D02*
X207667365Y-104220722D01*
X214655687Y-105000000D02*
X219192881Y-105000000D01*
X221411249Y-102781632D02*
X221411249Y-101267917D01*
X220872775Y-100872775D02*
X221000000Y-101000000D01*
X220868883Y-100872775D02*
X220872775Y-100872775D01*
X213876409Y-104220722D02*
X214655687Y-105000000D01*
X219192881Y-105000000D02*
X221411249Y-102781632D01*
X207667365Y-104220722D02*
X213876409Y-104220722D01*
%TO.N,Net-(D46-A)*%
X255318146Y-82000000D02*
X245341295Y-82000000D01*
X256162811Y-80023965D02*
X256162811Y-81155335D01*
X244181295Y-80840000D02*
X241514999Y-80840000D01*
X256162811Y-81155335D02*
X255318146Y-82000000D01*
X245341295Y-82000000D02*
X244181295Y-80840000D01*
X241514999Y-80840000D02*
X239664999Y-82690000D01*
%TO.N,Net-(D47-A)*%
X224160073Y-103941373D02*
X226851446Y-101250000D01*
X238071099Y-101870444D02*
X240309468Y-99632075D01*
X233041986Y-101870444D02*
X238071099Y-101870444D01*
X226851446Y-101250000D02*
X232421542Y-101250000D01*
X240309468Y-99632075D02*
X240309468Y-98165629D01*
X232421542Y-101250000D02*
X233041986Y-101870444D01*
%TO.N,Net-(D48-A)*%
X273832811Y-82420000D02*
X275352811Y-80900000D01*
X258707811Y-83110000D02*
X260557811Y-81260000D01*
X267670000Y-82420000D02*
X273832811Y-82420000D01*
X275352811Y-80900000D02*
X275352811Y-80130000D01*
X266510000Y-81260000D02*
X267670000Y-82420000D01*
X260557811Y-81260000D02*
X266510000Y-81260000D01*
%TO.N,Net-(D49-A)*%
X254530035Y-101049559D02*
X254240238Y-100759762D01*
X245218582Y-102140147D02*
X247358729Y-100000000D01*
X248000000Y-99750000D02*
X253230476Y-99750000D01*
X247750000Y-100000000D02*
X248000000Y-99750000D01*
X247358729Y-100000000D02*
X247750000Y-100000000D01*
X254240238Y-100759762D02*
X254405512Y-100925035D01*
X253230476Y-99750000D02*
X254240238Y-100759762D01*
X260739463Y-101049559D02*
X254530035Y-101049559D01*
X262106985Y-99682037D02*
X260739463Y-101049559D01*
%TO.N,Net-(D51-A)*%
X175228728Y-129361055D02*
X180257841Y-129361055D01*
X166346815Y-131431984D02*
X169212635Y-128566164D01*
X169212635Y-128566164D02*
X174433837Y-128566164D01*
X174433837Y-128566164D02*
X175228728Y-129361055D01*
X182343150Y-127275746D02*
X182343150Y-126083675D01*
X180257841Y-129361055D02*
X182343150Y-127275746D01*
%TO.N,Net-(D52-A)*%
X191608900Y-126408838D02*
X191950062Y-126750000D01*
X185650641Y-128970085D02*
X184270765Y-130349961D01*
X187583320Y-126408838D02*
X191608900Y-126408838D01*
X199082255Y-126750000D02*
X201141194Y-124691061D01*
X201141194Y-124691061D02*
X201141194Y-123318078D01*
X185211421Y-128780737D02*
X187583320Y-126408838D01*
X191950062Y-126750000D02*
X199082255Y-126750000D01*
%TO.N,Net-(D53-A)*%
X219815551Y-120038941D02*
X219815551Y-120006924D01*
X211507590Y-123757590D02*
X211808560Y-124058560D01*
X219970901Y-122074713D02*
X219970901Y-120777767D01*
X211808560Y-124058560D02*
X217987054Y-124058560D01*
X217987054Y-124058560D02*
X219970901Y-122074713D01*
X206447927Y-123757590D02*
X211507590Y-123757590D01*
X204076028Y-126129489D02*
X206447927Y-123757590D01*
X219815551Y-120006924D02*
X219750000Y-119941373D01*
%TO.N,Net-(D54-A)*%
X222940635Y-123478241D02*
X225312534Y-121106342D01*
X238839444Y-118660556D02*
X238750000Y-118750000D01*
X238839444Y-118600568D02*
X238839444Y-118660556D01*
X238764445Y-119494528D02*
X238764445Y-117916752D01*
X231356342Y-121106342D02*
X231657312Y-121407312D01*
X231657312Y-121407312D02*
X236851661Y-121407312D01*
X236851661Y-121407312D02*
X238764445Y-119494528D01*
X225312534Y-121106342D02*
X231356342Y-121106342D01*
%TO.N,Net-(D55-A)*%
X258480000Y-120020000D02*
X259825000Y-118675000D01*
X243440000Y-120710000D02*
X245290000Y-118860000D01*
X245290000Y-118860000D02*
X250610000Y-118860000D01*
X259825000Y-118675000D02*
X259825000Y-117447500D01*
X251770000Y-120020000D02*
X258480000Y-120020000D01*
X250610000Y-118860000D02*
X251770000Y-120020000D01*
%TO.N,Net-(D56-A)*%
X192780767Y-145838911D02*
X199871099Y-145838911D01*
X188331972Y-145537941D02*
X192479797Y-145537941D01*
X201837174Y-143872836D02*
X201837174Y-142755007D01*
X185960073Y-147909840D02*
X188331972Y-145537941D01*
X199871099Y-145838911D02*
X201837174Y-143872836D01*
X192479797Y-145537941D02*
X192780767Y-145838911D01*
%TO.N,Net-(D57-A)*%
X242599722Y-138231127D02*
X242599722Y-136954157D01*
X229691308Y-139299444D02*
X234700556Y-139299444D01*
X226719511Y-142271241D02*
X229691308Y-139299444D01*
X240001403Y-140829446D02*
X242599722Y-138231127D01*
X236230558Y-140829446D02*
X240001403Y-140829446D01*
X234700556Y-139299444D02*
X236230558Y-140829446D01*
%TO.N,Net-(D58-A)*%
X269250000Y-138250000D02*
X269250000Y-137440000D01*
X260673705Y-138485000D02*
X261833705Y-139645000D01*
X261833705Y-139645000D02*
X267855000Y-139645000D01*
X267855000Y-139645000D02*
X269250000Y-138250000D01*
X254350000Y-138485000D02*
X260673705Y-138485000D01*
X252500000Y-140335000D02*
X254350000Y-138485000D01*
%TO.N,Net-(D59-A)*%
X307350939Y-142295000D02*
X308510939Y-143455000D01*
X301195000Y-142295000D02*
X307350939Y-142295000D01*
X308510939Y-143455000D02*
X314470000Y-143455000D01*
X315468750Y-142456250D02*
X315468750Y-140895000D01*
X314470000Y-143455000D02*
X315468750Y-142456250D01*
X299345000Y-144145000D02*
X301195000Y-142295000D01*
%TO.N,Net-(D60-A)*%
X334617500Y-142157500D02*
X334617500Y-141208750D01*
X326368705Y-142295000D02*
X327633705Y-143560000D01*
X318195000Y-144145000D02*
X320045000Y-142295000D01*
X320045000Y-142295000D02*
X326368705Y-142295000D01*
X327633705Y-143560000D02*
X333215000Y-143560000D01*
X333215000Y-143560000D02*
X334617500Y-142157500D01*
%TO.N,Net-(D61-A)*%
X337245000Y-144145000D02*
X339095000Y-142295000D01*
X352370000Y-143455000D02*
X353750000Y-142075000D01*
X353750000Y-142075000D02*
X353750000Y-141190000D01*
X345295000Y-142295000D02*
X346455000Y-143455000D01*
X346455000Y-143455000D02*
X352370000Y-143455000D01*
X339095000Y-142295000D02*
X345295000Y-142295000D01*
%TO.N,Net-(D62-A)*%
X325745000Y-123245000D02*
X327000000Y-124500000D01*
X320045000Y-123245000D02*
X325745000Y-123245000D01*
X318195000Y-125095000D02*
X320045000Y-123245000D01*
X327000000Y-124500000D02*
X333190000Y-124500000D01*
X333190000Y-124500000D02*
X334750000Y-122940000D01*
%TO.N,Net-(D63-A)*%
X347740874Y-82663750D02*
X346412124Y-81335000D01*
X342351295Y-81335000D02*
X340501295Y-83185000D01*
X346412124Y-81335000D02*
X342351295Y-81335000D01*
X356873795Y-82663750D02*
X347740874Y-82663750D01*
%TO.N,Net-(D64-A)*%
X345017590Y-100385000D02*
X342351295Y-100385000D01*
X346896339Y-102263749D02*
X345017590Y-100385000D01*
X356873795Y-101463750D02*
X356073796Y-102263749D01*
X356073796Y-102263749D02*
X346896339Y-102263749D01*
X342351295Y-100385000D02*
X340501295Y-102235000D01*
%TO.N,Net-(D65-A)*%
X356873795Y-119190000D02*
X356873795Y-120321370D01*
X351337590Y-120800000D02*
X349865000Y-120800000D01*
X356873795Y-120321370D02*
X356710165Y-120485000D01*
X356710165Y-120485000D02*
X351652590Y-120485000D01*
X342411295Y-119550000D02*
X348615000Y-119550000D01*
X351652590Y-120485000D02*
X351337590Y-120800000D01*
X340501295Y-121460000D02*
X342411295Y-119550000D01*
X348615000Y-119550000D02*
X349865000Y-120800000D01*
%TO.N,Net-(D68-A)*%
X279607811Y-81335000D02*
X285585000Y-81335000D01*
X294352811Y-81147189D02*
X294352811Y-80262500D01*
X285585000Y-81335000D02*
X286745000Y-82495000D01*
X277757811Y-83185000D02*
X279607811Y-81335000D01*
X293005000Y-82495000D02*
X294352811Y-81147189D01*
X286745000Y-82495000D02*
X293005000Y-82495000D01*
%TO.N,Net-(D69-A)*%
X272635000Y-100385000D02*
X273795000Y-101545000D01*
X266410311Y-100385000D02*
X272635000Y-100385000D01*
X273795000Y-101545000D02*
X279685311Y-101545000D01*
X264560311Y-102235000D02*
X266410311Y-100385000D01*
X279685311Y-101545000D02*
X281110311Y-100120000D01*
X281110311Y-100120000D02*
X281110311Y-99205000D01*
%TO.N,Net-(D70-A)*%
X279030311Y-119207500D02*
X279030311Y-118205000D01*
X270691516Y-119435000D02*
X271851516Y-120595000D01*
X262517811Y-121285000D02*
X264367811Y-119435000D01*
X271851516Y-120595000D02*
X277642811Y-120595000D01*
X277642811Y-120595000D02*
X279030311Y-119207500D01*
X264367811Y-119435000D02*
X270691516Y-119435000D01*
%TO.N,Net-(D72-A)*%
X316917811Y-82560000D02*
X318372811Y-81105000D01*
X310862500Y-82560000D02*
X316917811Y-82560000D01*
X303642811Y-81400000D02*
X309702500Y-81400000D01*
X301792811Y-83250000D02*
X303642811Y-81400000D01*
X318372811Y-80657500D02*
X318372811Y-79880000D01*
X309702500Y-81400000D02*
X310862500Y-82560000D01*
%TO.N,Net-(D73-A)*%
X295550311Y-102235000D02*
X297785311Y-100000000D01*
X304884016Y-101545000D02*
X310955000Y-101545000D01*
X311987811Y-100512189D02*
X311987811Y-99190000D01*
X297785311Y-100000000D02*
X303339016Y-100000000D01*
X310955000Y-101545000D02*
X311987811Y-100512189D01*
X303339016Y-100000000D02*
X304884016Y-101545000D01*
%TO.N,Net-(D74-A)*%
X296966516Y-119435000D02*
X298126516Y-120595000D01*
X304405000Y-120595000D02*
X305374061Y-119625939D01*
X298126516Y-120595000D02*
X304405000Y-120595000D01*
X290642811Y-119435000D02*
X296966516Y-119435000D01*
X288792811Y-121285000D02*
X290642811Y-119435000D01*
X305374061Y-119625939D02*
X305374061Y-118197500D01*
%TO.N,GND*%
X340481295Y-64050000D02*
X352481295Y-64050000D01*
X352481295Y-64050000D02*
X354981295Y-66550000D01*
%TO.N,Col 0*%
X39205000Y-137795000D02*
X39250000Y-137750000D01*
X42080000Y-80645000D02*
X42080000Y-80670000D01*
X46255000Y-118745000D02*
X46250000Y-118750000D01*
X40500000Y-61500000D02*
X40450000Y-61450000D01*
X43120000Y-99695000D02*
X43195000Y-99695000D01*
X46295000Y-118745000D02*
X46255000Y-118745000D01*
X42080000Y-80670000D02*
X42000000Y-80750000D01*
X43195000Y-99695000D02*
X43250000Y-99750000D01*
X40450000Y-61450000D02*
X40450000Y-38720000D01*
X40450000Y-38720000D02*
X41600000Y-37570000D01*
X40456250Y-61543750D02*
X40500000Y-61500000D01*
X40456250Y-61595000D02*
X40456250Y-61543750D01*
X39100000Y-137795000D02*
X39205000Y-137795000D01*
X40450000Y-38720000D02*
X41085000Y-38085000D01*
%TO.N,ENC_A*%
X58000000Y-50930000D02*
X54300000Y-54630000D01*
X58000000Y-50880000D02*
X58000000Y-50930000D01*
%TO.N,ENC_S1*%
X46680000Y-54630000D02*
X46680000Y-54200000D01*
X46680000Y-54200000D02*
X47500000Y-53380000D01*
%TO.N,ENC_B*%
X49220000Y-54160000D02*
X50000000Y-53380000D01*
X49220000Y-54630000D02*
X49220000Y-54160000D01*
%TO.N,Col 1*%
X45500000Y-58000000D02*
X45500000Y-38750000D01*
X65980000Y-80520000D02*
X66000000Y-80500000D01*
X46500000Y-59000000D02*
X45500000Y-58000000D01*
X77240000Y-118745000D02*
X77245000Y-118745000D01*
X57250000Y-59000000D02*
X46500000Y-59000000D01*
X45500000Y-38750000D02*
X46110000Y-38140000D01*
X59750000Y-61500000D02*
X57250000Y-59000000D01*
X69305000Y-99695000D02*
X69250000Y-99750000D01*
X65980000Y-80645000D02*
X65980000Y-80520000D01*
X77245000Y-118745000D02*
X77250000Y-118750000D01*
X69330000Y-99695000D02*
X69305000Y-99695000D01*
X45500000Y-38750000D02*
X46680000Y-37570000D01*
X59655000Y-61595000D02*
X59750000Y-61500000D01*
X59506250Y-61595000D02*
X59655000Y-61595000D01*
%TO.N,Col 2*%
X78556250Y-59700000D02*
X78556250Y-55303135D01*
X78556250Y-59988750D02*
X78738750Y-59988750D01*
X87565000Y-81235000D02*
X87565000Y-80481250D01*
X78556250Y-55303135D02*
X76816558Y-53563442D01*
X87078111Y-81500000D02*
X87000000Y-81500000D01*
X49220000Y-36850000D02*
X57120000Y-44750000D01*
X78556250Y-61306250D02*
X78688750Y-61438750D01*
X78738750Y-59988750D02*
X78750000Y-60000000D01*
X89808502Y-101545000D02*
X91609469Y-99744033D01*
X78688750Y-61438750D02*
X78750000Y-61438750D01*
X57120000Y-44750000D02*
X68003116Y-44750000D01*
X68003116Y-44750000D02*
X76816558Y-53563442D01*
X76816558Y-53563442D02*
X76633115Y-53380000D01*
X78556250Y-60420000D02*
X78556250Y-61306250D01*
%TO.N,Col 3*%
X100435785Y-63492325D02*
X100492325Y-63492325D01*
X82135456Y-44985456D02*
X81500000Y-44350000D01*
X82135456Y-45000000D02*
X82135456Y-44985456D01*
X81500000Y-44350000D02*
X59260000Y-44350000D01*
X59260000Y-44350000D02*
X51760000Y-36850000D01*
X100492325Y-63492325D02*
X100500000Y-63500000D01*
X100140606Y-63005150D02*
X82135456Y-45000000D01*
%TO.N,Col 4*%
X116021787Y-143750000D02*
X116000000Y-143750000D01*
X95398812Y-42050000D02*
X94750000Y-42050000D01*
X94750000Y-42050000D02*
X59500000Y-42050000D01*
X59500000Y-42050000D02*
X54300000Y-36850000D01*
X96189406Y-42840594D02*
X96048813Y-42700000D01*
X119005212Y-65656399D02*
X96189406Y-42840594D01*
X96189406Y-42840594D02*
X95398812Y-42050000D01*
%TO.N,Col 5*%
X64180000Y-41650000D02*
X59380000Y-36850000D01*
X122660499Y-65188774D02*
X100000863Y-42529137D01*
X137890606Y-69077662D02*
X134721718Y-65908774D01*
X99250000Y-41650000D02*
X64180000Y-41650000D01*
X123380499Y-65908774D02*
X122660499Y-65188774D01*
X100000863Y-42529137D02*
X100000863Y-42400863D01*
X100000863Y-42400863D02*
X99250000Y-41650000D01*
X134721718Y-65908774D02*
X123380499Y-65908774D01*
%TO.N,Col 6*%
X127124314Y-41130000D02*
X66200000Y-41130000D01*
X153329222Y-67334908D02*
X127124314Y-41130000D01*
X153834908Y-67334908D02*
X153329222Y-67334908D01*
X156755212Y-71728910D02*
X156750000Y-71723698D01*
X66200000Y-41130000D02*
X61920000Y-36850000D01*
X156750000Y-71003698D02*
X156750000Y-70250000D01*
X156750000Y-70250000D02*
X153834908Y-67334908D01*
%TO.N,Col 7*%
X183177967Y-68797783D02*
X183202217Y-68797783D01*
X153494908Y-66934908D02*
X181315092Y-66934908D01*
X64460000Y-36850000D02*
X68340000Y-40730000D01*
X183202217Y-68797783D02*
X183250000Y-68750000D01*
X181315092Y-66934908D02*
X183177967Y-68797783D01*
X240345745Y-137597769D02*
X240402231Y-137597769D01*
X68340000Y-40730000D02*
X126650000Y-40730000D01*
X126650000Y-40730000D02*
X126750000Y-40630000D01*
X127190000Y-40630000D02*
X153494908Y-66934908D01*
X126750000Y-40630000D02*
X127190000Y-40630000D01*
X240402231Y-137597769D02*
X240500000Y-137500000D01*
X181253634Y-66873450D02*
X181315092Y-66934908D01*
%TO.N,Col 8*%
X127355686Y-40230000D02*
X151518221Y-64392535D01*
X151518221Y-64392535D02*
X200288574Y-64392535D01*
X200646535Y-66146535D02*
X202042574Y-66146535D01*
X126484314Y-40330000D02*
X126584314Y-40230000D01*
X70215000Y-40065000D02*
X70280000Y-40130000D01*
X70480000Y-40330000D02*
X126484314Y-40330000D01*
X67000000Y-36850000D02*
X70215000Y-40065000D01*
X127000000Y-40230000D02*
X127355686Y-40230000D01*
X126584314Y-40230000D02*
X127144314Y-40230000D01*
X70215000Y-40065000D02*
X70480000Y-40330000D01*
X200288574Y-64392535D02*
X202042574Y-66146535D01*
%TO.N,Col 9*%
X219161894Y-61750000D02*
X150500000Y-61750000D01*
X126418629Y-39830000D02*
X126318629Y-39930000D01*
X220629330Y-62379330D02*
X220750000Y-62500000D01*
X128580000Y-39830000D02*
X126418629Y-39830000D01*
X150500000Y-61750000D02*
X128580000Y-39830000D01*
X233036740Y-80713260D02*
X233000000Y-80750000D01*
X233036740Y-80677286D02*
X233036740Y-80713260D01*
X126318629Y-39930000D02*
X77700000Y-39930000D01*
X220629330Y-62326490D02*
X220629330Y-62379330D01*
X220907181Y-63495287D02*
X219161894Y-61750000D01*
X77700000Y-39930000D02*
X74620000Y-36850000D01*
%TO.N,Col 10*%
X253487811Y-79237811D02*
X253480000Y-79230000D01*
X258916668Y-98878775D02*
X258916668Y-98916668D01*
X75770000Y-33900000D02*
X73470000Y-33900000D01*
X133015686Y-43700000D02*
X128745686Y-39430000D01*
X258916668Y-98916668D02*
X259000000Y-99000000D01*
X126252943Y-39430000D02*
X126152943Y-39530000D01*
X126152943Y-39530000D02*
X81400000Y-39530000D01*
X239653222Y-61329490D02*
X239670510Y-61329490D01*
X128745686Y-39430000D02*
X126252943Y-39430000D01*
X257290000Y-118245000D02*
X257467189Y-118245000D01*
X257467189Y-118245000D02*
X257472189Y-118250000D01*
X239771787Y-60844040D02*
X222627747Y-43700000D01*
X222627747Y-43700000D02*
X133015686Y-43700000D01*
X72080000Y-36010000D02*
X72080000Y-37570000D01*
X253515000Y-80015000D02*
X253500000Y-80000000D01*
X81400000Y-39530000D02*
X75770000Y-33900000D01*
X72080000Y-35290000D02*
X72080000Y-36850000D01*
X253515000Y-80150000D02*
X253515000Y-80015000D01*
X253487811Y-79400000D02*
X253487811Y-79237811D01*
X239670510Y-61329490D02*
X239750000Y-61250000D01*
X73470000Y-33900000D02*
X72080000Y-35290000D01*
%TO.N,Col 11*%
X261170000Y-60920000D02*
X261250000Y-61000000D01*
X272680000Y-80570000D02*
X272750000Y-80500000D01*
X75120000Y-54130000D02*
X74620000Y-54630000D01*
X276495000Y-118745000D02*
X276500000Y-118750000D01*
X278445000Y-99695000D02*
X278500000Y-99750000D01*
X276367811Y-118745000D02*
X276495000Y-118745000D01*
X278410311Y-99695000D02*
X278445000Y-99695000D01*
X272557811Y-80570000D02*
X272680000Y-80570000D01*
X76000000Y-54130000D02*
X75120000Y-54130000D01*
%TO.N,Col 12*%
X280177811Y-61595000D02*
X280177811Y-61572189D01*
X72080000Y-54630000D02*
X72080000Y-54550000D01*
X291607811Y-80645000D02*
X291607811Y-80607811D01*
X291607811Y-80607811D02*
X291500000Y-80500000D01*
X280177811Y-61572189D02*
X280250000Y-61500000D01*
X309400311Y-99695000D02*
X309305000Y-99695000D01*
X309305000Y-99695000D02*
X309250000Y-99750000D01*
X72080000Y-54550000D02*
X73000000Y-53630000D01*
X302745000Y-118745000D02*
X302750000Y-118750000D01*
X302642811Y-118745000D02*
X302745000Y-118745000D01*
%TO.N,Col 13*%
X315642811Y-80262500D02*
X315642811Y-80392811D01*
X315642811Y-80392811D02*
X315750000Y-80500000D01*
X308752811Y-61595000D02*
X308752811Y-61747189D01*
X67000000Y-54380000D02*
X68000000Y-53380000D01*
X308752811Y-61747189D02*
X308750000Y-61750000D01*
X67000000Y-54630000D02*
X67000000Y-54380000D01*
%TO.N,Col 14*%
X313195000Y-141605000D02*
X313160939Y-141605000D01*
X64460000Y-54170000D02*
X65250000Y-53380000D01*
X313160939Y-141605000D02*
X313115939Y-141560000D01*
X64460000Y-54630000D02*
X64460000Y-54170000D01*
%TO.N,Col 15*%
X61920000Y-54630000D02*
X61920000Y-54210000D01*
X332045000Y-122555000D02*
X332110939Y-122555000D01*
X61920000Y-54210000D02*
X62750000Y-53380000D01*
X332045000Y-141605000D02*
X332070939Y-141605000D01*
X332070939Y-141605000D02*
X332115939Y-141560000D01*
X332110939Y-122555000D02*
X332115939Y-122560000D01*
%TO.N,Col 16*%
X59380000Y-54630000D02*
X59380000Y-54250000D01*
X59380000Y-54250000D02*
X60250000Y-53380000D01*
X351095000Y-141595000D02*
X351000000Y-141500000D01*
X351095000Y-141605000D02*
X351095000Y-141595000D01*
%TD*%
M02*
